<svg xmlns="http://www.w3.org/2000/svg" xmlns:xlink="http://www.w3.org/1999/xlink" width="1920" height="1236" viewBox="0 0 1920 1236">
  <defs>
    <linearGradient id="linear-gradient" x1="0.166" y1="0.128" x2="0.867" y2="0.824" gradientUnits="objectBoundingBox">
      <stop offset="0" stop-color="#5a68d2"/>
      <stop offset="1" stop-color="#b146d7"/>
    </linearGradient>
  </defs>
  <g id="交叉_1" data-name="交叉 1" transform="translate(3500.001 -2)" fill="url(#linear-gradient)">
    <path d="M -1580.50048828125 1237.499633789063 L -3499.500732421875 1237.499633789063 L -3499.500732421875 128.8199310302734 C -3463.405517578125 118.592155456543 -3426.63427734375 108.8462448120117 -3390.2041015625 99.85201263427734 C -3353.49560546875 90.78891754150391 -3316.113525390625 82.23748779296875 -3279.097412109375 74.43487548828125 C -3241.91552734375 66.59748840332031 -3204.07080078125 59.2982063293457 -3166.6142578125 52.74010848999023 C -3128.982666015625 46.15130233764648 -3090.6982421875 40.12749099731445 -3052.824462890625 34.83629989624023 C -3014.766357421875 29.51915740966797 -2976.066162109375 24.79391860961914 -2937.79833984375 20.79177665710449 C -2899.33740234375 16.76939582824707 -2860.24462890625 13.36558628082275 -2821.60546875 10.67510986328125 C -2782.76513671875 7.97058629989624 -2743.30322265625 5.911300659179688 -2704.316162109375 4.554872035980225 C -2665.119384765625 3.191062450408936 -2625.312255859375 2.4996337890625 -2586.000244140625 2.4996337890625 C -2542.51708984375 2.4996337890625 -2498.498046875 3.344871997833252 -2455.165283203125 5.011776447296143 C -2412.08544921875 6.6691575050354 -2368.495849609375 9.184395790100098 -2325.607177734375 12.4874906539917 C -2282.96044921875 15.77225303649902 -2239.8310546875 19.92653846740723 -2197.41650390625 24.83510971069336 C -2155.23291015625 29.71725273132324 -2112.593994140625 35.47987365722656 -2070.68408203125 41.96320343017578 C -2028.993408203125 48.41249084472656 -1986.87548828125 55.75272750854492 -1945.500732421875 63.77963256835938 C -1904.332641601563 71.76654052734375 -1862.766479492188 80.6534423828125 -1821.956665039063 90.19344329833984 C -1781.341430664063 99.68796539306641 -1740.357421875 110.0908279418945 -1700.14306640625 121.1129684448242 C -1660.227783203125 132.0529632568359 -1619.977661132813 143.9027557373047 -1580.50048828125 156.3361358642578 L -1580.50048828125 1237.499633789063 Z" stroke="none"/>
    <path d="M -1581.00048828125 1236.999633789063 L -1581.00048828125 156.7028961181641 C -1620.35791015625 144.3122100830078 -1660.485595703125 132.5008697509766 -1700.275512695313 121.5951080322266 C -1740.483642578125 110.5746307373047 -1781.46142578125 100.1734466552734 -1822.070434570313 90.68035125732422 C -1862.8740234375 81.14177703857422 -1904.43408203125 72.25630187988281 -1945.595947265625 64.27058410644531 C -1986.964599609375 56.24463272094727 -2029.075927734375 48.90558624267578 -2070.760498046875 42.45725250244141 C -2112.6640625 35.97487258911133 -2155.296630859375 30.21320533752441 -2197.47412109375 25.33177757263184 C -2239.882080078125 20.42391967773438 -2283.00537109375 16.27034759521484 -2325.6455078125 12.98606204986572 C -2368.528076171875 9.683443069458008 -2412.111328125 7.168443202972412 -2455.1845703125 5.511538505554199 C -2498.510986328125 3.844871997833252 -2542.523681640625 2.9996337890625 -2586.000244140625 2.9996337890625 C -2625.306396484375 2.9996337890625 -2665.10791015625 3.691062450408936 -2704.298828125 5.054633617401123 C -2743.280029296875 6.410824298858643 -2782.736083984375 8.469634056091309 -2821.57080078125 11.17391967773438 C -2860.2041015625 13.86415767669678 -2899.291015625 17.26725196838379 -2937.74609375 21.28891944885254 C -2976.00830078125 25.29058647155762 -3014.703125 30.01511001586914 -3052.75537109375 35.331298828125 C -3090.623291015625 40.62201309204102 -3128.902099609375 46.64487075805664 -3166.52783203125 53.23249053955078 C -3203.978759765625 59.78963470458984 -3241.818115234375 67.08773040771484 -3278.994384765625 74.92415618896484 C -3316.005126953125 82.72534942626953 -3353.380859375 91.27582550048828 -3390.084228515625 100.3374938964844 C -3426.38623046875 109.3000030517578 -3463.02783203125 119.009391784668 -3499.000732421875 129.1980590820313 L -3499.000732421875 1236.999633789063 L -1581.00048828125 1236.999633789063 M -1580.00048828125 1237.999633789063 L -3500.000732421875 1237.999633789063 L -3500.000732421875 128.4420166015625 C -3209.5205078125 46.0958251953125 -2902.8623046875 1.9996337890625 -2586.000244140625 1.9996337890625 C -2235.43408203125 1.9996337890625 -1897.51953125 55.9279670715332 -1580.00048828125 155.9693908691406 L -1580.00048828125 1237.999633789063 Z" stroke="none" fill="#707070"/>
  </g>
</svg>
