<svg xmlns="http://www.w3.org/2000/svg" width="1258" height="562.5" viewBox="0 0 1258 562.5">
  <g id="组_52" data-name="组 52" transform="translate(-331 -2367.5)">
    <g id="组_46" data-name="组 46" transform="translate(65.495 1164.622)">
      <rect id="矩形_23" data-name="矩形 23" width="631" height="385" rx="10" transform="translate(674.005 1378.878)" fill="none" stroke="#414142" stroke-miterlimit="10" stroke-width="3" stroke-dasharray="10"/>
      <rect id="矩形_12" data-name="矩形 12" width="595" height="349" rx="10" transform="translate(692.005 1396.878)" fill="none" stroke="#414142" stroke-miterlimit="10" stroke-width="5"/>
      <g id="矩形_15" data-name="矩形 15" transform="translate(728.505 1414.378)" fill="none" stroke="#414142" stroke-width="5">
        <rect width="210" height="57" rx="10" stroke="none"/>
        <rect x="2.5" y="2.5" width="205" height="52" rx="7.5" fill="none"/>
      </g>
      <g id="矩形_19" data-name="矩形 19" transform="translate(728.505 1538.378)" fill="none" stroke="#414142" stroke-width="5">
        <rect width="210" height="57" rx="10" stroke="none"/>
        <rect x="2.5" y="2.5" width="205" height="52" rx="7.5" fill="none"/>
      </g>
      <g id="矩形_21" data-name="矩形 21" transform="translate(728.505 1662.378)" fill="none" stroke="#414142" stroke-width="5">
        <rect width="210" height="57" rx="10" stroke="none"/>
        <rect x="2.5" y="2.5" width="205" height="52" rx="7.5" fill="none"/>
      </g>
      <g id="矩形_22" data-name="矩形 22" transform="translate(980.505 1662.378)" fill="none" stroke="#414142" stroke-width="5">
        <rect width="210" height="57" rx="10" stroke="none"/>
        <rect x="2.5" y="2.5" width="205" height="52" rx="7.5" fill="none"/>
      </g>
      <g id="矩形_18" data-name="矩形 18" transform="translate(980.505 1414.378)" fill="none" stroke="#414142" stroke-width="5">
        <rect width="210" height="57" rx="10" stroke="none"/>
        <rect x="2.5" y="2.5" width="205" height="52" rx="7.5" fill="none"/>
      </g>
      <g id="矩形_20" data-name="矩形 20" transform="translate(980.505 1538.378)" fill="none" stroke="#414142" stroke-width="5">
        <rect width="210" height="57" rx="10" stroke="none"/>
        <rect x="2.5" y="2.5" width="205" height="52" rx="7.5" fill="none"/>
      </g>
      <text id="Dev" transform="translate(1457.505 1580.378)" fill="#3f4043" font-size="39" font-family="Roboto-Bold, Roboto" font-weight="700"><tspan x="0" y="0">Dev</tspan></text>
      <text id="Token_1" data-name="Token 1" transform="translate(834.505 1454.378)" fill="#3f4043" font-size="33" font-family="Roboto-Bold, Roboto" font-weight="700"><tspan x="-58.25" y="0">Token 1</tspan></text>
      <text id="LP_Token_1" data-name="LP Token 1" transform="translate(832.505 1577.378)" fill="#3f4043" font-size="32" font-family="Roboto-Bold, Roboto" font-weight="700"><tspan x="-78.984" y="0">LP Token 1</tspan></text>
      <text id="Pair_1" data-name="Pair 1" transform="translate(833.505 1701.378)" fill="#3f4043" font-size="32" font-family="Roboto-Bold, Roboto" font-weight="700"><tspan x="-42.055" y="0">Pair 1</tspan></text>
      <text id="Pair_2" data-name="Pair 2" transform="translate(1083.505 1701.378)" fill="#3f4043" font-size="32" font-family="Roboto-Bold, Roboto" font-weight="700"><tspan x="-42.055" y="0">Pair 2</tspan></text>
      <text id="Token_2" data-name="Token 2" transform="translate(1083.505 1454.378)" fill="#3f4043" font-size="33" font-family="Roboto-Bold, Roboto" font-weight="700"><tspan x="-58.25" y="0">Token 2</tspan></text>
      <text id="LP_Token_2" data-name="LP Token 2" transform="translate(1081.505 1577.378)" fill="#3f4043" font-size="32" font-family="Roboto-Bold, Roboto" font-weight="700"><tspan x="-78.984" y="0">LP Token 2</tspan></text>
      <g id="组_23" data-name="组 23" transform="translate(932.314 1272.344)">
        <text id="Swap" transform="translate(115.191 43.034)" fill="#414142" font-size="24" font-family="Roboto-Medium, Roboto" font-weight="500"><tspan x="0" y="0">Swap</tspan></text>
        <text id="Add_Liquid" data-name="Add Liquid" transform="translate(0.191 9.034)" fill="#414142" font-size="24" font-family="Roboto-Medium, Roboto" font-weight="500"><tspan x="0" y="23">Add </tspan><tspan x="0" y="52">Liquid</tspan></text>
        <g id="组_22" data-name="组 22" transform="translate(71.342 0)">
          <path id="路径_38" data-name="路径 38" d="M1865.849,94.025v71l-15-12" transform="translate(-1850.5 -94.49)" fill="none" stroke="#3f4043" stroke-miterlimit="10" stroke-width="5"/>
          <path id="路径_39" data-name="路径 39" d="M1878.726,164.88v-71l14,10" transform="translate(-1849.377 -94.346)" fill="none" stroke="#3f4043" stroke-miterlimit="10" stroke-width="5"/>
        </g>
      </g>
      <g id="组_25" data-name="组 25" transform="translate(497.599 1516.125)">
        <text id="Withdraw" transform="translate(25.907 97.254)" fill="#3f4043" font-size="24" font-family="Roboto-Medium, Roboto" font-weight="500"><tspan x="0" y="0">Withdraw</tspan></text>
        <text id="Deposit" transform="translate(34.907 23.254)" fill="#3f4043" font-size="24" font-family="Roboto-Medium, Roboto" font-weight="500"><tspan x="0" y="0">Deposit</tspan></text>
        <g id="组_24" data-name="组 24" transform="translate(0 31.354)">
          <path id="路径_40" data-name="路径 40" d="M1325.809,372.647h154l-15-14" transform="translate(-1325.402 -358.248)" fill="none" stroke="#3f4043" stroke-miterlimit="10" stroke-width="5"/>
          <path id="路径_41" data-name="路径 41" d="M1479.809,384.487h-154l15,14" transform="translate(-1325.402 -357.087)" fill="none" stroke="#3f4043" stroke-miterlimit="10" stroke-width="5"/>
        </g>
      </g>
      <g id="组_27" data-name="组 27" transform="translate(953.178 1205.5)">
        <text id="User" transform="translate(54.828 38.378)" fill="#3f4043" font-size="37" font-family="Roboto-Bold, Roboto" font-weight="700"><tspan x="0" y="0">User</tspan></text>
        <g id="组_26" data-name="组 26" transform="translate(0 0)">
          <ellipse id="椭圆_10" data-name="椭圆 10" cx="8.5" cy="9" rx="8.5" ry="9" transform="translate(8.328 -0.122)" fill="none" stroke="#414142" stroke-miterlimit="10" stroke-width="5"/>
          <path id="路径_42" data-name="路径 42" d="M1825.644-20.129c-9.462.011-16.988,8.538-17,18a1,1,0,0,0,1,1h31a.994.994,0,0,0,1-1C1841.632-11.591,1835.106-20.118,1825.644-20.129Z" transform="translate(-1808.316 49.008)" fill="none" stroke="#414142" stroke-miterlimit="10" stroke-width="5"/>
        </g>
      </g>
      <line id="直线_16" data-name="直线 16" y2="44" transform="translate(834.005 1482.878)" fill="none" stroke="#414142" stroke-miterlimit="10" stroke-width="2" stroke-dasharray="5"/>
      <g id="组_28" data-name="组 28" transform="translate(828.047 1606.658)">
        <line id="直线_17" data-name="直线 17" y2="43" transform="translate(-0.041 0.22)" fill="none" stroke="#414142" stroke-miterlimit="10" stroke-width="2"/>
        <line id="直线_18" data-name="直线 18" y2="43" transform="translate(11.959 0.22)" fill="none" stroke="#414142" stroke-miterlimit="10" stroke-width="2"/>
      </g>
      <g id="组_29" data-name="组 29" transform="translate(1079.032 1606.658)">
        <line id="直线_19" data-name="直线 19" y2="43" transform="translate(-0.027 0.22)" fill="none" stroke="#414142" stroke-miterlimit="10" stroke-width="2"/>
        <line id="直线_20" data-name="直线 20" y2="43" transform="translate(11.973 0.22)" fill="none" stroke="#414142" stroke-miterlimit="10" stroke-width="2"/>
      </g>
      <line id="直线_21" data-name="直线 21" x2="207" y2="44" transform="translate(856.005 1482.878)" fill="none" stroke="#414142" stroke-miterlimit="10" stroke-width="2" stroke-dasharray="5"/>
      <line id="直线_22" data-name="直线 22" x1="207" y2="44" transform="translate(856.005 1482.878)" fill="none" stroke="#414142" stroke-miterlimit="10" stroke-width="2" stroke-dasharray="5"/>
      <line id="直线_23" data-name="直线 23" y2="44" transform="translate(1084.005 1482.878)" fill="none" stroke="#414142" stroke-miterlimit="10" stroke-width="2" stroke-dasharray="5"/>
      <line id="直线_24" data-name="直线 24" x2="62" transform="translate(1202.005 1442.878)" fill="none" stroke="#414142" stroke-miterlimit="10" stroke-width="2" stroke-dasharray="5"/>
      <line id="直线_25" data-name="直线 25" x2="62" transform="translate(1202.005 1566.878)" fill="none" stroke="#414142" stroke-miterlimit="10" stroke-width="2" stroke-dasharray="5"/>
      <line id="直线_26" data-name="直线 26" x2="62" transform="translate(1202.005 1692.878)" fill="none" stroke="#414142" stroke-miterlimit="10" stroke-width="2" stroke-dasharray="5"/>
      <g id="矩形_16" data-name="矩形 16" transform="translate(265.505 1500.378)" fill="none" stroke="#414142" stroke-width="5">
        <rect width="210" height="56" rx="10" stroke="none"/>
        <rect x="2.5" y="2.5" width="205" height="51" rx="7.5" fill="none"/>
      </g>
      <g id="矩形_17" data-name="矩形 17" transform="translate(265.505 1579.378)" fill="none" stroke="#414142" stroke-width="5">
        <rect width="210" height="57" rx="10" stroke="none"/>
        <rect x="2.5" y="2.5" width="205" height="52" rx="7.5" fill="none"/>
      </g>
      <text id="Token_1-2" data-name="Token 1" transform="translate(369.505 1539.378)" fill="#3f4043" font-size="33" font-family="Roboto-Bold, Roboto" font-weight="700"><tspan x="-58.25" y="0">Token 1</tspan></text>
      <text id="Token_2-2" data-name="Token 2" transform="translate(369.505 1618.378)" fill="#3f4043" font-size="33" font-family="Roboto-Bold, Roboto" font-weight="700"><tspan x="-58.25" y="0">Token 2</tspan></text>
      <g id="组_33" data-name="组 33" transform="translate(1336.416 1530.475)">
        <text id="AP1" transform="translate(26.089 22.903)" fill="#3f4043" font-size="24" font-family="Roboto-Medium, Roboto" font-weight="500"><tspan x="0" y="0">AP1</tspan></text>
        <g id="组_32" data-name="组 32" transform="translate(99.838 29.926) rotate(90)">
          <path id="路径_38-2" data-name="路径 38" d="M15.6,99.838V0L0,11.44" fill="none" stroke="#3f4043" stroke-miterlimit="10" stroke-width="5"/>
        </g>
      </g>
    </g>
  </g>
</svg>
