<svg xmlns="http://www.w3.org/2000/svg" viewBox="0 0 1257.58 562.5"><defs><style>.cls-1,.cls-10,.cls-2,.cls-3,.cls-4,.cls-8,.cls-9{fill:none;}.cls-1,.cls-10,.cls-2,.cls-4,.cls-9{stroke:#414142;}.cls-1,.cls-10,.cls-2,.cls-8,.cls-9{stroke-miterlimit:10;}.cls-1{stroke-width:3px;stroke-dasharray:10;}.cls-2,.cls-4,.cls-8{stroke-width:5px;}.cls-5{isolation:isolate;}.cls-6{fill:#3f4043;}.cls-7{fill:#414142;}.cls-8{stroke:#3f4043;}.cls-10,.cls-9{stroke-width:2px;}.cls-9{stroke-dasharray:5;}</style></defs><title>Asset 1</title><g id="Layer_2" data-name="Layer 2"><g id="Layer_1-2" data-name="Layer 1"><g id="组_46" data-name="组 46"><rect id="矩形_23" data-name="矩形 23" class="cls-1" x="408.5" y="176" width="631" height="385" rx="10"/><rect id="矩形_12" data-name="矩形 12" class="cls-2" x="426.5" y="194" width="595" height="349" rx="10"/><g id="矩形_15" data-name="矩形 15"><rect class="cls-3" x="463" y="211.5" width="210" height="57" rx="10"/><rect class="cls-4" x="465.5" y="214" width="205" height="52" rx="7.5"/></g><g id="矩形_19" data-name="矩形 19"><rect class="cls-3" x="463" y="335.5" width="210" height="57" rx="10"/><rect class="cls-4" x="465.5" y="338" width="205" height="52" rx="7.5"/></g><g id="矩形_21" data-name="矩形 21"><rect class="cls-3" x="463" y="459.5" width="210" height="57" rx="10"/><rect class="cls-4" x="465.5" y="462" width="205" height="52" rx="7.5"/></g><g id="矩形_22" data-name="矩形 22"><rect class="cls-3" x="715" y="459.5" width="210" height="57" rx="10"/><rect class="cls-4" x="717.5" y="462" width="205" height="52" rx="7.5"/></g><g id="矩形_18" data-name="矩形 18"><rect class="cls-3" x="715" y="211.5" width="210" height="57" rx="10"/><rect class="cls-4" x="717.5" y="214" width="205" height="52" rx="7.5"/></g><g id="矩形_20" data-name="矩形 20"><rect class="cls-3" x="715" y="335.5" width="210" height="57" rx="10"/><rect class="cls-4" x="717.5" y="338" width="205" height="52" rx="7.5"/></g><g id="Dev" class="cls-5"><g class="cls-5"><path class="cls-6" d="M1194.48,377.5V349.77H1203a12.94,12.94,0,0,1,6.54,1.65,11.5,11.5,0,0,1,4.5,4.69,14.41,14.41,0,0,1,1.62,6.9v1.27a14.52,14.52,0,0,1-1.59,6.88,11.31,11.31,0,0,1-4.48,4.66,13,13,0,0,1-6.54,1.68Zm5.71-23.1v18.51H1203a6.2,6.2,0,0,0,5.12-2.19,9.87,9.87,0,0,0,1.81-6.26V363c0-2.82-.58-4.95-1.75-6.41a6.2,6.2,0,0,0-5.12-2.18Z"/><path class="cls-6" d="M1228.94,377.88a10.14,10.14,0,0,1-7.38-2.78,9.9,9.9,0,0,1-2.84-7.41v-.53a12.43,12.43,0,0,1,1.2-5.55,8.78,8.78,0,0,1,3.4-3.77,9.54,9.54,0,0,1,5-1.33,8.55,8.55,0,0,1,6.66,2.67q2.43,2.67,2.43,7.56V369H1224.3a5,5,0,0,0,1.61,3.23,4.8,4.8,0,0,0,3.39,1.22,5.94,5.94,0,0,0,5-2.3l2.7,3a8.23,8.23,0,0,1-3.35,2.73A11.06,11.06,0,0,1,1228.94,377.88Zm-.63-16.93a3.43,3.43,0,0,0-2.65,1.11,5.75,5.75,0,0,0-1.31,3.18H1232v-.44a4.13,4.13,0,0,0-1-2.84A3.57,3.57,0,0,0,1228.31,361Z"/><path class="cls-6" d="M1248,370.78l3.82-13.88h5.75l-6.95,20.6h-5.25l-7-20.6h5.75Z"/></g></g><g id="Token_1" data-name="Token 1" class="cls-5"><g class="cls-5"><path class="cls-6" d="M530.5,232h-7.18V251.5h-4.84V232h-7.09V228H530.5Z"/><path class="cls-6" d="M528.88,242.62a10.26,10.26,0,0,1,1-4.62,7.22,7.22,0,0,1,2.87-3.14,8.32,8.32,0,0,1,4.36-1.12,7.94,7.94,0,0,1,5.76,2.16,8.66,8.66,0,0,1,2.49,5.87l0,1.19a9.1,9.1,0,0,1-2.24,6.44,8.69,8.69,0,0,1-12,0,9.3,9.3,0,0,1-2.25-6.58Zm4.65.33a6.51,6.51,0,0,0,.94,3.8,3.07,3.07,0,0,0,2.67,1.32,3.12,3.12,0,0,0,2.65-1.3,7.17,7.17,0,0,0,1-4.16,6.46,6.46,0,0,0-1-3.77,3.09,3.09,0,0,0-2.68-1.34,3,3,0,0,0-2.64,1.33A7.27,7.27,0,0,0,533.53,243Z"/><path class="cls-6" d="M554.59,244.51l-1.67,1.67v5.32h-4.66V226.75h4.66v13.71l.9-1.16,4.46-5.23h5.6l-6.3,7.26,6.84,10.17h-5.35Z"/><path class="cls-6" d="M573.59,251.82a8.54,8.54,0,0,1-6.24-2.35,8.36,8.36,0,0,1-2.41-6.27v-.45a10.64,10.64,0,0,1,1-4.7,7.5,7.5,0,0,1,2.88-3.19,8.15,8.15,0,0,1,4.25-1.12,7.26,7.26,0,0,1,5.63,2.26,9.17,9.17,0,0,1,2,6.4v1.9h-11.1A4.31,4.31,0,0,0,571,247a4.16,4.16,0,0,0,2.88,1,5,5,0,0,0,4.2-1.95l2.29,2.56a7,7,0,0,1-2.83,2.31A9.26,9.26,0,0,1,573.59,251.82Zm-.53-14.32a2.91,2.91,0,0,0-2.25.94,4.86,4.86,0,0,0-1.1,2.68h6.48v-.37a3.47,3.47,0,0,0-.84-2.4A3,3,0,0,0,573.06,237.5Z"/><path class="cls-6" d="M587.69,234.07l.15,2a6.07,6.07,0,0,1,5-2.34,5.07,5.07,0,0,1,4.12,1.63,7.62,7.62,0,0,1,1.39,4.87V251.5H593.7V240.35a3,3,0,0,0-.64-2.15,2.88,2.88,0,0,0-2.15-.67,3.21,3.21,0,0,0-2.95,1.68V251.5h-4.65V234.07Z"/><path class="cls-6" d="M621.22,251.5h-4.65V233.55L611,235.27v-3.78l9.71-3.48h.5Z"/></g></g><g id="LP_Token_1" data-name="LP Token 1" class="cls-5"><g class="cls-5"><path class="cls-6" d="M494.73,370.73h10v3.77H490.05V351.75h4.68Z"/><path class="cls-6" d="M512.06,366.48v8h-4.68V351.75h8.87a10.21,10.21,0,0,1,4.51.94,6.86,6.86,0,0,1,3,2.66,7.41,7.41,0,0,1,1,3.93,6.53,6.53,0,0,1-2.29,5.27,9.53,9.53,0,0,1-6.34,1.93Zm0-3.79h4.19a4.09,4.09,0,0,0,2.84-.88,3.17,3.17,0,0,0,1-2.5,3.78,3.78,0,0,0-1-2.7,3.67,3.67,0,0,0-2.72-1.06h-4.3Z"/><path class="cls-6" d="M552.17,355.55h-7V374.5h-4.68V355.55h-6.88v-3.8h18.53Z"/><path class="cls-6" d="M550.59,365.89a10.07,10.07,0,0,1,1-4.48,7.11,7.11,0,0,1,2.79-3.05,8.14,8.14,0,0,1,4.23-1.08,7.67,7.67,0,0,1,5.58,2.1,8.37,8.37,0,0,1,2.42,5.68l0,1.16a8.83,8.83,0,0,1-2.17,6.24,8.43,8.43,0,0,1-11.67,0,9,9,0,0,1-2.18-6.38Zm4.52.32a6.28,6.28,0,0,0,.91,3.69,3.25,3.25,0,0,0,5.15,0,6.87,6.87,0,0,0,.92-4,6.23,6.23,0,0,0-.92-3.66,3,3,0,0,0-2.59-1.3,2.93,2.93,0,0,0-2.56,1.29A7,7,0,0,0,555.11,366.21Z"/><path class="cls-6" d="M575.53,367.72l-1.62,1.62v5.16h-4.52v-24h4.52v13.3l.87-1.13,4.33-5.08h5.42l-6.11,7.05,6.64,9.86h-5.18Z"/><path class="cls-6" d="M594,374.81a8.29,8.29,0,0,1-6.05-2.28,8.11,8.11,0,0,1-2.34-6.08V366a10.19,10.19,0,0,1,1-4.56,7.11,7.11,0,0,1,2.79-3.09,7.75,7.75,0,0,1,4.11-1.09,7,7,0,0,1,5.46,2.19,8.89,8.89,0,0,1,2,6.2v1.85H590.14a4.21,4.21,0,0,0,1.32,2.65,4,4,0,0,0,2.79,1,4.88,4.88,0,0,0,4.08-1.89l2.22,2.49A6.93,6.93,0,0,1,597.8,374,9.15,9.15,0,0,1,594,374.81Zm-.51-13.89a2.84,2.84,0,0,0-2.18.91,4.68,4.68,0,0,0-1.07,2.61h6.28v-.36a3.33,3.33,0,0,0-.81-2.33A2.91,2.91,0,0,0,593.44,360.92Z"/><path class="cls-6" d="M607.63,357.59l.14,2a5.89,5.89,0,0,1,4.86-2.27,4.92,4.92,0,0,1,4,1.58,7.38,7.38,0,0,1,1.34,4.72V374.5h-4.52V363.69a2.92,2.92,0,0,0-.62-2.09,2.82,2.82,0,0,0-2.08-.65,3.12,3.12,0,0,0-2.86,1.63V374.5h-4.51V357.59Z"/><path class="cls-6" d="M640.14,374.5h-4.51V357.09l-5.4,1.68v-3.68l9.43-3.37h.48Z"/></g></g><g id="Pair_1" data-name="Pair 1" class="cls-5"><g class="cls-5"><path class="cls-6" d="M532.66,490.48v8H528V475.75h8.87a10.21,10.21,0,0,1,4.51.94,6.86,6.86,0,0,1,3,2.66,7.41,7.41,0,0,1,1,3.93,6.53,6.53,0,0,1-2.29,5.27,9.53,9.53,0,0,1-6.34,1.93Zm0-3.79h4.19a4.09,4.09,0,0,0,2.84-.88,3.17,3.17,0,0,0,1-2.5,3.74,3.74,0,0,0-1-2.7,3.67,3.67,0,0,0-2.72-1.06h-4.3Z"/><path class="cls-6" d="M557.94,498.5a5.48,5.48,0,0,1-.45-1.52,5.44,5.44,0,0,1-4.26,1.83,6,6,0,0,1-4.12-1.43,4.63,4.63,0,0,1-1.63-3.63,4.75,4.75,0,0,1,2-4.12,9.83,9.83,0,0,1,5.76-1.46h2.07v-1a2.78,2.78,0,0,0-.6-1.87,2.36,2.36,0,0,0-1.9-.7,2.68,2.68,0,0,0-1.78.54,1.85,1.85,0,0,0-.65,1.5h-4.52a4.52,4.52,0,0,1,.91-2.72,6.05,6.05,0,0,1,2.56-2,9.38,9.38,0,0,1,3.72-.71,7.36,7.36,0,0,1,5,1.57,5.52,5.52,0,0,1,1.84,4.42v7.32a8,8,0,0,0,.67,3.64v.27Zm-3.73-3.14a3.83,3.83,0,0,0,1.84-.45,2.83,2.83,0,0,0,1.25-1.19v-2.91h-1.68c-2.26,0-3.47.78-3.61,2.35l0,.26a1.79,1.79,0,0,0,.6,1.39A2.26,2.26,0,0,0,554.21,495.36Z"/><path class="cls-6" d="M565.27,477.22a2.22,2.22,0,0,1,.68-1.67,2.92,2.92,0,0,1,3.7,0,2.19,2.19,0,0,1,.69,1.67,2.24,2.24,0,0,1-.7,1.69,2.92,2.92,0,0,1-3.67,0A2.2,2.2,0,0,1,565.27,477.22Zm4.8,21.28h-4.53V481.59h4.53Z"/><path class="cls-6" d="M583.29,485.83a13.09,13.09,0,0,0-1.63-.13q-2.55,0-3.36,1.74V498.5h-4.51V481.59h4.26l.13,2a4.19,4.19,0,0,1,3.76-2.33,5,5,0,0,1,1.41.2Z"/><path class="cls-6" d="M604.21,498.5h-4.52V481.09l-5.39,1.68v-3.68l9.43-3.37h.48Z"/></g></g><g id="Pair_2" data-name="Pair 2" class="cls-5"><g class="cls-5"><path class="cls-6" d="M782.66,490.48v8H778V475.75h8.87a10.21,10.21,0,0,1,4.51.94,6.86,6.86,0,0,1,3,2.66,7.41,7.41,0,0,1,1,3.93,6.53,6.53,0,0,1-2.29,5.27,9.53,9.53,0,0,1-6.34,1.93Zm0-3.79h4.19a4.09,4.09,0,0,0,2.84-.88,3.17,3.17,0,0,0,1-2.5,3.74,3.74,0,0,0-1-2.7,3.67,3.67,0,0,0-2.72-1.06h-4.3Z"/><path class="cls-6" d="M808,498.5a5.15,5.15,0,0,1-.46-1.52,5.44,5.44,0,0,1-4.26,1.83,6,6,0,0,1-4.12-1.43,4.63,4.63,0,0,1-1.63-3.63,4.75,4.75,0,0,1,2-4.12,9.83,9.83,0,0,1,5.76-1.46h2.07v-1a2.78,2.78,0,0,0-.6-1.87,2.36,2.36,0,0,0-1.9-.7,2.68,2.68,0,0,0-1.78.54,1.85,1.85,0,0,0-.65,1.5h-4.52a4.52,4.52,0,0,1,.91-2.72,6.05,6.05,0,0,1,2.56-2,9.38,9.38,0,0,1,3.72-.71,7.36,7.36,0,0,1,5,1.57,5.52,5.52,0,0,1,1.84,4.42v7.32a8,8,0,0,0,.67,3.64v.27Zm-3.74-3.14a3.83,3.83,0,0,0,1.84-.45,2.83,2.83,0,0,0,1.25-1.19v-2.91h-1.68c-2.26,0-3.47.78-3.61,2.35l0,.26a1.79,1.79,0,0,0,.6,1.39A2.26,2.26,0,0,0,804.21,495.36Z"/><path class="cls-6" d="M815.27,477.22a2.22,2.22,0,0,1,.68-1.67,2.92,2.92,0,0,1,3.7,0,2.19,2.19,0,0,1,.69,1.67,2.24,2.24,0,0,1-.7,1.69,2.92,2.92,0,0,1-3.67,0A2.2,2.2,0,0,1,815.27,477.22Zm4.8,21.28h-4.53V481.59h4.53Z"/><path class="cls-6" d="M833.29,485.83a13.09,13.09,0,0,0-1.63-.13q-2.55,0-3.36,1.74V498.5h-4.51V481.59h4.26l.13,2a4.19,4.19,0,0,1,3.77-2.33,4.88,4.88,0,0,1,1.4.2Z"/><path class="cls-6" d="M858.84,498.5h-15.6v-3.09l7.36-7.85a17.41,17.41,0,0,0,2.24-2.89,4.57,4.57,0,0,0,.73-2.34,3.46,3.46,0,0,0-.77-2.38,2.75,2.75,0,0,0-2.18-.87,3,3,0,0,0-2.42,1.05,4.19,4.19,0,0,0-.88,2.78h-4.53a7.48,7.48,0,0,1,1-3.8,7,7,0,0,1,2.81-2.7,8.49,8.49,0,0,1,4.11-1,8.06,8.06,0,0,1,5.46,1.69,6,6,0,0,1,1.94,4.76,7.69,7.69,0,0,1-.87,3.44,19.7,19.7,0,0,1-3,4.08l-5.18,5.45h9.79Z"/></g></g><g id="Token_2" data-name="Token 2" class="cls-5"><g class="cls-5"><path class="cls-6" d="M779.5,232h-7.18V251.5h-4.84V232h-7.09V228H779.5Z"/><path class="cls-6" d="M777.88,242.62a10.26,10.26,0,0,1,1-4.62,7.22,7.22,0,0,1,2.87-3.14,8.32,8.32,0,0,1,4.36-1.12,7.94,7.94,0,0,1,5.76,2.16,8.66,8.66,0,0,1,2.49,5.87l0,1.19a9.1,9.1,0,0,1-2.24,6.44,8.69,8.69,0,0,1-12,0,9.3,9.3,0,0,1-2.25-6.58Zm4.65.33a6.51,6.51,0,0,0,.94,3.8,3.07,3.07,0,0,0,2.67,1.32,3.12,3.12,0,0,0,2.65-1.3,7.17,7.17,0,0,0,1-4.16,6.46,6.46,0,0,0-1-3.77,3.09,3.09,0,0,0-2.68-1.34,3,3,0,0,0-2.64,1.33A7.27,7.27,0,0,0,782.53,243Z"/><path class="cls-6" d="M803.59,244.51l-1.67,1.67v5.32h-4.66V226.75h4.66v13.71l.9-1.16,4.46-5.23h5.6l-6.3,7.26,6.84,10.17h-5.35Z"/><path class="cls-6" d="M822.59,251.82a8.54,8.54,0,0,1-6.24-2.35,8.36,8.36,0,0,1-2.41-6.27v-.45a10.64,10.64,0,0,1,1-4.7,7.5,7.5,0,0,1,2.88-3.19,8.15,8.15,0,0,1,4.25-1.12,7.26,7.26,0,0,1,5.63,2.26,9.17,9.17,0,0,1,2,6.4v1.9h-11.1A4.31,4.31,0,0,0,820,247a4.16,4.16,0,0,0,2.88,1,5,5,0,0,0,4.2-1.95l2.29,2.56a7,7,0,0,1-2.83,2.31A9.26,9.26,0,0,1,822.59,251.82Zm-.53-14.32a2.91,2.91,0,0,0-2.25.94,4.86,4.86,0,0,0-1.1,2.68h6.48v-.37a3.51,3.51,0,0,0-.84-2.4A3,3,0,0,0,822.06,237.5Z"/><path class="cls-6" d="M836.69,234.07l.15,2a6.07,6.07,0,0,1,5-2.34,5.06,5.06,0,0,1,4.12,1.63,7.56,7.56,0,0,1,1.39,4.87V251.5H842.7V240.35a3,3,0,0,0-.64-2.15,2.88,2.88,0,0,0-2.15-.67,3.21,3.21,0,0,0-2.95,1.68V251.5h-4.65V234.07Z"/><path class="cls-6" d="M875,251.5H858.91v-3.19l7.59-8.09a18.83,18.83,0,0,0,2.31-3,4.78,4.78,0,0,0,.75-2.42,3.54,3.54,0,0,0-.79-2.45,2.83,2.83,0,0,0-2.25-.9,3,3,0,0,0-2.49,1.09,4.29,4.29,0,0,0-.91,2.86h-4.68a7.75,7.75,0,0,1,1-3.92,7.24,7.24,0,0,1,2.89-2.78,8.82,8.82,0,0,1,4.24-1,8.34,8.34,0,0,1,5.63,1.74,6.14,6.14,0,0,1,2,4.91,8,8,0,0,1-.9,3.55,19.69,19.69,0,0,1-3.09,4.2l-5.33,5.63H875Z"/></g></g><g id="LP_Token_2" data-name="LP Token 2" class="cls-5"><g class="cls-5"><path class="cls-6" d="M743.73,370.73h10v3.77H739.05V351.75h4.68Z"/><path class="cls-6" d="M761.06,366.48v8h-4.68V351.75h8.87a10.21,10.21,0,0,1,4.51.94,6.92,6.92,0,0,1,3,2.66,7.41,7.41,0,0,1,1,3.93,6.53,6.53,0,0,1-2.29,5.27,9.53,9.53,0,0,1-6.34,1.93Zm0-3.79h4.19a4.11,4.11,0,0,0,2.84-.88,3.17,3.17,0,0,0,1-2.5,3.78,3.78,0,0,0-1-2.7,3.67,3.67,0,0,0-2.72-1.06h-4.3Z"/><path class="cls-6" d="M801.17,355.55h-7V374.5h-4.68V355.55h-6.88v-3.8h18.53Z"/><path class="cls-6" d="M799.59,365.89a10.07,10.07,0,0,1,1-4.48,7.11,7.11,0,0,1,2.79-3.05,8.14,8.14,0,0,1,4.23-1.08,7.67,7.67,0,0,1,5.58,2.1,8.37,8.37,0,0,1,2.42,5.68l0,1.16a8.83,8.83,0,0,1-2.17,6.24,8.43,8.43,0,0,1-11.67,0,9,9,0,0,1-2.18-6.38Zm4.52.32a6.28,6.28,0,0,0,.91,3.69,3.25,3.25,0,0,0,5.15,0,6.87,6.87,0,0,0,.92-4,6.23,6.23,0,0,0-.92-3.66,3,3,0,0,0-2.59-1.3,2.93,2.93,0,0,0-2.56,1.29A7,7,0,0,0,804.11,366.21Z"/><path class="cls-6" d="M824.53,367.72l-1.62,1.62v5.16h-4.52v-24h4.52v13.3l.87-1.13,4.33-5.08h5.42l-6.11,7.05,6.64,9.86h-5.18Z"/><path class="cls-6" d="M843,374.81a8.29,8.29,0,0,1-6.05-2.28,8.11,8.11,0,0,1-2.34-6.08V366a10.19,10.19,0,0,1,1-4.56,7.11,7.11,0,0,1,2.79-3.09,7.75,7.75,0,0,1,4.11-1.09,7,7,0,0,1,5.46,2.19,8.89,8.89,0,0,1,2,6.2v1.85H839.14a4.21,4.21,0,0,0,1.32,2.65,4,4,0,0,0,2.79,1,4.88,4.88,0,0,0,4.08-1.89l2.22,2.49A6.93,6.93,0,0,1,846.8,374,9.15,9.15,0,0,1,843,374.81Zm-.51-13.89a2.84,2.84,0,0,0-2.18.91,4.68,4.68,0,0,0-1.07,2.61h6.28v-.36a3.33,3.33,0,0,0-.81-2.33A2.91,2.91,0,0,0,842.44,360.92Z"/><path class="cls-6" d="M856.63,357.59l.14,2a5.89,5.89,0,0,1,4.86-2.27,4.92,4.92,0,0,1,4,1.58,7.38,7.38,0,0,1,1.34,4.72V374.5h-4.52V363.69a2.92,2.92,0,0,0-.62-2.09,2.82,2.82,0,0,0-2.08-.65,3.12,3.12,0,0,0-2.86,1.63V374.5h-4.51V357.59Z"/><path class="cls-6" d="M893.77,374.5h-15.6v-3.09l7.36-7.85a17.41,17.41,0,0,0,2.24-2.89,4.57,4.57,0,0,0,.73-2.34,3.41,3.41,0,0,0-.77-2.38,2.74,2.74,0,0,0-2.18-.87,3,3,0,0,0-2.42,1.05,4.19,4.19,0,0,0-.88,2.78h-4.53a7.48,7.48,0,0,1,1-3.8,7,7,0,0,1,2.81-2.7,8.49,8.49,0,0,1,4.11-1,8.06,8.06,0,0,1,5.46,1.69,6,6,0,0,1,1.94,4.76,7.69,7.69,0,0,1-.87,3.44,19.7,19.7,0,0,1-3,4.08L884,370.86h9.79Z"/></g></g><g id="组_23" data-name="组 23"><g id="Swap" class="cls-5"><g class="cls-5"><path class="cls-7" d="M792.65,108.11a2.07,2.07,0,0,0-.79-1.74,9.38,9.38,0,0,0-2.85-1.23,13.39,13.39,0,0,1-3.28-1.38,4.38,4.38,0,0,1-2.34-3.82,4.16,4.16,0,0,1,1.69-3.4,6.79,6.79,0,0,1,4.36-1.34,7.35,7.35,0,0,1,3.18.66,5.21,5.21,0,0,1,2.19,1.87,4.8,4.8,0,0,1,.8,2.69h-3a2.66,2.66,0,0,0-.84-2.09,3.4,3.4,0,0,0-2.39-.76,3.66,3.66,0,0,0-2.26.62,2.09,2.09,0,0,0-.8,1.74,1.87,1.87,0,0,0,.87,1.56,10,10,0,0,0,2.86,1.22,13,13,0,0,1,3.2,1.35,5,5,0,0,1,1.76,1.73,4.47,4.47,0,0,1,.57,2.29,4.06,4.06,0,0,1-1.64,3.39,7.09,7.09,0,0,1-4.43,1.26,8.31,8.31,0,0,1-3.41-.68,5.77,5.77,0,0,1-2.41-1.89,4.71,4.71,0,0,1-.86-2.82h3a2.76,2.76,0,0,0,1,2.25,4.17,4.17,0,0,0,2.76.8,3.63,3.63,0,0,0,2.32-.63A2,2,0,0,0,792.65,108.11Z"/><path class="cls-7" d="M809.08,108.57l2-8.75h2.78l-3.46,12.68h-2.35l-2.71-8.71-2.68,8.71h-2.34l-3.47-12.68h2.78l2.05,8.66,2.6-8.66h2.15Z"/><path class="cls-7" d="M823.36,112.5a4.1,4.1,0,0,1-.33-1.18,4.81,4.81,0,0,1-6.45.32,3.48,3.48,0,0,1-1.2-2.69,3.6,3.6,0,0,1,1.5-3.11,7.31,7.31,0,0,1,4.31-1.09h1.74v-.83a2.2,2.2,0,0,0-.55-1.57,2.14,2.14,0,0,0-1.67-.6,2.56,2.56,0,0,0-1.6.49,1.52,1.52,0,0,0-.62,1.24h-2.85a3.15,3.15,0,0,1,.7-2,4.58,4.58,0,0,1,1.88-1.43,6.63,6.63,0,0,1,2.65-.51,5.28,5.28,0,0,1,3.55,1.12,4,4,0,0,1,1.36,3.14v5.72a6.49,6.49,0,0,0,.48,2.73v.2Zm-3.13-2a3.24,3.24,0,0,0,1.58-.41,2.7,2.7,0,0,0,1.12-1.1v-2.39H821.4a4.16,4.16,0,0,0-2.38.55,1.77,1.77,0,0,0-.8,1.56,1.64,1.64,0,0,0,.55,1.3A2.08,2.08,0,0,0,820.23,110.45Z"/><path class="cls-7" d="M839.87,106.29a7.55,7.55,0,0,1-1.34,4.69,4.64,4.64,0,0,1-6.92.38v6h-2.85V99.82h2.62l.12,1.29a4.17,4.17,0,0,1,3.41-1.52,4.32,4.32,0,0,1,3.64,1.72,7.78,7.78,0,0,1,1.32,4.8ZM837,106a5.32,5.32,0,0,0-.75-3,2.48,2.48,0,0,0-2.17-1.11,2.61,2.61,0,0,0-2.5,1.44V109a2.62,2.62,0,0,0,2.53,1.48,2.44,2.44,0,0,0,2.12-1.09A5.79,5.79,0,0,0,837,106Z"/></g></g><g id="Add_Liquid" data-name="Add Liquid" class="cls-5"><g class="cls-5"><path class="cls-7" d="M678.29,97.53h-6.61l-1.39,4h-3.08l6.45-17.06h2.66l6.45,17.06h-3.09Zm-5.78-2.39h4.94L675,88.06Z"/><path class="cls-7" d="M683.9,95.07a7.51,7.51,0,0,1,1.36-4.71,4.35,4.35,0,0,1,3.64-1.77,4.12,4.12,0,0,1,3.26,1.4V83.5H695v18h-2.58l-.14-1.31a4.2,4.2,0,0,1-3.41,1.54,4.29,4.29,0,0,1-3.6-1.79A7.79,7.79,0,0,1,683.9,95.07Zm2.85.24a5.25,5.25,0,0,0,.74,3,2.42,2.42,0,0,0,2.12,1.08,2.69,2.69,0,0,0,2.55-1.55V92.44a2.65,2.65,0,0,0-2.53-1.52A2.43,2.43,0,0,0,687.5,92,5.88,5.88,0,0,0,686.75,95.31Z"/><path class="cls-7" d="M697.45,95.07a7.57,7.57,0,0,1,1.35-4.71,4.38,4.38,0,0,1,3.65-1.77,4.14,4.14,0,0,1,3.26,1.4V83.5h2.84v18H706l-.14-1.31a4.21,4.21,0,0,1-3.41,1.54,4.32,4.32,0,0,1-3.61-1.79A7.78,7.78,0,0,1,697.45,95.07Zm2.84.24a5.25,5.25,0,0,0,.75,3,2.41,2.41,0,0,0,2.11,1.08,2.7,2.7,0,0,0,2.56-1.55V92.44a2.66,2.66,0,0,0-2.53-1.52A2.43,2.43,0,0,0,701,92,5.88,5.88,0,0,0,700.29,95.31Z"/></g><g class="cls-5"><path class="cls-7" d="M671.7,128.13h7.75v2.37H668.73V113.44h3Z"/><path class="cls-7" d="M681.45,114.53a1.5,1.5,0,0,1,.42-1.09,1.55,1.55,0,0,1,1.18-.44,1.59,1.59,0,0,1,1.2.44,1.5,1.5,0,0,1,.42,1.09,1.47,1.47,0,0,1-.42,1.07,1.63,1.63,0,0,1-1.2.43,1.58,1.58,0,0,1-1.18-.43A1.47,1.47,0,0,1,681.45,114.53Zm3,16h-2.84V117.82h2.84Z"/><path class="cls-7" d="M687,124.05a7.48,7.48,0,0,1,1.36-4.72,4.41,4.41,0,0,1,3.68-1.74,4.15,4.15,0,0,1,3.36,1.48l.17-1.25h2.53v17.56h-2.85v-6a4.24,4.24,0,0,1-3.24,1.31,4.37,4.37,0,0,1-3.64-1.77A7.87,7.87,0,0,1,687,124.05Zm2.85.25a5.27,5.27,0,0,0,.76,3,2.47,2.47,0,0,0,2.13,1.11,2.7,2.7,0,0,0,2.51-1.44v-5.77a2.71,2.71,0,0,0-2.49-1.38,2.47,2.47,0,0,0-2.13,1.09A5.78,5.78,0,0,0,689.89,124.3Z"/><path class="cls-7" d="M708.88,129.26a4.41,4.41,0,0,1-3.56,1.47,3.94,3.94,0,0,1-3.12-1.2,5.13,5.13,0,0,1-1.06-3.49v-8.22H704V126c0,1.61.67,2.41,2,2.41a2.82,2.82,0,0,0,2.8-1.48v-9.11h2.85V130.5H709Z"/><path class="cls-7" d="M714.54,114.53a1.5,1.5,0,0,1,.42-1.09,1.83,1.83,0,0,1,2.38,0,1.47,1.47,0,0,1,.43,1.09,1.44,1.44,0,0,1-.43,1.07,1.86,1.86,0,0,1-2.38,0A1.47,1.47,0,0,1,714.54,114.53Zm3,16h-2.85V117.82h2.85Z"/><path class="cls-7" d="M720.13,124.07a7.57,7.57,0,0,1,1.36-4.71,4.37,4.37,0,0,1,3.65-1.77,4.1,4.1,0,0,1,3.25,1.4V112.5h2.85v18h-2.58l-.14-1.31a4.18,4.18,0,0,1-3.41,1.54,4.32,4.32,0,0,1-3.6-1.79A7.79,7.79,0,0,1,720.13,124.07Zm2.85.24a5.33,5.33,0,0,0,.74,3,2.43,2.43,0,0,0,2.12,1.08,2.68,2.68,0,0,0,2.55-1.55v-5.42a2.64,2.64,0,0,0-2.53-1.52,2.43,2.43,0,0,0-2.13,1.09A5.88,5.88,0,0,0,723,124.31Z"/></g></g><g id="组_22" data-name="组 22"><path id="路径_38" data-name="路径 38" class="cls-8" d="M753.5,69v71l-15-12"/><path id="路径_39" data-name="路径 39" class="cls-8" d="M767.5,140V69l14,10"/></g></g><g id="组_25" data-name="组 25"><g id="Withdraw" class="cls-5"><g class="cls-5"><path class="cls-6" d="M273.12,406.28l2.62-12.84h2.94l-3.93,17.06h-2.84L268.67,398l-3.32,12.46H262.5l-3.94-17.06h2.94l2.65,12.82,3.26-12.82h2.49Z"/><path class="cls-6" d="M280.58,394.53a1.5,1.5,0,0,1,.42-1.09,1.83,1.83,0,0,1,2.38,0,1.47,1.47,0,0,1,.43,1.09,1.42,1.42,0,0,1-.43,1.07,1.86,1.86,0,0,1-2.38,0A1.45,1.45,0,0,1,280.58,394.53Zm3,16h-2.85V397.82h2.85Z"/><path class="cls-6" d="M290.27,394.74v3.08h2.24v2.11h-2.24V407a1.59,1.59,0,0,0,.29,1.05,1.35,1.35,0,0,0,1,.32,4.19,4.19,0,0,0,1-.12v2.21a7,7,0,0,1-1.87.27q-3.29,0-3.28-3.63v-7.18h-2.09v-2.11h2.09v-3.08Z"/><path class="cls-6" d="M297.49,399.2a4.48,4.48,0,0,1,3.53-1.61q4.05,0,4.11,4.63v8.28h-2.84v-8.18a2.52,2.52,0,0,0-.57-1.86,2.35,2.35,0,0,0-1.67-.54,2.77,2.77,0,0,0-2.56,1.52v9.06h-2.84v-18h2.84Z"/><path class="cls-6" d="M307.48,404.07a7.53,7.53,0,0,1,1.36-4.71,4.35,4.35,0,0,1,3.64-1.77,4.16,4.16,0,0,1,3.26,1.4V392.5h2.85v18H316l-.14-1.31a4.2,4.2,0,0,1-3.41,1.55,4.33,4.33,0,0,1-3.61-1.8A7.85,7.85,0,0,1,307.48,404.07Zm2.85.24a5.25,5.25,0,0,0,.74,3,2.43,2.43,0,0,0,2.11,1.09,2.69,2.69,0,0,0,2.56-1.56v-5.42a2.65,2.65,0,0,0-2.53-1.52,2.43,2.43,0,0,0-2.13,1.09A5.9,5.9,0,0,0,310.33,404.31Z"/><path class="cls-6" d="M328.2,400.42a7.46,7.46,0,0,0-1.16-.09,2.61,2.61,0,0,0-2.64,1.5v8.67h-2.85V397.82h2.72l.07,1.42a3.21,3.21,0,0,1,2.86-1.65,2.67,2.67,0,0,1,1,.16Z"/><path class="cls-6" d="M337.22,410.5a4.45,4.45,0,0,1-.33-1.18,4.44,4.44,0,0,1-3.33,1.42,4.48,4.48,0,0,1-3.11-1.09,3.49,3.49,0,0,1-1.21-2.7,3.59,3.59,0,0,1,1.51-3.11,7.28,7.28,0,0,1,4.3-1.09h1.75v-.83a2.24,2.24,0,0,0-.55-1.57,2.18,2.18,0,0,0-1.68-.6,2.51,2.51,0,0,0-1.59.49,1.5,1.5,0,0,0-.62,1.24h-2.85a3.14,3.14,0,0,1,.69-2,4.64,4.64,0,0,1,1.88-1.43,6.68,6.68,0,0,1,2.66-.51,5.32,5.32,0,0,1,3.55,1.12,4,4,0,0,1,1.36,3.14v5.72a6.49,6.49,0,0,0,.48,2.73v.2Zm-3.13-2.05a3.3,3.3,0,0,0,1.59-.41,2.76,2.76,0,0,0,1.12-1.1v-2.39h-1.54a4.21,4.21,0,0,0-2.38.55,1.79,1.79,0,0,0-.79,1.56,1.66,1.66,0,0,0,.54,1.3A2.1,2.1,0,0,0,334.09,408.45Z"/><path class="cls-6" d="M353.77,406.58l2-8.76h2.78L355.1,410.5h-2.34L350,401.79l-2.67,8.71H345l-3.46-12.68h2.77l2.05,8.66,2.61-8.66h2.14Z"/></g></g><g id="Deposit" class="cls-5"><g class="cls-5"><path class="cls-6" d="M268.74,336.5V319.44h5a7.85,7.85,0,0,1,4,1,6.81,6.81,0,0,1,2.71,2.86,9,9,0,0,1,1,4.24v.85a9.11,9.11,0,0,1-1,4.27,6.79,6.79,0,0,1-2.76,2.83,8.21,8.21,0,0,1-4.09,1Zm3-14.67v12.3h1.93a4.42,4.42,0,0,0,3.58-1.46,6.3,6.3,0,0,0,1.28-4.18v-.95a6.56,6.56,0,0,0-1.21-4.25,4.3,4.3,0,0,0-3.51-1.46Z"/><path class="cls-6" d="M289.72,336.74a5.91,5.91,0,0,1-4.39-1.71,6.19,6.19,0,0,1-1.68-4.54v-.35a7.54,7.54,0,0,1,.74-3.39,5.48,5.48,0,0,1,2.05-2.33,5.42,5.42,0,0,1,3-.83,5,5,0,0,1,4,1.65,7,7,0,0,1,1.41,4.68v1.14h-8.29a3.86,3.86,0,0,0,1.05,2.49,3.17,3.17,0,0,0,2.32.91,3.89,3.89,0,0,0,3.19-1.58l1.53,1.46a5.2,5.2,0,0,1-2,1.77A6.36,6.36,0,0,1,289.72,336.74Zm-.34-10.87a2.42,2.42,0,0,0-1.89.82,4.25,4.25,0,0,0-.92,2.29H292v-.21a3.55,3.55,0,0,0-.76-2.17A2.43,2.43,0,0,0,289.38,325.87Z"/><path class="cls-6" d="M308.12,330.29a7.53,7.53,0,0,1-1.33,4.69,4.63,4.63,0,0,1-6.93.38v6H297V323.82h2.63l.11,1.29a4.19,4.19,0,0,1,3.42-1.52,4.3,4.3,0,0,1,3.63,1.73,7.73,7.73,0,0,1,1.32,4.79Zm-2.83-.25a5.32,5.32,0,0,0-.76-3,2.45,2.45,0,0,0-2.16-1.11,2.62,2.62,0,0,0-2.51,1.44V333a2.65,2.65,0,0,0,2.53,1.47,2.45,2.45,0,0,0,2.13-1.09A5.85,5.85,0,0,0,305.29,330Z"/><path class="cls-6" d="M310,330a7.33,7.33,0,0,1,.74-3.35,5.33,5.33,0,0,1,2.07-2.3,5.79,5.79,0,0,1,3.07-.8,5.56,5.56,0,0,1,4.17,1.65,6.49,6.49,0,0,1,1.72,4.38l0,.67a7.53,7.53,0,0,1-.72,3.35,5.35,5.35,0,0,1-2.07,2.29,5.85,5.85,0,0,1-3.1.81,5.49,5.49,0,0,1-4.29-1.79,6.82,6.82,0,0,1-1.61-4.77Zm2.84.25a5.08,5.08,0,0,0,.81,3.06,2.83,2.83,0,0,0,4.5,0,5.7,5.7,0,0,0,.8-3.3,5,5,0,0,0-.83-3,2.63,2.63,0,0,0-2.24-1.13,2.59,2.59,0,0,0-2.21,1.11A5.51,5.51,0,0,0,312.84,330.29Z"/><path class="cls-6" d="M331.3,333.06a1.28,1.28,0,0,0-.63-1.16,6.62,6.62,0,0,0-2.08-.71,10.79,10.79,0,0,1-2.42-.77,3.24,3.24,0,0,1-2.13-3,3.37,3.37,0,0,1,1.38-2.74,5.42,5.42,0,0,1,3.51-1.1,5.71,5.71,0,0,1,3.68,1.12,3.58,3.58,0,0,1,1.4,2.92h-2.85a1.76,1.76,0,0,0-.61-1.37,2.33,2.33,0,0,0-1.62-.54,2.49,2.49,0,0,0-1.52.43,1.37,1.37,0,0,0-.6,1.16,1.16,1.16,0,0,0,.55,1,7.44,7.44,0,0,0,2.23.74,10.32,10.32,0,0,1,2.63.87,3.7,3.7,0,0,1,1.42,1.23,3.1,3.1,0,0,1,.46,1.73,3.28,3.28,0,0,1-1.42,2.77,6,6,0,0,1-3.71,1.07,6.48,6.48,0,0,1-2.78-.57,4.63,4.63,0,0,1-1.9-1.54,3.72,3.72,0,0,1-.68-2.13h2.77a2,2,0,0,0,.76,1.56,3,3,0,0,0,1.86.54,2.87,2.87,0,0,0,1.72-.43A1.3,1.3,0,0,0,331.3,333.06Z"/><path class="cls-6" d="M336.59,320.53a1.54,1.54,0,0,1,.41-1.09,1.84,1.84,0,0,1,2.39,0,1.5,1.5,0,0,1,.42,1.09,1.45,1.45,0,0,1-.42,1.07,1.88,1.88,0,0,1-2.39,0A1.49,1.49,0,0,1,336.59,320.53Zm3,16h-2.85V323.82h2.85Z"/><path class="cls-6" d="M346.28,320.74v3.08h2.24v2.11h-2.24V333a1.53,1.53,0,0,0,.29,1.05,1.34,1.34,0,0,0,1,.32,4.34,4.34,0,0,0,1-.12v2.21a7.06,7.06,0,0,1-1.88.27q-3.29,0-3.28-3.63v-7.18h-2.09v-2.11h2.09v-3.08Z"/></g></g><g id="组_24" data-name="组 24"><path id="路径_40" data-name="路径 40" class="cls-8" d="M232.5,359h154l-15-14"/><path id="路径_41" data-name="路径 41" class="cls-8" d="M386.5,372h-154l15,14"/></g></g><g id="组_27" data-name="组 27"><g id="User" class="cls-5"><g class="cls-5"><path class="cls-6" d="M764.76,14.7V32a8.87,8.87,0,0,1-2.7,6.83,12.15,12.15,0,0,1-14.7.07,8.67,8.67,0,0,1-2.76-6.7V14.7H750V32.06a5,5,0,0,0,1.23,3.76A4.77,4.77,0,0,0,754.68,37q4.56,0,4.64-4.81V14.7Z"/><path class="cls-6" d="M779.45,35.6a1.69,1.69,0,0,0-1-1.51,10.42,10.42,0,0,0-3-1q-7-1.47-7-5.93a5.4,5.4,0,0,1,2.16-4.35,8.72,8.72,0,0,1,5.65-1.74,9.36,9.36,0,0,1,6,1.75,5.53,5.53,0,0,1,2.23,4.56h-5.22a2.55,2.55,0,0,0-.72-1.86,3.82,3.82,0,0,0-4.3-.13,1.87,1.87,0,0,0-.73,1.52,1.63,1.63,0,0,0,.83,1.4,8.53,8.53,0,0,0,2.77.92,24,24,0,0,1,3.29.87q4.13,1.53,4.13,5.26a5.1,5.1,0,0,1-2.29,4.33,9.93,9.93,0,0,1-5.93,1.65,10.41,10.41,0,0,1-4.36-.87,7.35,7.35,0,0,1-3-2.41,5.58,5.58,0,0,1-1.08-3.29h5a2.71,2.71,0,0,0,1,2.13,4.08,4.08,0,0,0,2.56.74,3.78,3.78,0,0,0,2.27-.57A1.78,1.78,0,0,0,779.45,35.6Z"/><path class="cls-6" d="M796.88,41.36a9.58,9.58,0,0,1-7-2.64,9.37,9.37,0,0,1-2.7-7v-.51a11.83,11.83,0,0,1,1.14-5.27,8.34,8.34,0,0,1,3.22-3.57,9,9,0,0,1,4.76-1.26,8.11,8.11,0,0,1,6.32,2.53q2.29,2.53,2.3,7.17v2.13H792.47A4.89,4.89,0,0,0,794,36a4.61,4.61,0,0,0,3.22,1.15A5.65,5.65,0,0,0,801.94,35l2.56,2.87a7.81,7.81,0,0,1-3.17,2.59A10.46,10.46,0,0,1,796.88,41.36Zm-.59-16.06a3.29,3.29,0,0,0-2.53,1.05,5.48,5.48,0,0,0-1.23,3h7.26V29a3.9,3.9,0,0,0-.94-2.7A3.38,3.38,0,0,0,796.29,25.3Z"/><path class="cls-6" d="M818.87,26.35A13.71,13.71,0,0,0,817,26.2c-2,0-3.27.67-3.89,2V41h-5.22V21.45h4.94l.14,2.33a4.85,4.85,0,0,1,4.35-2.69,5.4,5.4,0,0,1,1.63.24Z"/></g></g><g id="组_26" data-name="组 26"><ellipse id="椭圆_10" data-name="椭圆 10" class="cls-2" cx="704.5" cy="11.5" rx="8.5" ry="9"/><path id="路径_42" data-name="路径 42" class="cls-2" d="M705,31.5c-9.46,0-17,8.54-17,18a1,1,0,0,0,1,1h31a1,1,0,0,0,1-1h0C721,40,714.46,31.51,705,31.5Z"/></g></g><line id="直线_16" data-name="直线 16" class="cls-9" x1="568.5" y1="280" x2="568.5" y2="324"/><g id="组_28" data-name="组 28"><line id="直线_17" data-name="直线 17" class="cls-10" x1="562.5" y1="404" x2="562.5" y2="447"/><line id="直线_18" data-name="直线 18" class="cls-10" x1="574.5" y1="404" x2="574.5" y2="447"/></g><g id="组_29" data-name="组 29"><line id="直线_19" data-name="直线 19" class="cls-10" x1="813.5" y1="404" x2="813.5" y2="447"/><line id="直线_20" data-name="直线 20" class="cls-10" x1="825.5" y1="404" x2="825.5" y2="447"/></g><line id="直线_21" data-name="直线 21" class="cls-9" x1="590.5" y1="280" x2="797.5" y2="324"/><line id="直线_22" data-name="直线 22" class="cls-9" x1="797.5" y1="280" x2="590.5" y2="324"/><line id="直线_23" data-name="直线 23" class="cls-9" x1="818.5" y1="280" x2="818.5" y2="324"/><line id="直线_24" data-name="直线 24" class="cls-9" x1="936.5" y1="240" x2="998.5" y2="240"/><line id="直线_25" data-name="直线 25" class="cls-9" x1="936.5" y1="364" x2="998.5" y2="364"/><line id="直线_26" data-name="直线 26" class="cls-9" x1="936.5" y1="490" x2="998.5" y2="490"/><g id="矩形_16" data-name="矩形 16"><rect class="cls-3" y="297.5" width="210" height="56" rx="10"/><rect class="cls-4" x="2.5" y="300" width="205" height="51" rx="7.5"/></g><g id="矩形_17" data-name="矩形 17"><rect class="cls-3" y="376.5" width="210" height="57" rx="10"/><rect class="cls-4" x="2.5" y="379" width="205" height="52" rx="7.5"/></g><g id="Token_1-2" data-name="Token 1-2" class="cls-5"><g class="cls-5"><path class="cls-6" d="M65.5,317H58.32V336.5H53.48V317H46.39V313H65.5Z"/><path class="cls-6" d="M63.88,327.62a10.26,10.26,0,0,1,1-4.62,7.22,7.22,0,0,1,2.87-3.14,8.32,8.32,0,0,1,4.36-1.12,7.94,7.94,0,0,1,5.76,2.16,8.66,8.66,0,0,1,2.49,5.87l0,1.19a9.1,9.1,0,0,1-2.24,6.44,7.79,7.79,0,0,1-6,2.42,7.8,7.8,0,0,1-6-2.41,9.3,9.3,0,0,1-2.25-6.58Zm4.65.33a6.51,6.51,0,0,0,.94,3.8,3.07,3.07,0,0,0,2.67,1.32,3.12,3.12,0,0,0,2.65-1.3,7.17,7.17,0,0,0,.95-4.16,6.46,6.46,0,0,0-.95-3.77,3.09,3.09,0,0,0-2.68-1.34,3,3,0,0,0-2.64,1.33A7.27,7.27,0,0,0,68.53,328Z"/><path class="cls-6" d="M89.59,329.51l-1.67,1.67v5.32H83.26V311.75h4.66v13.71l.9-1.16,4.46-5.23h5.6l-6.3,7.26,6.84,10.17H94.07Z"/><path class="cls-6" d="M108.59,336.82a8.54,8.54,0,0,1-6.24-2.35,8.36,8.36,0,0,1-2.41-6.27v-.45a10.64,10.64,0,0,1,1-4.7,7.5,7.5,0,0,1,2.88-3.19,8.15,8.15,0,0,1,4.25-1.12,7.26,7.26,0,0,1,5.63,2.26,9.17,9.17,0,0,1,2.05,6.4v1.9h-11.1A4.31,4.31,0,0,0,106,332a4.16,4.16,0,0,0,2.88,1,5,5,0,0,0,4.2-1.95l2.29,2.56a7,7,0,0,1-2.83,2.31A9.26,9.26,0,0,1,108.59,336.82Zm-.53-14.32a2.91,2.91,0,0,0-2.25.94,4.86,4.86,0,0,0-1.1,2.68h6.48v-.37a3.47,3.47,0,0,0-.84-2.4A3,3,0,0,0,108.06,322.5Z"/><path class="cls-6" d="M122.69,319.07l.15,2a6.07,6.07,0,0,1,5-2.34,5.07,5.07,0,0,1,4.12,1.63,7.62,7.62,0,0,1,1.39,4.87V336.5H128.7V325.35a3,3,0,0,0-.64-2.15,2.88,2.88,0,0,0-2.15-.67,3.21,3.21,0,0,0-3,1.68V336.5h-4.65V319.07Z"/><path class="cls-6" d="M156.22,336.5h-4.65V318.55L146,320.27v-3.78l9.71-3.48h.5Z"/></g></g><g id="Token_2-2" data-name="Token 2-2" class="cls-5"><g class="cls-5"><path class="cls-6" d="M65.5,396H58.32V415.5H53.48V396H46.39V392H65.5Z"/><path class="cls-6" d="M63.88,406.62a10.26,10.26,0,0,1,1-4.62,7.22,7.22,0,0,1,2.87-3.14,8.32,8.32,0,0,1,4.36-1.12,7.94,7.94,0,0,1,5.76,2.16,8.66,8.66,0,0,1,2.49,5.87l0,1.19a9.1,9.1,0,0,1-2.24,6.44,7.79,7.79,0,0,1-6,2.42,7.8,7.8,0,0,1-6-2.41,9.3,9.3,0,0,1-2.25-6.58Zm4.65.33a6.51,6.51,0,0,0,.94,3.8,3.07,3.07,0,0,0,2.67,1.32,3.12,3.12,0,0,0,2.65-1.3,7.17,7.17,0,0,0,.95-4.16,6.46,6.46,0,0,0-.95-3.77,3.09,3.09,0,0,0-2.68-1.34,3,3,0,0,0-2.64,1.33A7.27,7.27,0,0,0,68.53,407Z"/><path class="cls-6" d="M89.59,408.51l-1.67,1.67v5.32H83.26V390.75h4.66v13.71l.9-1.16,4.46-5.23h5.6l-6.3,7.26,6.84,10.17H94.07Z"/><path class="cls-6" d="M108.59,415.82a8.54,8.54,0,0,1-6.24-2.35,8.36,8.36,0,0,1-2.41-6.27v-.45a10.64,10.64,0,0,1,1-4.7,7.5,7.5,0,0,1,2.88-3.19,8.15,8.15,0,0,1,4.25-1.12,7.26,7.26,0,0,1,5.63,2.26,9.17,9.17,0,0,1,2.05,6.4v1.9h-11.1A4.31,4.31,0,0,0,106,411a4.16,4.16,0,0,0,2.88,1,5,5,0,0,0,4.2-1.95l2.29,2.56a7,7,0,0,1-2.83,2.31A9.26,9.26,0,0,1,108.59,415.82Zm-.53-14.32a2.91,2.91,0,0,0-2.25.94,4.86,4.86,0,0,0-1.1,2.68h6.48v-.37a3.47,3.47,0,0,0-.84-2.4A3,3,0,0,0,108.06,401.5Z"/><path class="cls-6" d="M122.69,398.07l.15,2a6.07,6.07,0,0,1,5-2.34,5.07,5.07,0,0,1,4.12,1.63,7.62,7.62,0,0,1,1.39,4.87V415.5H128.7V404.35a3,3,0,0,0-.64-2.15,2.88,2.88,0,0,0-2.15-.67,3.21,3.21,0,0,0-3,1.68V415.5h-4.65V398.07Z"/><path class="cls-6" d="M161,415.5H144.91v-3.19l7.59-8.09a18.83,18.83,0,0,0,2.31-3,4.78,4.78,0,0,0,.75-2.42,3.54,3.54,0,0,0-.79-2.45,2.83,2.83,0,0,0-2.25-.9,3,3,0,0,0-2.49,1.09,4.29,4.29,0,0,0-.91,2.86h-4.68a7.65,7.65,0,0,1,1-3.92,7.24,7.24,0,0,1,2.89-2.78,8.82,8.82,0,0,1,4.24-1,8.34,8.34,0,0,1,5.63,1.74,6.14,6.14,0,0,1,2,4.91,8,8,0,0,1-.9,3.55,19.69,19.69,0,0,1-3.09,4.2l-5.33,5.63H161Z"/></g></g><g id="组_33" data-name="组 33"><g id="AP1" class="cls-5"><g class="cls-5"><path class="cls-6" d="M1108.29,346.53h-6.61l-1.39,4h-3.08l6.45-17.06h2.66l6.45,17.06h-3.09Zm-5.78-2.39h4.94l-2.47-7.08Z"/><path class="cls-6" d="M1117.67,344.17v6.33h-3V333.44h6.52a6.6,6.6,0,0,1,4.55,1.49,5,5,0,0,1,1.68,3.94,4.86,4.86,0,0,1-1.65,3.91,6.92,6.92,0,0,1-4.61,1.39Zm0-2.39h3.56a3.56,3.56,0,0,0,2.42-.74,2.77,2.77,0,0,0,.83-2.15,3,3,0,0,0-.84-2.21,3.25,3.25,0,0,0-2.32-.85h-3.65Z"/><path class="cls-6" d="M1137.3,350.5h-2.84V336.79l-4.18,1.43v-2.39l6.66-2.45h.36Z"/></g></g><g id="组_32" data-name="组 32"><path id="路径_38-2" data-name="路径 38-2" class="cls-8" d="M1070.91,373.12h99.84l-11.44-15.6"/></g></g></g></g></g></svg>