<svg xmlns="http://www.w3.org/2000/svg" viewBox="0 0 1260 540.89"><defs><style>.cls-1,.cls-10,.cls-11,.cls-12,.cls-2,.cls-6,.cls-7,.cls-8{fill:none;}.cls-1{stroke:#8f53d5;stroke-dasharray:10;}.cls-1,.cls-10,.cls-12,.cls-2,.cls-6{stroke-miterlimit:10;}.cls-1,.cls-11{stroke-width:3px;}.cls-2,.cls-8{stroke:#414142;}.cls-2,.cls-6,.cls-8{stroke-width:5px;}.cls-3{isolation:isolate;}.cls-4{fill:#3f4043;}.cls-5{fill:#414142;}.cls-6{stroke:#3f4043;}.cls-9{fill:#838383;}.cls-10,.cls-11,.cls-12{stroke:#838383;}.cls-10,.cls-12{stroke-linecap:square;stroke-width:2px;}.cls-10{stroke-dasharray:5;}</style></defs><title>dswap</title><g id="Layer_2" data-name="Layer 2"><g id="Layer_1-2" data-name="Layer 1"><g id="组_46" data-name="组 46"><rect id="矩形_23" data-name="矩形 23" class="cls-1" x="408.5" y="157.43" width="535.3" height="339.13" rx="10"/><rect id="矩形_40" data-name="矩形 40" class="cls-1" x="1.5" y="224.87" width="215.33" height="70.43" rx="10"/><rect id="矩形_41" data-name="矩形 41" class="cls-1" x="1.5" y="314.42" width="215.33" height="70.43" rx="10"/><rect id="矩形_12" data-name="矩形 12" class="cls-2" x="418.51" y="167.49" width="515.17" height="319.01" rx="10"/><g id="Developers" class="cls-3"><g class="cls-3"><path class="cls-4" d="M1087.22,371V346.12h7.66a11.58,11.58,0,0,1,5.87,1.48,10.29,10.29,0,0,1,4,4.2,12.94,12.94,0,0,1,1.45,6.19v1.15a13,13,0,0,1-1.42,6.17,10.36,10.36,0,0,1-4,4.19,11.69,11.69,0,0,1-5.86,1.5Zm5.13-20.73v16.61h2.48a5.56,5.56,0,0,0,4.59-2,8.94,8.94,0,0,0,1.63-5.63V358a9,9,0,0,0-1.58-5.75,5.52,5.52,0,0,0-4.59-2Z"/><path class="cls-4" d="M1118.15,371.34a9.08,9.08,0,0,1-6.62-2.49,8.89,8.89,0,0,1-2.55-6.65v-.48a11.25,11.25,0,0,1,1.07-5,8,8,0,0,1,3-3.39,8.6,8.6,0,0,1,4.51-1.18,7.64,7.64,0,0,1,6,2.39,9.74,9.74,0,0,1,2.18,6.78v2H1114a4.62,4.62,0,0,0,1.45,2.91,4.35,4.35,0,0,0,3,1.09,5.33,5.33,0,0,0,4.46-2.07l2.43,2.72a7.37,7.37,0,0,1-3,2.45A9.86,9.86,0,0,1,1118.15,371.34Zm-.56-15.19a3.09,3.09,0,0,0-2.38,1A5.19,5.19,0,0,0,1114,360h6.87v-.39a3.71,3.71,0,0,0-.89-2.55A3.19,3.19,0,0,0,1117.59,356.15Z"/><path class="cls-4" d="M1135.26,365l3.44-12.46h5.16L1137.62,371h-4.72l-6.23-18.49h5.16Z"/><path class="cls-4" d="M1154.32,371.34a9.1,9.1,0,0,1-6.63-2.49,8.89,8.89,0,0,1-2.55-6.65v-.48a11.11,11.11,0,0,1,1.08-5,7.86,7.86,0,0,1,3-3.39,8.54,8.54,0,0,1,4.5-1.18,7.64,7.64,0,0,1,6,2.39c1.46,1.6,2.18,3.86,2.18,6.78v2h-11.77a4.61,4.61,0,0,0,1.44,2.91,4.35,4.35,0,0,0,3.05,1.09,5.33,5.33,0,0,0,4.46-2.07l2.43,2.72a7.31,7.31,0,0,1-3,2.45A9.81,9.81,0,0,1,1154.32,371.34Zm-.57-15.19a3.09,3.09,0,0,0-2.38,1,5.19,5.19,0,0,0-1.17,2.85h6.87v-.39a3.71,3.71,0,0,0-.89-2.55A3.19,3.19,0,0,0,1153.75,356.15Z"/><path class="cls-4" d="M1169.94,371h-5V344.75h5Z"/><path class="cls-4" d="M1173.23,361.58a11,11,0,0,1,1.06-4.9,7.72,7.72,0,0,1,3.06-3.33,8.82,8.82,0,0,1,4.62-1.18,8.42,8.42,0,0,1,6.11,2.29,9.16,9.16,0,0,1,2.64,6.22l0,1.26a9.67,9.67,0,0,1-2.37,6.83,9.22,9.22,0,0,1-12.76,0,9.83,9.83,0,0,1-2.39-7Zm4.94.35a6.81,6.81,0,0,0,1,4,3.55,3.55,0,0,0,5.63,0,7.51,7.51,0,0,0,1-4.41,6.78,6.78,0,0,0-1-4,3.25,3.25,0,0,0-2.83-1.42,3.22,3.22,0,0,0-2.8,1.41A7.6,7.6,0,0,0,1178.17,361.93Z"/><path class="cls-4" d="M1210.44,361.93a11.1,11.1,0,0,1-1.94,6.84,6.23,6.23,0,0,1-5.24,2.57,5.76,5.76,0,0,1-4.53-1.95v8.72h-4.94v-25.6h4.58l.17,1.81a5.8,5.8,0,0,1,4.69-2.15,6.24,6.24,0,0,1,5.31,2.53,11.34,11.34,0,0,1,1.9,7Zm-4.94-.36a7.32,7.32,0,0,0-.91-4,3,3,0,0,0-2.66-1.4,3.25,3.25,0,0,0-3.2,1.78v7.57a3.29,3.29,0,0,0,3.23,1.83Q1205.5,367.36,1205.5,361.57Z"/><path class="cls-4" d="M1222,371.34a9.08,9.08,0,0,1-6.62-2.49,8.86,8.86,0,0,1-2.56-6.65v-.48a11.11,11.11,0,0,1,1.08-5,7.92,7.92,0,0,1,3-3.39,8.59,8.59,0,0,1,4.5-1.18,7.68,7.68,0,0,1,6,2.39,9.74,9.74,0,0,1,2.17,6.78v2h-11.77a4.61,4.61,0,0,0,1.44,2.91,4.37,4.37,0,0,0,3,1.09,5.32,5.32,0,0,0,4.46-2.07l2.43,2.72a7.31,7.31,0,0,1-3,2.45A9.78,9.78,0,0,1,1222,371.34Zm-.56-15.19a3.09,3.09,0,0,0-2.39,1,5.19,5.19,0,0,0-1.17,2.85h6.87v-.39a3.66,3.66,0,0,0-.89-2.55A3.18,3.18,0,0,0,1221.45,356.15Z"/><path class="cls-4" d="M1242.81,357.14A13.85,13.85,0,0,0,1241,357c-1.87,0-3.09.64-3.67,1.9V371h-4.94V352.51h4.66l.14,2.2a4.58,4.58,0,0,1,4.12-2.54,5.17,5.17,0,0,1,1.54.22Z"/><path class="cls-4" d="M1255.2,365.89a1.6,1.6,0,0,0-.9-1.43,10.38,10.38,0,0,0-2.88-.93q-6.6-1.38-6.6-5.6a5.07,5.07,0,0,1,2-4.11,8.23,8.23,0,0,1,5.34-1.65,8.91,8.91,0,0,1,5.63,1.65,5.24,5.24,0,0,1,2.11,4.31H1255a2.4,2.4,0,0,0-.68-1.75,2.91,2.91,0,0,0-2.14-.69,3,3,0,0,0-1.93.56,1.78,1.78,0,0,0-.68,1.44,1.5,1.5,0,0,0,.77,1.32,7.87,7.87,0,0,0,2.63.87,22,22,0,0,1,3.11.83q3.92,1.44,3.91,5a4.82,4.82,0,0,1-2.17,4.09,9.4,9.4,0,0,1-5.61,1.56,9.63,9.63,0,0,1-4.12-.83,6.85,6.85,0,0,1-2.83-2.27,5.23,5.23,0,0,1-1-3.12h4.69a2.58,2.58,0,0,0,1,2,3.84,3.84,0,0,0,2.43.7,3.55,3.55,0,0,0,2.14-.54A1.67,1.67,0,0,0,1255.2,365.89Z"/></g></g><g id="_......" data-name=" ......" class="cls-3"><g class="cls-3"><path class="cls-4" d="M101.94,404.72a2,2,0,0,1,1.53.64,2.25,2.25,0,0,1,.59,1.59,2.3,2.3,0,0,1-.59,1.61,2,2,0,0,1-1.53.63,2,2,0,0,1-1.51-.63,2.51,2.51,0,0,1,0-3.21A2,2,0,0,1,101.94,404.72Z"/><path class="cls-4" d="M101.94,412.86a2,2,0,0,1,1.53.63,2.46,2.46,0,0,1,0,3.2,2.14,2.14,0,0,1-3,0,2.27,2.27,0,0,1-.58-1.61,2.25,2.25,0,0,1,.58-1.6A2,2,0,0,1,101.94,412.86Z"/><path class="cls-4" d="M101.94,421a2,2,0,0,1,1.53.64,2.25,2.25,0,0,1,.59,1.59,2.3,2.3,0,0,1-.59,1.61,2,2,0,0,1-1.53.63,2,2,0,0,1-1.51-.63,2.51,2.51,0,0,1,0-3.21A2,2,0,0,1,101.94,421Z"/><path class="cls-4" d="M101.94,429.13a2,2,0,0,1,1.53.63,2.46,2.46,0,0,1,0,3.2,2.14,2.14,0,0,1-3,0,2.27,2.27,0,0,1-.58-1.61,2.23,2.23,0,0,1,.58-1.6A2,2,0,0,1,101.94,429.13Z"/><path class="cls-4" d="M101.94,437.26a2,2,0,0,1,1.53.64,2.25,2.25,0,0,1,.59,1.59,2.3,2.3,0,0,1-.59,1.61,2,2,0,0,1-1.53.63,2,2,0,0,1-1.51-.63,2.51,2.51,0,0,1,0-3.21A2,2,0,0,1,101.94,437.26Z"/><path class="cls-4" d="M101.94,445.4a2,2,0,0,1,1.53.63,2.46,2.46,0,0,1,0,3.2,2.14,2.14,0,0,1-3,0,2.27,2.27,0,0,1-.58-1.61,2.23,2.23,0,0,1,.58-1.6A2,2,0,0,1,101.94,445.4Z"/></g></g><g id="组_23" data-name="组 23"><g id="Swap" class="cls-3"><g class="cls-3"><path class="cls-5" d="M694.76,106a1.89,1.89,0,0,0-.72-1.59,8.79,8.79,0,0,0-2.62-1.13,12.74,12.74,0,0,1-3-1.26,4,4,0,0,1-2.14-3.51,3.8,3.8,0,0,1,1.54-3.11,6.22,6.22,0,0,1,4-1.23,6.62,6.62,0,0,1,2.91.61,4.81,4.81,0,0,1,2,1.71,4.36,4.36,0,0,1,.73,2.46h-2.71A2.44,2.44,0,0,0,694,97a3.16,3.16,0,0,0-2.2-.7,3.31,3.31,0,0,0-2.07.57,1.89,1.89,0,0,0-.73,1.59,1.72,1.72,0,0,0,.79,1.44,9.44,9.44,0,0,0,2.62,1.12,11.88,11.88,0,0,1,2.93,1.23,4.69,4.69,0,0,1,1.63,1.59,4.19,4.19,0,0,1,.51,2.1,3.73,3.73,0,0,1-1.5,3.11,6.49,6.49,0,0,1-4.06,1.15,7.63,7.63,0,0,1-3.12-.62,5.28,5.28,0,0,1-2.22-1.74,4.38,4.38,0,0,1-.79-2.58h2.72a2.57,2.57,0,0,0,.88,2.07,3.91,3.91,0,0,0,2.53.73,3.32,3.32,0,0,0,2.13-.58A1.84,1.84,0,0,0,694.76,106Z"/><path class="cls-5" d="M709.83,106.4l1.84-8h2.55L711.05,110H708.9l-2.49-8L704,110h-2.15l-3.18-11.62h2.55l1.88,7.94,2.38-7.94h2Z"/><path class="cls-5" d="M722.91,110a3.6,3.6,0,0,1-.3-1.08,4.08,4.08,0,0,1-3.05,1.29,4.13,4.13,0,0,1-2.86-1,3.2,3.2,0,0,1-1.11-2.47,3.32,3.32,0,0,1,1.38-2.86,6.72,6.72,0,0,1,3.95-1h1.6v-.76a2.08,2.08,0,0,0-.5-1.45,2,2,0,0,0-1.54-.54,2.29,2.29,0,0,0-1.46.45,1.36,1.36,0,0,0-.57,1.13h-2.61a2.92,2.92,0,0,1,.63-1.79,4.28,4.28,0,0,1,1.73-1.31,6.16,6.16,0,0,1,2.43-.47,4.86,4.86,0,0,1,3.26,1,3.63,3.63,0,0,1,1.24,2.88v5.24a6,6,0,0,0,.44,2.51V110ZM720,108.12a2.89,2.89,0,0,0,1.46-.38,2.48,2.48,0,0,0,1-1v-2.19h-1.4a3.85,3.85,0,0,0-2.19.51,1.64,1.64,0,0,0-.73,1.43,1.51,1.51,0,0,0,.5,1.19A1.94,1.94,0,0,0,720,108.12Z"/><path class="cls-5" d="M738,104.31a6.9,6.9,0,0,1-1.22,4.3,4.27,4.27,0,0,1-6.35.35v5.51h-2.61V98.38h2.41l.11,1.18a3.82,3.82,0,0,1,3.12-1.4,4,4,0,0,1,3.34,1.59,7.13,7.13,0,0,1,1.2,4.4Zm-2.59-.23a4.86,4.86,0,0,0-.7-2.76,2.25,2.25,0,0,0-2-1,2.41,2.41,0,0,0-2.3,1.32v5.16a2.43,2.43,0,0,0,2.32,1.35,2.25,2.25,0,0,0,2-1A5.34,5.34,0,0,0,735.45,104.08Z"/></g></g><g id="Add_Remove_Liquidity" data-name="Add Remove Liquidity" class="cls-3"><g class="cls-3"><path class="cls-5" d="M560.29,78h-6.61l-1.39,4h-3.08l6.45-17.06h2.66L564.77,82h-3.09Zm-5.78-2.39h4.94L557,68.56Z"/><path class="cls-5" d="M565.9,75.57a7.51,7.51,0,0,1,1.36-4.71,4.35,4.35,0,0,1,3.64-1.77,4.12,4.12,0,0,1,3.26,1.4V64H577V82h-2.58l-.14-1.31a4.2,4.2,0,0,1-3.41,1.54,4.29,4.29,0,0,1-3.6-1.79A7.79,7.79,0,0,1,565.9,75.57Zm2.85.24a5.25,5.25,0,0,0,.74,3,2.42,2.42,0,0,0,2.12,1.08,2.69,2.69,0,0,0,2.55-1.55V72.94a2.65,2.65,0,0,0-2.53-1.52,2.43,2.43,0,0,0-2.13,1.09A5.88,5.88,0,0,0,568.75,75.81Z"/><path class="cls-5" d="M579.45,75.57a7.57,7.57,0,0,1,1.35-4.71,4.38,4.38,0,0,1,3.65-1.77,4.14,4.14,0,0,1,3.26,1.4V64h2.84V82H588l-.14-1.31a4.21,4.21,0,0,1-3.41,1.54,4.32,4.32,0,0,1-3.61-1.79A7.78,7.78,0,0,1,579.45,75.57Zm2.84.24a5.25,5.25,0,0,0,.75,3,2.41,2.41,0,0,0,2.11,1.08,2.7,2.7,0,0,0,2.56-1.55V72.94a2.66,2.66,0,0,0-2.53-1.52A2.43,2.43,0,0,0,583,72.51,5.88,5.88,0,0,0,582.29,75.81Z"/><path class="cls-5" d="M600.3,83.46h-2.23l6.71-18.52H607Z"/></g><g class="cls-3"><path class="cls-5" d="M557,102.44h-3.3V109h-3V91.94h6a7,7,0,0,1,4.56,1.32,4.7,4.7,0,0,1,1.61,3.84,4.82,4.82,0,0,1-.83,2.87,5.23,5.23,0,0,1-2.3,1.77l3.83,7.11V109h-3.17Zm-3.3-2.39h3a3.39,3.39,0,0,0,2.34-.76,2.63,2.63,0,0,0,.84-2.07,2.81,2.81,0,0,0-.78-2.12,3.27,3.27,0,0,0-2.32-.77H553.7Z"/><path class="cls-5" d="M571,109.23a5.87,5.87,0,0,1-4.39-1.7A6.19,6.19,0,0,1,565,103v-.35a7.62,7.62,0,0,1,.73-3.4,5.6,5.6,0,0,1,2.06-2.32,5.39,5.39,0,0,1,3-.83,5,5,0,0,1,4,1.65,7,7,0,0,1,1.42,4.67v1.15h-8.29a3.86,3.86,0,0,0,1,2.49,3.13,3.13,0,0,0,2.31.91,3.86,3.86,0,0,0,3.19-1.58l1.54,1.46a5.16,5.16,0,0,1-2,1.77A6.31,6.31,0,0,1,571,109.23Zm-.34-10.86a2.38,2.38,0,0,0-1.89.82,4.25,4.25,0,0,0-.92,2.29h5.42v-.21a3.43,3.43,0,0,0-.76-2.17A2.39,2.39,0,0,0,570.68,98.37Z"/><path class="cls-5" d="M581,96.32l.08,1.32a4.59,4.59,0,0,1,3.66-1.55A3.49,3.49,0,0,1,588.21,98a4.48,4.48,0,0,1,3.89-1.94,3.92,3.92,0,0,1,3.12,1.16,5,5,0,0,1,1,3.42V109h-2.84v-8.25A2.55,2.55,0,0,0,592.9,99a2.85,2.85,0,0,0-3.34,0,2.8,2.8,0,0,0-.86,1.36V109h-2.84v-8.34a2,2,0,0,0-2.29-2.24,2.49,2.49,0,0,0-2.42,1.39V109h-2.85V96.32Z"/><path class="cls-5" d="M598.66,102.54a7.46,7.46,0,0,1,.74-3.35,5.35,5.35,0,0,1,2.08-2.3,5.79,5.79,0,0,1,3.07-.8,5.52,5.52,0,0,1,4.16,1.65,6.45,6.45,0,0,1,1.73,4.38v.67a7.53,7.53,0,0,1-.72,3.35,5.33,5.33,0,0,1-2.06,2.29,6,6,0,0,1-3.1.8,5.48,5.48,0,0,1-4.29-1.78,6.83,6.83,0,0,1-1.62-4.77Zm2.85.25a5.08,5.08,0,0,0,.81,3.06,2.63,2.63,0,0,0,2.25,1.11,2.58,2.58,0,0,0,2.24-1.12,5.62,5.62,0,0,0,.81-3.3,5,5,0,0,0-.83-3,2.78,2.78,0,0,0-4.46,0A5.59,5.59,0,0,0,601.51,102.79Z"/><path class="cls-5" d="M617.16,105.39l2.68-9.07h2.94L618.39,109h-2.48l-4.43-12.68h3Z"/><path class="cls-5" d="M630,109.23a5.87,5.87,0,0,1-4.39-1.7,6.19,6.19,0,0,1-1.68-4.54v-.35a7.62,7.62,0,0,1,.73-3.4,5.54,5.54,0,0,1,2.06-2.32,5.36,5.36,0,0,1,2.95-.83,5,5,0,0,1,4,1.65,7,7,0,0,1,1.41,4.67v1.15h-8.28a3.81,3.81,0,0,0,1.05,2.49,3.13,3.13,0,0,0,2.31.91,3.86,3.86,0,0,0,3.19-1.58l1.54,1.46a5.16,5.16,0,0,1-2,1.77A6.34,6.34,0,0,1,630,109.23Zm-.34-10.86a2.38,2.38,0,0,0-1.89.82,4.25,4.25,0,0,0-.92,2.29h5.42v-.21a3.43,3.43,0,0,0-.76-2.17A2.41,2.41,0,0,0,629.65,98.37Z"/></g><g class="cls-3"><path class="cls-5" d="M553.7,133.63h7.75V136H550.73V118.94h3Z"/><path class="cls-5" d="M563.45,120a1.5,1.5,0,0,1,.42-1.09,1.55,1.55,0,0,1,1.18-.44,1.59,1.59,0,0,1,1.2.44,1.5,1.5,0,0,1,.42,1.09,1.47,1.47,0,0,1-.42,1.07,1.63,1.63,0,0,1-1.2.43,1.58,1.58,0,0,1-1.18-.43A1.47,1.47,0,0,1,563.45,120Zm3,16h-2.84V123.32h2.84Z"/><path class="cls-5" d="M569,129.55a7.48,7.48,0,0,1,1.36-4.72,4.41,4.41,0,0,1,3.68-1.74,4.15,4.15,0,0,1,3.36,1.48l.17-1.25h2.53v17.56h-2.85v-6a4.24,4.24,0,0,1-3.24,1.31,4.37,4.37,0,0,1-3.64-1.77A7.87,7.87,0,0,1,569,129.55Zm2.85.25a5.27,5.27,0,0,0,.76,3,2.47,2.47,0,0,0,2.13,1.11,2.7,2.7,0,0,0,2.51-1.44v-5.77a2.71,2.71,0,0,0-2.49-1.38,2.47,2.47,0,0,0-2.13,1.09A5.78,5.78,0,0,0,571.89,129.8Z"/><path class="cls-5" d="M590.88,134.76a4.41,4.41,0,0,1-3.56,1.47,3.94,3.94,0,0,1-3.12-1.2,5.13,5.13,0,0,1-1.06-3.49v-8.22H586v8.18c0,1.61.67,2.41,2,2.41a2.82,2.82,0,0,0,2.8-1.48v-9.11h2.85V136H591Z"/><path class="cls-5" d="M596.54,120a1.5,1.5,0,0,1,.42-1.09,1.83,1.83,0,0,1,2.38,0,1.47,1.47,0,0,1,.43,1.09,1.44,1.44,0,0,1-.43,1.07,1.86,1.86,0,0,1-2.38,0A1.47,1.47,0,0,1,596.54,120Zm3,16h-2.85V123.32h2.85Z"/><path class="cls-5" d="M602.13,129.57a7.57,7.57,0,0,1,1.36-4.71,4.37,4.37,0,0,1,3.65-1.77,4.1,4.1,0,0,1,3.25,1.4V118h2.85v18h-2.58l-.14-1.31a4.18,4.18,0,0,1-3.41,1.54,4.32,4.32,0,0,1-3.6-1.79A7.79,7.79,0,0,1,602.13,129.57Zm2.85.24a5.33,5.33,0,0,0,.74,3,2.43,2.43,0,0,0,2.12,1.08,2.68,2.68,0,0,0,2.55-1.55v-5.42a2.64,2.64,0,0,0-2.53-1.52,2.43,2.43,0,0,0-2.13,1.09A5.88,5.88,0,0,0,605,129.81Z"/><path class="cls-5" d="M616.22,120a1.54,1.54,0,0,1,.41-1.09,1.84,1.84,0,0,1,2.39,0,1.5,1.5,0,0,1,.42,1.09,1.47,1.47,0,0,1-.42,1.07,1.88,1.88,0,0,1-2.39,0A1.5,1.5,0,0,1,616.22,120Zm3,16h-2.85V123.32h2.85Z"/><path class="cls-5" d="M625.91,120.24v3.08h2.24v2.11h-2.24v7.08a1.59,1.59,0,0,0,.29,1.05,1.34,1.34,0,0,0,1,.32,4.34,4.34,0,0,0,1-.12V136a7,7,0,0,1-1.88.27c-2.18,0-3.28-1.2-3.28-3.62v-7.18H621v-2.11h2.08v-3.08Z"/><path class="cls-5" d="M634.76,131.92l2.58-8.6h3l-5,14.6q-1.16,3.2-3.94,3.2a5.14,5.14,0,0,1-1.37-.21V138.7l.54,0a2.82,2.82,0,0,0,1.63-.39,2.6,2.6,0,0,0,.86-1.32l.41-1.09L629,123.32h3.07Z"/></g></g><g id="组_22" data-name="组 22"><path id="路径_38" data-name="路径 38" class="cls-6" d="M660.05,69.91v66.41L646,125.26"/><path id="路径_39" data-name="路径 39" class="cls-6" d="M673.13,136.32V69.92L686.21,80"/></g></g><g id="组_25" data-name="组 25"><g id="Withdraw" class="cls-3"><g class="cls-3"><path class="cls-4" d="M278.86,361.13l2.4-11.77H284L280.35,365h-2.6l-3-11.42-3,11.42h-2.61l-3.61-15.64h2.69l2.43,11.75,3-11.75h2.27Z"/><path class="cls-4" d="M285.7,350.36a1.4,1.4,0,0,1,.38-1,1.43,1.43,0,0,1,1.09-.4,1.46,1.46,0,0,1,1.1.4,1.36,1.36,0,0,1,.38,1,1.33,1.33,0,0,1-.38,1,1.49,1.49,0,0,1-1.1.39,1.47,1.47,0,0,1-1.09-.39A1.37,1.37,0,0,1,285.7,350.36ZM288.47,365h-2.61V353.38h2.61Z"/><path class="cls-4" d="M294.58,350.55v2.83h2.06v1.93h-2.06v6.49a1.41,1.41,0,0,0,.27,1,1.2,1.2,0,0,0,.94.3,4.11,4.11,0,0,0,.91-.11v2a6.6,6.6,0,0,1-1.72.24c-2,0-3-1.1-3-3.31v-6.59h-1.91v-1.93H292v-2.83Z"/><path class="cls-4" d="M301.2,354.64a4.1,4.1,0,0,1,3.23-1.48q3.72,0,3.78,4.25V365h-2.62v-7.5a2.28,2.28,0,0,0-.52-1.7,2.12,2.12,0,0,0-1.53-.5,2.53,2.53,0,0,0-2.34,1.4V365h-2.61V348.5h2.61Z"/><path class="cls-4" d="M310.35,359.1a6.92,6.92,0,0,1,1.25-4.31,4,4,0,0,1,3.34-1.63,3.8,3.8,0,0,1,3,1.29V348.5h2.61V365h-2.37l-.13-1.2a3.85,3.85,0,0,1-3.12,1.41,4,4,0,0,1-3.3-1.64A7.09,7.09,0,0,1,310.35,359.1Zm2.61.23a4.77,4.77,0,0,0,.69,2.76,2.19,2.19,0,0,0,1.93,1,2.48,2.48,0,0,0,2.35-1.43v-5a2.44,2.44,0,0,0-2.32-1.4,2.23,2.23,0,0,0-2,1A5.39,5.39,0,0,0,313,359.33Z"/><path class="cls-4" d="M329.35,355.76a6.27,6.27,0,0,0-1.07-.08,2.38,2.38,0,0,0-2.41,1.37V365h-2.62V353.38h2.5l.06,1.3a3,3,0,0,1,2.62-1.52,2.52,2.52,0,0,1,.93.15Z"/><path class="cls-4" d="M337.62,365a3.6,3.6,0,0,1-.3-1.08,4.08,4.08,0,0,1-3.05,1.29,4.13,4.13,0,0,1-2.86-1,3.2,3.2,0,0,1-1.11-2.47,3.32,3.32,0,0,1,1.38-2.86,6.72,6.72,0,0,1,3.95-1h1.6v-.76a2.08,2.08,0,0,0-.5-1.45,2,2,0,0,0-1.54-.54,2.27,2.27,0,0,0-1.46.45,1.36,1.36,0,0,0-.57,1.13h-2.61a2.92,2.92,0,0,1,.63-1.79,4.21,4.21,0,0,1,1.73-1.31,6.09,6.09,0,0,1,2.43-.47,4.82,4.82,0,0,1,3.25,1,3.64,3.64,0,0,1,1.25,2.88v5.24a6,6,0,0,0,.44,2.51V365Zm-2.87-1.88a2.86,2.86,0,0,0,1.45-.38,2.45,2.45,0,0,0,1-1v-2.19h-1.41a3.84,3.84,0,0,0-2.18.51,1.64,1.64,0,0,0-.73,1.43,1.51,1.51,0,0,0,.5,1.19A1.92,1.92,0,0,0,334.75,363.12Z"/><path class="cls-4" d="M352.79,361.4l1.84-8h2.55L354,365h-2.15l-2.49-8-2.45,8h-2.15l-3.18-11.62h2.55l1.88,7.94,2.38-7.94h2Z"/></g></g><g id="Deposit" class="cls-3"><g class="cls-3"><path class="cls-4" d="M275.59,296V280.36h4.62a7.31,7.31,0,0,1,3.68.92,6.36,6.36,0,0,1,2.49,2.62,8.44,8.44,0,0,1,.88,3.89v.79a8.32,8.32,0,0,1-.89,3.91,6.25,6.25,0,0,1-2.52,2.6,7.61,7.61,0,0,1-3.76.91Zm2.72-13.45v11.28h1.77a4.09,4.09,0,0,0,3.28-1.34,5.87,5.87,0,0,0,1.17-3.84v-.87a6,6,0,0,0-1.11-3.89,3.94,3.94,0,0,0-3.21-1.34Z"/><path class="cls-4" d="M294.83,296.21a5.38,5.38,0,0,1-4-1.56,5.66,5.66,0,0,1-1.55-4.16v-.32a6.94,6.94,0,0,1,.68-3.11,5,5,0,0,1,4.59-2.9,4.58,4.58,0,0,1,3.67,1.52,6.42,6.42,0,0,1,1.29,4.28V291H291.9a3.49,3.49,0,0,0,1,2.27,2.88,2.88,0,0,0,2.12.84,3.51,3.51,0,0,0,2.92-1.45l1.41,1.34a4.67,4.67,0,0,1-1.87,1.62A5.82,5.82,0,0,1,294.83,296.21Zm-.31-9.95a2.21,2.21,0,0,0-1.74.75,3.88,3.88,0,0,0-.84,2.09h5v-.19a3.13,3.13,0,0,0-.7-2A2.15,2.15,0,0,0,294.52,286.26Z"/><path class="cls-4" d="M311.69,290.31a6.9,6.9,0,0,1-1.22,4.3,4.27,4.27,0,0,1-6.35.35v5.51h-2.61V284.38h2.41l.1,1.18a3.85,3.85,0,0,1,3.13-1.4,4,4,0,0,1,3.34,1.59,7.13,7.13,0,0,1,1.2,4.4Zm-2.6-.23a4.86,4.86,0,0,0-.69-2.76,2.25,2.25,0,0,0-2-1,2.41,2.41,0,0,0-2.3,1.32v5.16a2.43,2.43,0,0,0,2.32,1.35,2.25,2.25,0,0,0,1.95-1A5.35,5.35,0,0,0,309.09,290.08Z"/><path class="cls-4" d="M313.41,290.08a6.9,6.9,0,0,1,.68-3.08,4.91,4.91,0,0,1,1.9-2.1,5.39,5.39,0,0,1,2.82-.74,5.06,5.06,0,0,1,3.81,1.52,6,6,0,0,1,1.59,4v.62a6.92,6.92,0,0,1-.66,3.07,4.86,4.86,0,0,1-1.89,2.09,5.35,5.35,0,0,1-2.84.74,5,5,0,0,1-3.94-1.63,6.32,6.32,0,0,1-1.48-4.37Zm2.61.23a4.74,4.74,0,0,0,.74,2.81,2.44,2.44,0,0,0,2.07,1,2.36,2.36,0,0,0,2.05-1,5.17,5.17,0,0,0,.74-3,4.59,4.59,0,0,0-.76-2.79,2.55,2.55,0,0,0-4.08,0A5,5,0,0,0,316,290.31Z"/><path class="cls-4" d="M332.94,292.84a1.18,1.18,0,0,0-.57-1.06,6.36,6.36,0,0,0-1.91-.65,9.21,9.21,0,0,1-2.22-.71,3,3,0,0,1-2-2.73,3.08,3.08,0,0,1,1.27-2.52,5,5,0,0,1,3.22-1,5.27,5.27,0,0,1,3.37,1,3.26,3.26,0,0,1,1.28,2.68h-2.61a1.58,1.58,0,0,0-.56-1.25,2.09,2.09,0,0,0-1.48-.5,2.34,2.34,0,0,0-1.4.39,1.27,1.27,0,0,0-.54,1.07,1.06,1.06,0,0,0,.5.93,6.92,6.92,0,0,0,2,.67,10,10,0,0,1,2.42.81,3.54,3.54,0,0,1,1.3,1.12,2.9,2.9,0,0,1,.42,1.59,3,3,0,0,1-1.3,2.54,5.54,5.54,0,0,1-3.41,1,6,6,0,0,1-2.54-.51,4.11,4.11,0,0,1-1.74-1.42,3.31,3.31,0,0,1-.62-1.94h2.53a1.85,1.85,0,0,0,.7,1.42,2.74,2.74,0,0,0,1.71.5,2.68,2.68,0,0,0,1.57-.39A1.24,1.24,0,0,0,332.94,292.84Z"/><path class="cls-4" d="M337.79,281.36a1.36,1.36,0,0,1,.38-1,1.69,1.69,0,0,1,2.18,0,1.36,1.36,0,0,1,.39,1,1.33,1.33,0,0,1-.39,1,1.72,1.72,0,0,1-2.18,0A1.33,1.33,0,0,1,337.79,281.36ZM340.56,296H338V284.38h2.61Z"/><path class="cls-4" d="M346.67,281.55v2.83h2.05v1.93h-2.05v6.49a1.47,1.47,0,0,0,.26,1,1.22,1.22,0,0,0,.94.3,4.2,4.2,0,0,0,.92-.11v2a6.66,6.66,0,0,1-1.72.24q-3,0-3-3.31v-6.59h-1.91v-1.93h1.91v-2.83Z"/></g></g><g id="组_24" data-name="组 24"><path id="路径_40" data-name="路径 40" class="cls-6" d="M240.76,317.44H384.65l-14.09-13.08"/><path id="路径_41" data-name="路径 41" class="cls-6" d="M384.65,329.51H240.76l14.09,13.09"/></g></g><g id="组_27" data-name="组 27"><g id="User" class="cls-3"><g class="cls-3"><path class="cls-4" d="M669.85,16.54V32a7.89,7.89,0,0,1-2.41,6.09,9.24,9.24,0,0,1-6.58,2.24,9.41,9.41,0,0,1-6.53-2.17,7.78,7.78,0,0,1-2.46-6V16.54h4.83V32a4.44,4.44,0,0,0,1.11,3.36,4.19,4.19,0,0,0,3.05,1.06q4.08,0,4.14-4.29V16.54Z"/><path class="cls-4" d="M683,35.18a1.48,1.48,0,0,0-.84-1.34,9.66,9.66,0,0,0-2.72-.88q-6.23-1.3-6.22-5.29a4.77,4.77,0,0,1,1.93-3.87,7.73,7.73,0,0,1,5-1.56,8.33,8.33,0,0,1,5.31,1.57,4.91,4.91,0,0,1,2,4.06h-4.66a2.27,2.27,0,0,0-.64-1.66,2.74,2.74,0,0,0-2-.65,2.83,2.83,0,0,0-1.83.53,1.72,1.72,0,0,0-.64,1.36,1.44,1.44,0,0,0,.73,1.25,7.76,7.76,0,0,0,2.48.82,20.24,20.24,0,0,1,2.93.78c2.46.9,3.69,2.47,3.69,4.69a4.54,4.54,0,0,1-2.05,3.86,8.82,8.82,0,0,1-5.28,1.47,9.22,9.22,0,0,1-3.89-.78,6.43,6.43,0,0,1-2.67-2.14,5,5,0,0,1-1-2.94H677a2.43,2.43,0,0,0,.92,1.9,3.63,3.63,0,0,0,2.28.66,3.38,3.38,0,0,0,2-.51A1.59,1.59,0,0,0,683,35.18Z"/><path class="cls-4" d="M698.5,40.32A8.53,8.53,0,0,1,692.26,38a8.36,8.36,0,0,1-2.41-6.27v-.45a10.64,10.64,0,0,1,1-4.7,7.5,7.5,0,0,1,2.88-3.19A8.15,8.15,0,0,1,698,22.24a7.26,7.26,0,0,1,5.63,2.26,9.17,9.17,0,0,1,2,6.4v1.9h-11.1a4.31,4.31,0,0,0,1.36,2.74,4.16,4.16,0,0,0,2.88,1,5,5,0,0,0,4.2-2l2.29,2.56a6.92,6.92,0,0,1-2.84,2.31A9.18,9.18,0,0,1,698.5,40.32ZM698,26a2.9,2.9,0,0,0-2.25.94,4.86,4.86,0,0,0-1.1,2.68h6.48v-.37a3.51,3.51,0,0,0-.84-2.4A3,3,0,0,0,698,26Z"/><path class="cls-4" d="M718.11,26.93a13.68,13.68,0,0,0-1.67-.13c-1.77,0-2.92.6-3.47,1.79V40h-4.66V22.57h4.4l.13,2.07a4.32,4.32,0,0,1,3.88-2.4,5,5,0,0,1,1.46.21Z"/></g></g><g id="组_26" data-name="组 26"><circle id="椭圆_10" data-name="椭圆 10" class="cls-2" cx="616.01" cy="9.54" r="7.04"/><path id="路径_42" data-name="路径 42" class="cls-2" d="M615.61,23.15c-8.35,0-14.22,7.78-14.23,16.13a1,1,0,0,0,1,.95H628.9a1,1,0,0,0,1-.95C629.84,30.93,624,23.16,615.61,23.15Z"/></g></g><g id="矩形_16" data-name="矩形 16"><rect class="cls-7" x="11" y="234" width="197" height="52" rx="10"/><rect class="cls-8" x="13.5" y="236.5" width="192" height="47" rx="7.5"/></g><g id="矩形_17" data-name="矩形 17"><rect class="cls-7" x="11" y="323" width="197" height="53" rx="10"/><rect class="cls-8" x="13.5" y="325.5" width="192" height="48" rx="7.5"/></g><g id="Token_1" data-name="Token 1" class="cls-3"><g class="cls-3"><path class="cls-4" d="M70.34,252.42h-6.1V269h-4.1V252.42h-6v-3.33H70.34Z"/><path class="cls-4" d="M69,261.47a8.86,8.86,0,0,1,.84-3.93,6.19,6.19,0,0,1,2.45-2.66,7.09,7.09,0,0,1,3.69-.95,6.7,6.7,0,0,1,4.89,1.84,7.33,7.33,0,0,1,2.11,5l0,1a7.75,7.75,0,0,1-1.9,5.47,7.38,7.38,0,0,1-10.21,0,7.85,7.85,0,0,1-1.9-5.58Zm4,.28A5.51,5.51,0,0,0,73.7,265a2.85,2.85,0,0,0,4.51,0,6,6,0,0,0,.81-3.53,5.42,5.42,0,0,0-.81-3.2,2.81,2.81,0,0,0-4.51,0A6.14,6.14,0,0,0,72.91,261.75Z"/><path class="cls-4" d="M90.78,263.07l-1.42,1.42V269h-4V248h4v11.63l.76-1,3.79-4.44h4.74l-5.34,6.16L99.12,269H94.58Z"/><path class="cls-4" d="M106.9,269.27a7.26,7.26,0,0,1-5.3-2,7.12,7.12,0,0,1-2-5.32v-.38a8.87,8.87,0,0,1,.87-4,6.3,6.3,0,0,1,2.44-2.71,6.86,6.86,0,0,1,3.6-.95,6.14,6.14,0,0,1,4.78,1.92,7.77,7.77,0,0,1,1.74,5.43v1.61h-9.42a3.65,3.65,0,0,0,1.16,2.32,3.45,3.45,0,0,0,2.44.88,4.23,4.23,0,0,0,3.56-1.66l2,2.18a6,6,0,0,1-2.41,2A7.86,7.86,0,0,1,106.9,269.27Zm-.45-12.15a2.44,2.44,0,0,0-1.91.8,4.13,4.13,0,0,0-.94,2.28h5.5v-.32a3,3,0,0,0-.71-2A2.57,2.57,0,0,0,106.45,257.12Z"/><path class="cls-4" d="M118.86,254.21l.12,1.71a5.16,5.16,0,0,1,4.25-2,4.28,4.28,0,0,1,3.5,1.38,6.45,6.45,0,0,1,1.18,4.13V269h-4v-9.46a2.55,2.55,0,0,0-.55-1.83,2.48,2.48,0,0,0-1.82-.56,2.72,2.72,0,0,0-2.5,1.42V269h-4V254.21Z"/><path class="cls-4" d="M147.31,269h-3.95V253.77l-4.72,1.46V252l8.25-3h.42Z"/></g></g><g id="Token_2" data-name="Token 2" class="cls-3"><g class="cls-3"><path class="cls-4" d="M70.34,340.42h-6.1V357h-4.1V340.42h-6v-3.33H70.34Z"/><path class="cls-4" d="M69,349.47a8.86,8.86,0,0,1,.84-3.93,6.19,6.19,0,0,1,2.45-2.66,7.09,7.09,0,0,1,3.69-.95,6.7,6.7,0,0,1,4.89,1.84,7.33,7.33,0,0,1,2.11,5l0,1a7.75,7.75,0,0,1-1.9,5.47,7.38,7.38,0,0,1-10.21,0,7.85,7.85,0,0,1-1.9-5.58Zm4,.28A5.51,5.51,0,0,0,73.7,353a2.85,2.85,0,0,0,4.51,0,6,6,0,0,0,.81-3.53,5.42,5.42,0,0,0-.81-3.2,2.81,2.81,0,0,0-4.51,0A6.14,6.14,0,0,0,72.91,349.75Z"/><path class="cls-4" d="M90.78,351.07l-1.42,1.42V357h-4V336h4v11.63l.76-1,3.79-4.44h4.74l-5.34,6.16L99.12,357H94.58Z"/><path class="cls-4" d="M106.9,357.27a7.26,7.26,0,0,1-5.3-2,7.12,7.12,0,0,1-2-5.32v-.38a8.87,8.87,0,0,1,.87-4,6.3,6.3,0,0,1,2.44-2.71,6.86,6.86,0,0,1,3.6-.95,6.14,6.14,0,0,1,4.78,1.92,7.77,7.77,0,0,1,1.74,5.43v1.61h-9.42a3.65,3.65,0,0,0,1.16,2.32,3.45,3.45,0,0,0,2.44.88,4.23,4.23,0,0,0,3.56-1.66l2,2.18a6,6,0,0,1-2.41,2A7.86,7.86,0,0,1,106.9,357.27Zm-.45-12.15a2.44,2.44,0,0,0-1.91.8,4.13,4.13,0,0,0-.94,2.28h5.5v-.32a3,3,0,0,0-.71-2A2.57,2.57,0,0,0,106.45,345.12Z"/><path class="cls-4" d="M118.86,342.21l.12,1.71a5.16,5.16,0,0,1,4.25-2,4.28,4.28,0,0,1,3.5,1.38,6.45,6.45,0,0,1,1.18,4.13V357h-4v-9.46a2.55,2.55,0,0,0-.55-1.83,2.48,2.48,0,0,0-1.82-.56,2.72,2.72,0,0,0-2.5,1.42V357h-4V342.21Z"/><path class="cls-4" d="M151.36,357H137.71v-2.71l6.44-6.86a15.47,15.47,0,0,0,2-2.53,4,4,0,0,0,.64-2,3.05,3.05,0,0,0-.67-2.09,2.43,2.43,0,0,0-1.91-.75,2.61,2.61,0,0,0-2.12.92,3.67,3.67,0,0,0-.77,2.43h-4a6.64,6.64,0,0,1,.86-3.33,6.15,6.15,0,0,1,2.46-2.36,7.55,7.55,0,0,1,3.59-.85A7,7,0,0,1,149,338.3a5.19,5.19,0,0,1,1.7,4.17,6.67,6.67,0,0,1-.76,3,16.56,16.56,0,0,1-2.63,3.57l-4.52,4.77h8.56Z"/></g></g><g id="组_33" data-name="组 33"><g id="API" class="cls-3"><g class="cls-3"><path class="cls-4" d="M1000.88,307.52h-5.79L993.88,311h-2.69l5.64-14.93h2.32L1004.8,311h-2.7Zm-5.06-2.09h4.33L998,299.24Z"/><path class="cls-4" d="M1009.09,305.46V311h-2.6V296.07h5.72a5.77,5.77,0,0,1,4,1.3,4.39,4.39,0,0,1,1.47,3.45,4.23,4.23,0,0,1-1.44,3.42,6,6,0,0,1-4,1.22Zm0-2.09h3.12a3.1,3.1,0,0,0,2.11-.65,2.4,2.4,0,0,0,.73-1.88,2.58,2.58,0,0,0-.74-1.93,2.84,2.84,0,0,0-2-.75h-3.19Z"/><path class="cls-4" d="M1022.65,311h-2.58V296.07h2.58Z"/></g></g><g id="组_32" data-name="组 32"><path id="路径_38-2" data-name="路径 38-2" class="cls-6" d="M966.84,333.77h93.45l-10.71-14.6"/></g></g><g id="组_54" data-name="组 54"><g id="矩形_15" data-name="矩形 15"><rect class="cls-7" x="448" y="197" width="173" height="53" rx="10"/><rect class="cls-8" x="450.5" y="199.5" width="168" height="48" rx="7.5"/></g><g id="矩形_19" data-name="矩形 19"><rect class="cls-7" x="448" y="404" width="173" height="53" rx="10"/><rect class="cls-8" x="450.5" y="406.5" width="168" height="48" rx="7.5"/></g><g id="矩形_18" data-name="矩形 18"><rect class="cls-7" x="649" y="197" width="172" height="53" rx="10"/><rect class="cls-8" x="651.5" y="199.5" width="167" height="48" rx="7.5"/></g><g id="矩形_20" data-name="矩形 20"><rect class="cls-7" x="649" y="404" width="172" height="53" rx="10"/><rect class="cls-8" x="651.5" y="406.5" width="167" height="48" rx="7.5"/></g><g id="Token_1-2" data-name="Token 1-2" class="cls-3"><g class="cls-3"><path class="cls-4" d="M498.17,215.82h-6.31V233h-4.25V215.82h-6.23v-3.44h16.79Z"/><path class="cls-4" d="M496.74,225.2a9.05,9.05,0,0,1,.88-4.07,6.45,6.45,0,0,1,2.53-2.76,7.37,7.37,0,0,1,3.83-1,7,7,0,0,1,5.06,1.89,7.63,7.63,0,0,1,2.19,5.16l0,1.05a8,8,0,0,1-2,5.65,7.63,7.63,0,0,1-10.57,0,8.14,8.14,0,0,1-2-5.78Zm4.09.29a5.72,5.72,0,0,0,.83,3.34,3,3,0,0,0,4.67,0,6.25,6.25,0,0,0,.83-3.65,5.66,5.66,0,0,0-.83-3.32A2.72,2.72,0,0,0,504,220.7a2.64,2.64,0,0,0-2.32,1.17A6.3,6.3,0,0,0,500.83,225.49Z"/><path class="cls-4" d="M519.34,226.85l-1.47,1.48V233h-4.09V211.25h4.09V223.3l.79-1,3.92-4.6h4.92L522,224.06l6,8.94h-4.7Z"/><path class="cls-4" d="M536,233.28a7.55,7.55,0,0,1-5.49-2.06,7.37,7.37,0,0,1-2.12-5.51v-.4a9.35,9.35,0,0,1,.89-4.13,6.62,6.62,0,0,1,2.53-2.8,7.07,7.07,0,0,1,3.73-1,6.35,6.35,0,0,1,4.95,2,8,8,0,0,1,1.81,5.62v1.67h-9.76a3.8,3.8,0,0,0,1.2,2.41,3.63,3.63,0,0,0,2.53.9,4.42,4.42,0,0,0,3.69-1.71l2,2.25a6,6,0,0,1-2.49,2A8.13,8.13,0,0,1,536,233.28Zm-.47-12.58a2.57,2.57,0,0,0-2,.82,4.38,4.38,0,0,0-1,2.36h5.7v-.33a3.06,3.06,0,0,0-.74-2.11A2.62,2.62,0,0,0,535.57,220.7Z"/><path class="cls-4" d="M548.43,217.68l.12,1.77a5.36,5.36,0,0,1,4.41-2,4.42,4.42,0,0,1,3.62,1.43,6.63,6.63,0,0,1,1.22,4.27V233h-4.09v-9.8a2.64,2.64,0,0,0-.57-1.89,2.53,2.53,0,0,0-1.88-.59,2.8,2.8,0,0,0-2.59,1.48V233h-4.09V217.68Z"/><path class="cls-4" d="M577.89,233H573.8V217.23l-4.88,1.51v-3.33l8.54-3.06h.43Z"/></g></g><g id="LP_Token_1" data-name="LP Token 1" class="cls-3"><g class="cls-3"><path class="cls-4" d="M464.77,435.71h8.71V439H460.67V419.09h4.1Z"/><path class="cls-4" d="M479.93,432v7h-4.1V419.09h7.77a9.09,9.09,0,0,1,3.94.82,6.09,6.09,0,0,1,2.62,2.34,6.47,6.47,0,0,1,.91,3.43,5.72,5.72,0,0,1-2,4.62,8.35,8.35,0,0,1-5.54,1.69Zm0-3.33h3.67a3.61,3.61,0,0,0,2.48-.76,2.78,2.78,0,0,0,.85-2.19,3.29,3.29,0,0,0-.86-2.36,3.15,3.15,0,0,0-2.38-.93h-3.76Z"/><path class="cls-4" d="M515,422.42h-6.1V439h-4.1V422.42h-6v-3.33H515Z"/><path class="cls-4" d="M513.65,431.47a8.86,8.86,0,0,1,.84-3.93,6.23,6.23,0,0,1,2.44-2.66,7.15,7.15,0,0,1,3.7-.95,6.7,6.7,0,0,1,4.89,1.84,7.33,7.33,0,0,1,2.11,5l0,1a7.75,7.75,0,0,1-1.9,5.47,7.38,7.38,0,0,1-10.21,0,7.85,7.85,0,0,1-1.9-5.58Zm4,.28a5.51,5.51,0,0,0,.79,3.22,2.85,2.85,0,0,0,4.51,0,6,6,0,0,0,.81-3.53,5.42,5.42,0,0,0-.81-3.2,2.81,2.81,0,0,0-4.51,0A6.14,6.14,0,0,0,517.6,431.75Z"/><path class="cls-4" d="M535.47,433.07,534,434.49V439h-3.95V418H534v11.63l.77-1,3.79-4.44h4.74L538,430.37l5.81,8.63h-4.54Z"/><path class="cls-4" d="M551.59,439.27a7.26,7.26,0,0,1-5.3-2,7.08,7.08,0,0,1-2-5.32v-.38a9,9,0,0,1,.86-4,6.38,6.38,0,0,1,2.45-2.71,6.86,6.86,0,0,1,3.6-.95,6.15,6.15,0,0,1,4.78,1.92,7.77,7.77,0,0,1,1.74,5.43v1.61h-9.42a3.69,3.69,0,0,0,1.15,2.32,3.49,3.49,0,0,0,2.45.88,4.23,4.23,0,0,0,3.56-1.66l1.94,2.18a5.9,5.9,0,0,1-2.4,2A7.86,7.86,0,0,1,551.59,439.27Zm-.46-12.15a2.42,2.42,0,0,0-1.9.8,4.13,4.13,0,0,0-.94,2.28h5.5v-.32a3,3,0,0,0-.71-2A2.57,2.57,0,0,0,551.13,427.12Z"/><path class="cls-4" d="M563.55,424.21l.12,1.71a5.16,5.16,0,0,1,4.25-2,4.28,4.28,0,0,1,3.5,1.38,6.45,6.45,0,0,1,1.18,4.13V439h-4v-9.46a2.55,2.55,0,0,0-.55-1.83,2.48,2.48,0,0,0-1.82-.56,2.72,2.72,0,0,0-2.5,1.42V439h-3.95V424.21Z"/><path class="cls-4" d="M592,439h-4V423.77l-4.72,1.46V422l8.25-2.95H592Z"/></g></g><g id="Token_2-2" data-name="Token 2-2" class="cls-3"><g class="cls-3"><path class="cls-4" d="M698.17,215.82h-6.31V233h-4.25V215.82h-6.23v-3.44h16.79Z"/><path class="cls-4" d="M696.74,225.2a9.19,9.19,0,0,1,.88-4.07,6.45,6.45,0,0,1,2.53-2.76,7.37,7.37,0,0,1,3.83-1,7,7,0,0,1,5.06,1.89,7.63,7.63,0,0,1,2.19,5.16l0,1.05a8,8,0,0,1-2,5.65,7.63,7.63,0,0,1-10.57,0,8.14,8.14,0,0,1-2-5.78Zm4.09.29a5.72,5.72,0,0,0,.83,3.34,3,3,0,0,0,4.67,0,6.25,6.25,0,0,0,.83-3.65,5.66,5.66,0,0,0-.83-3.32A2.72,2.72,0,0,0,704,220.7a2.64,2.64,0,0,0-2.32,1.17A6.3,6.3,0,0,0,700.83,225.49Z"/><path class="cls-4" d="M719.34,226.85l-1.47,1.48V233h-4.09V211.25h4.09V223.3l.79-1,3.92-4.6h4.92L722,224.06l6,8.94h-4.7Z"/><path class="cls-4" d="M736,233.28a7.55,7.55,0,0,1-5.49-2.06,7.37,7.37,0,0,1-2.12-5.51v-.4a9.35,9.35,0,0,1,.89-4.13,6.62,6.62,0,0,1,2.53-2.8,7.07,7.07,0,0,1,3.73-1,6.35,6.35,0,0,1,4.95,2,8,8,0,0,1,1.81,5.62v1.67h-9.76a3.8,3.8,0,0,0,1.2,2.41,3.63,3.63,0,0,0,2.53.9,4.42,4.42,0,0,0,3.69-1.71l2,2.25a6,6,0,0,1-2.49,2A8.13,8.13,0,0,1,736,233.28Zm-.47-12.58a2.57,2.57,0,0,0-2,.82,4.38,4.38,0,0,0-1,2.36h5.7v-.33a3.06,3.06,0,0,0-.74-2.11A2.62,2.62,0,0,0,735.57,220.7Z"/><path class="cls-4" d="M748.43,217.68l.12,1.77a5.36,5.36,0,0,1,4.41-2,4.42,4.42,0,0,1,3.62,1.43,6.63,6.63,0,0,1,1.22,4.27V233h-4.09v-9.8a2.64,2.64,0,0,0-.57-1.89,2.53,2.53,0,0,0-1.88-.59,2.8,2.8,0,0,0-2.59,1.48V233h-4.09V217.68Z"/><path class="cls-4" d="M782.09,233H768v-2.8l6.67-7.11a16.61,16.61,0,0,0,2-2.62,4.32,4.32,0,0,0,.65-2.13,3.18,3.18,0,0,0-.69-2.16,2.5,2.5,0,0,0-2-.78,2.71,2.71,0,0,0-2.19.95,3.82,3.82,0,0,0-.8,2.52h-4.11a6.74,6.74,0,0,1,.9-3.44A6.38,6.38,0,0,1,771,213a7.75,7.75,0,0,1,3.73-.88,7.33,7.33,0,0,1,4.95,1.53,5.43,5.43,0,0,1,1.76,4.32,6.86,6.86,0,0,1-.79,3.11,17.53,17.53,0,0,1-2.72,3.7l-4.69,4.94h8.87Z"/></g></g><g id="_......-2" data-name=" ......-2" class="cls-3"><g class="cls-3"><path class="cls-9" d="M850.79,347a2.07,2.07,0,0,1,.65-1.59,2.37,2.37,0,0,1,1.65-.61,2.4,2.4,0,0,1,1.67.61,2.07,2.07,0,0,1,.66,1.59,2,2,0,0,1-.66,1.56,2.32,2.32,0,0,1-1.67.61,2.29,2.29,0,0,1-1.65-.61A2,2,0,0,1,850.79,347Z"/><path class="cls-9" d="M859.21,347a2.07,2.07,0,0,1,.66-1.59,2.55,2.55,0,0,1,3.31,0,2.07,2.07,0,0,1,.66,1.59,2,2,0,0,1-.65,1.56,2.58,2.58,0,0,1-3.33,0A2,2,0,0,1,859.21,347Z"/><path class="cls-9" d="M867.64,347a2.1,2.1,0,0,1,.65-1.59,2.37,2.37,0,0,1,1.65-.61,2.4,2.4,0,0,1,1.67.61,2.07,2.07,0,0,1,.66,1.59,2,2,0,0,1-.65,1.56,2.36,2.36,0,0,1-1.68.61,2.29,2.29,0,0,1-1.65-.61A2,2,0,0,1,867.64,347Z"/><path class="cls-9" d="M876.06,347a2.07,2.07,0,0,1,.66-1.59,2.55,2.55,0,0,1,3.31,0,2.07,2.07,0,0,1,.66,1.59,2,2,0,0,1-.65,1.56,2.58,2.58,0,0,1-3.33,0A2,2,0,0,1,876.06,347Z"/><path class="cls-9" d="M884.49,347a2.1,2.1,0,0,1,.65-1.59,2.37,2.37,0,0,1,1.65-.61,2.4,2.4,0,0,1,1.67.61,2.07,2.07,0,0,1,.66,1.59,2,2,0,0,1-.66,1.56,2.32,2.32,0,0,1-1.67.61,2.29,2.29,0,0,1-1.65-.61A2,2,0,0,1,884.49,347Z"/><path class="cls-9" d="M892.91,347a2.07,2.07,0,0,1,.66-1.59,2.55,2.55,0,0,1,3.31,0,2.07,2.07,0,0,1,.66,1.59,2,2,0,0,1-.65,1.56,2.58,2.58,0,0,1-3.33,0A2,2,0,0,1,892.91,347Z"/></g></g><g id="_......-3" data-name=" ......-3" class="cls-3"><g class="cls-3"><path class="cls-4" d="M850.79,231a2.07,2.07,0,0,1,.65-1.59,2.37,2.37,0,0,1,1.65-.61,2.4,2.4,0,0,1,1.67.61,2.07,2.07,0,0,1,.66,1.59,2,2,0,0,1-.66,1.56,2.32,2.32,0,0,1-1.67.61,2.29,2.29,0,0,1-1.65-.61A2,2,0,0,1,850.79,231Z"/><path class="cls-4" d="M859.21,231a2.07,2.07,0,0,1,.66-1.59,2.55,2.55,0,0,1,3.31,0,2.07,2.07,0,0,1,.66,1.59,2,2,0,0,1-.65,1.56,2.58,2.58,0,0,1-3.33,0A2,2,0,0,1,859.21,231Z"/><path class="cls-4" d="M867.64,231a2.1,2.1,0,0,1,.65-1.59,2.37,2.37,0,0,1,1.65-.61,2.4,2.4,0,0,1,1.67.61,2.07,2.07,0,0,1,.66,1.59,2,2,0,0,1-.65,1.56,2.36,2.36,0,0,1-1.68.61,2.29,2.29,0,0,1-1.65-.61A2,2,0,0,1,867.64,231Z"/><path class="cls-4" d="M876.06,231a2.07,2.07,0,0,1,.66-1.59,2.55,2.55,0,0,1,3.31,0,2.07,2.07,0,0,1,.66,1.59,2,2,0,0,1-.65,1.56,2.58,2.58,0,0,1-3.33,0A2,2,0,0,1,876.06,231Z"/><path class="cls-4" d="M884.49,231a2.1,2.1,0,0,1,.65-1.59,2.37,2.37,0,0,1,1.65-.61,2.4,2.4,0,0,1,1.67.61,2.07,2.07,0,0,1,.66,1.59,2,2,0,0,1-.66,1.56,2.32,2.32,0,0,1-1.67.61,2.29,2.29,0,0,1-1.65-.61A2,2,0,0,1,884.49,231Z"/><path class="cls-4" d="M892.91,231a2.07,2.07,0,0,1,.66-1.59,2.55,2.55,0,0,1,3.31,0,2.07,2.07,0,0,1,.66,1.59,2,2,0,0,1-.65,1.56,2.58,2.58,0,0,1-3.33,0A2,2,0,0,1,892.91,231Z"/></g></g><g id="_......-4" data-name=" ......-4" class="cls-3"><g class="cls-3"><path class="cls-4" d="M850.79,437a2.07,2.07,0,0,1,.65-1.59,2.37,2.37,0,0,1,1.65-.61,2.4,2.4,0,0,1,1.67.61,2.07,2.07,0,0,1,.66,1.59,2,2,0,0,1-.66,1.56,2.32,2.32,0,0,1-1.67.61,2.29,2.29,0,0,1-1.65-.61A2,2,0,0,1,850.79,437Z"/><path class="cls-4" d="M859.21,437a2.07,2.07,0,0,1,.66-1.59,2.55,2.55,0,0,1,3.31,0,2.07,2.07,0,0,1,.66,1.59,2,2,0,0,1-.65,1.56,2.58,2.58,0,0,1-3.33,0A2,2,0,0,1,859.21,437Z"/><path class="cls-4" d="M867.64,437a2.1,2.1,0,0,1,.65-1.59,2.37,2.37,0,0,1,1.65-.61,2.4,2.4,0,0,1,1.67.61,2.07,2.07,0,0,1,.66,1.59,2,2,0,0,1-.65,1.56,2.36,2.36,0,0,1-1.68.61,2.29,2.29,0,0,1-1.65-.61A2,2,0,0,1,867.64,437Z"/><path class="cls-4" d="M876.06,437a2.07,2.07,0,0,1,.66-1.59,2.55,2.55,0,0,1,3.31,0,2.07,2.07,0,0,1,.66,1.59,2,2,0,0,1-.65,1.56,2.58,2.58,0,0,1-3.33,0A2,2,0,0,1,876.06,437Z"/><path class="cls-4" d="M884.49,437a2.1,2.1,0,0,1,.65-1.59,2.37,2.37,0,0,1,1.65-.61,2.4,2.4,0,0,1,1.67.61,2.07,2.07,0,0,1,.66,1.59,2,2,0,0,1-.66,1.56,2.32,2.32,0,0,1-1.67.61,2.29,2.29,0,0,1-1.65-.61A2,2,0,0,1,884.49,437Z"/><path class="cls-4" d="M892.91,437a2.07,2.07,0,0,1,.66-1.59,2.55,2.55,0,0,1,3.31,0,2.07,2.07,0,0,1,.66,1.59,2,2,0,0,1-.65,1.56,2.58,2.58,0,0,1-3.33,0A2,2,0,0,1,892.91,437Z"/></g></g><g id="LP_Token_2" data-name="LP Token 2" class="cls-3"><g class="cls-3"><path class="cls-4" d="M666.77,435.71h8.71V439H662.67V419.09h4.1Z"/><path class="cls-4" d="M681.93,432v7h-4.1V419.09h7.76a9.11,9.11,0,0,1,3.95.82,6.09,6.09,0,0,1,2.62,2.34,6.47,6.47,0,0,1,.91,3.43,5.72,5.72,0,0,1-2,4.62,8.35,8.35,0,0,1-5.54,1.69Zm0-3.33h3.66a3.62,3.62,0,0,0,2.49-.76,2.78,2.78,0,0,0,.85-2.19,3.29,3.29,0,0,0-.86-2.36,3.15,3.15,0,0,0-2.38-.93h-3.76Z"/><path class="cls-4" d="M717,422.42h-6.1V439h-4.1V422.42h-6v-3.33H717Z"/><path class="cls-4" d="M715.65,431.47a8.86,8.86,0,0,1,.84-3.93,6.23,6.23,0,0,1,2.44-2.66,7.15,7.15,0,0,1,3.7-.95,6.7,6.7,0,0,1,4.89,1.84,7.33,7.33,0,0,1,2.11,5l0,1a7.75,7.75,0,0,1-1.9,5.47,7.38,7.38,0,0,1-10.21,0,7.85,7.85,0,0,1-1.9-5.58Zm4,.28a5.51,5.51,0,0,0,.79,3.22,2.6,2.6,0,0,0,2.27,1.12,2.63,2.63,0,0,0,2.24-1.1,6,6,0,0,0,.81-3.53,5.42,5.42,0,0,0-.81-3.2,2.81,2.81,0,0,0-4.51,0A6.14,6.14,0,0,0,719.6,431.75Z"/><path class="cls-4" d="M737.47,433.07,736,434.49V439h-3.95V418H736v11.63l.77-1,3.79-4.44h4.74L740,430.37l5.81,8.63h-4.54Z"/><path class="cls-4" d="M753.58,439.27a7.25,7.25,0,0,1-5.29-2,7.08,7.08,0,0,1-2-5.32v-.38a9,9,0,0,1,.86-4,6.43,6.43,0,0,1,2.44-2.71,6.92,6.92,0,0,1,3.61-.95,6.15,6.15,0,0,1,4.78,1.92,7.77,7.77,0,0,1,1.74,5.43v1.61h-9.42a3.69,3.69,0,0,0,1.15,2.32,3.48,3.48,0,0,0,2.44.88,4.23,4.23,0,0,0,3.57-1.66l1.94,2.18a5.9,5.9,0,0,1-2.4,2A7.88,7.88,0,0,1,753.58,439.27Zm-.45-12.15a2.42,2.42,0,0,0-1.9.8,4.13,4.13,0,0,0-.94,2.28h5.5v-.32a3,3,0,0,0-.71-2A2.57,2.57,0,0,0,753.13,427.12Z"/><path class="cls-4" d="M765.55,424.21l.12,1.71a5.16,5.16,0,0,1,4.25-2,4.28,4.28,0,0,1,3.5,1.38,6.45,6.45,0,0,1,1.18,4.13V439h-4v-9.46a2.6,2.6,0,0,0-.55-1.83,2.48,2.48,0,0,0-1.82-.56,2.72,2.72,0,0,0-2.5,1.42V439h-3.95V424.21Z"/><path class="cls-4" d="M798.05,439H784.4v-2.71l6.44-6.86a16.05,16.05,0,0,0,2-2.53,4,4,0,0,0,.64-2,3.1,3.1,0,0,0-.67-2.09,2.45,2.45,0,0,0-1.92-.75,2.6,2.6,0,0,0-2.11.92,3.67,3.67,0,0,0-.77,2.43h-4a6.54,6.54,0,0,1,.87-3.33,6.15,6.15,0,0,1,2.46-2.36,7.52,7.52,0,0,1,3.59-.85,7,7,0,0,1,4.78,1.48,5.19,5.19,0,0,1,1.7,4.17,6.67,6.67,0,0,1-.76,3A16.56,16.56,0,0,1,794,431l-4.52,4.77h8.56Z"/></g></g><line id="直线_16" data-name="直线 16" class="cls-10" x1="530.21" y1="260.09" x2="530.21" y2="301.34"/><line id="直线_21" data-name="直线 21" class="cls-10" x1="545.3" y1="260.09" x2="729.44" y2="301.34"/><line id="直线_27" data-name="直线 27" class="cls-10" x1="729.44" y1="260.09" x2="545.3" y2="301.34"/><line id="直线_28" data-name="直线 28" class="cls-10" x1="877.35" y1="260.09" x2="745.54" y2="301.34"/><g id="矩形_38" data-name="矩形 38"><rect class="cls-7" x="448" y="314" width="173" height="53" rx="10"/><rect class="cls-11" x="449.5" y="315.5" width="170" height="50" rx="8.5"/></g><g id="矩形_39" data-name="矩形 39"><rect class="cls-7" x="649" y="314" width="172" height="53" rx="10"/><rect class="cls-11" x="650.5" y="315.5" width="169" height="50" rx="8.5"/></g><g id="Pair_1" data-name="Pair 1" class="cls-3"><g class="cls-3"><path class="cls-9" d="M501,341.93V350h-2.72V329.38h7.6a7.66,7.66,0,0,1,5.31,1.73,5.86,5.86,0,0,1,1.92,4.57,5.79,5.79,0,0,1-1.88,4.63,8,8,0,0,1-5.37,1.62Zm0-2.22h4.88a4.94,4.94,0,0,0,3.35-1,3.78,3.78,0,0,0,1.16-3,3.92,3.92,0,0,0-1.16-3,4.59,4.59,0,0,0-3.19-1.14h-5Z"/><path class="cls-9" d="M525.47,350a5.36,5.36,0,0,1-.37-1.61,5.86,5.86,0,0,1-4.36,1.89A5.39,5.39,0,0,1,517,349a4.13,4.13,0,0,1-1.45-3.25,4.33,4.33,0,0,1,1.82-3.71,8.52,8.52,0,0,1,5.12-1.33h2.55v-1.2a3,3,0,0,0-.82-2.19,3.33,3.33,0,0,0-2.43-.81,3.85,3.85,0,0,0-2.35.7,2.1,2.1,0,0,0-.94,1.72h-2.64a3.57,3.57,0,0,1,.82-2.22,5.48,5.48,0,0,1,2.2-1.69,7.39,7.39,0,0,1,3.07-.62,6.06,6.06,0,0,1,4.15,1.32,4.79,4.79,0,0,1,1.56,3.65v7.05a8.79,8.79,0,0,0,.53,3.35V350Zm-4.35-2a4.67,4.67,0,0,0,2.34-.63,3.92,3.92,0,0,0,1.6-1.66v-3.14H523c-3.21,0-4.81.93-4.81,2.81a2.37,2.37,0,0,0,.82,1.93A3.17,3.17,0,0,0,521.12,348Z"/><path class="cls-9" d="M531.8,330.62a1.56,1.56,0,0,1,.39-1.08,1.46,1.46,0,0,1,1.15-.44,1.49,1.49,0,0,1,1.16.44,1.52,1.52,0,0,1,.4,1.08,1.49,1.49,0,0,1-.4,1.06,1.51,1.51,0,0,1-1.16.42,1.49,1.49,0,0,1-1.15-.42A1.53,1.53,0,0,1,531.8,330.62ZM534.63,350H532V334.68h2.62Z"/><path class="cls-9" d="M546.23,337a7.5,7.5,0,0,0-1.29-.1,3.45,3.45,0,0,0-3.5,2.2V350h-2.62V334.68h2.55l0,1.77a4.08,4.08,0,0,1,3.66-2.05,2.74,2.74,0,0,1,1.16.19Z"/><path class="cls-9" d="M564.15,350h-2.63V332.54l-5.28,1.94V332.1l7.5-2.82h.41Z"/></g></g><g id="Pair_2" data-name="Pair 2" class="cls-3"><g class="cls-3"><path class="cls-9" d="M702,341.93V350h-2.72V329.38h7.6a7.66,7.66,0,0,1,5.31,1.73,5.86,5.86,0,0,1,1.92,4.57,5.79,5.79,0,0,1-1.88,4.63,8,8,0,0,1-5.37,1.62Zm0-2.22h4.88a4.94,4.94,0,0,0,3.35-1,3.78,3.78,0,0,0,1.16-3,3.92,3.92,0,0,0-1.16-3,4.59,4.59,0,0,0-3.19-1.14h-5Z"/><path class="cls-9" d="M726.47,350a5.36,5.36,0,0,1-.37-1.61,5.86,5.86,0,0,1-4.36,1.89A5.39,5.39,0,0,1,718,349a4.13,4.13,0,0,1-1.45-3.25,4.33,4.33,0,0,1,1.82-3.71,8.52,8.52,0,0,1,5.12-1.33h2.55v-1.2a3,3,0,0,0-.82-2.19,3.33,3.33,0,0,0-2.43-.81,3.85,3.85,0,0,0-2.35.7,2.12,2.12,0,0,0-1,1.72h-2.63a3.57,3.57,0,0,1,.82-2.22,5.48,5.48,0,0,1,2.2-1.69,7.39,7.39,0,0,1,3.07-.62,6.06,6.06,0,0,1,4.15,1.32,4.79,4.79,0,0,1,1.56,3.65v7.05a8.79,8.79,0,0,0,.53,3.35V350Zm-4.35-2a4.67,4.67,0,0,0,2.34-.63,3.92,3.92,0,0,0,1.6-1.66v-3.14H724c-3.21,0-4.81.93-4.81,2.81a2.37,2.37,0,0,0,.82,1.93A3.17,3.17,0,0,0,722.12,348Z"/><path class="cls-9" d="M732.8,330.62a1.56,1.56,0,0,1,.39-1.08,1.46,1.46,0,0,1,1.15-.44,1.49,1.49,0,0,1,1.16.44,1.52,1.52,0,0,1,.4,1.08,1.49,1.49,0,0,1-.4,1.06,1.51,1.51,0,0,1-1.16.42,1.49,1.49,0,0,1-1.15-.42A1.53,1.53,0,0,1,732.8,330.62ZM735.63,350H733V334.68h2.62Z"/><path class="cls-9" d="M747.23,337a7.5,7.5,0,0,0-1.29-.1,3.45,3.45,0,0,0-3.5,2.2V350h-2.62V334.68h2.55l0,1.77a4.08,4.08,0,0,1,3.66-2.05,2.74,2.74,0,0,1,1.16.19Z"/><path class="cls-9" d="M770.05,350H756.54v-1.88l7.14-7.93a16.84,16.84,0,0,0,2.19-2.93,4.87,4.87,0,0,0,.6-2.33,3.68,3.68,0,0,0-1-2.64,3.41,3.41,0,0,0-2.6-1,4,4,0,0,0-3,1.11,4.27,4.27,0,0,0-1.08,3.1h-2.62a6.08,6.08,0,0,1,1.83-4.6,6.76,6.76,0,0,1,4.91-1.76,6.5,6.5,0,0,1,4.54,1.51,5.11,5.11,0,0,1,1.67,4q0,3-3.88,7.25l-5.52,6h10.35Z"/></g></g><g id="组_52" data-name="组 52"><line id="直线_17" data-name="直线 17" class="cls-12" x1="530.21" y1="375.8" x2="530.21" y2="394.92"/><line id="直线_18" data-name="直线 18" class="cls-12" x1="541.28" y1="375.8" x2="541.28" y2="394.92"/></g><g id="组_53" data-name="组 53"><line id="直线_19" data-name="直线 19" class="cls-12" x1="729.44" y1="375.8" x2="729.44" y2="394.92"/><line id="直线_20" data-name="直线 20" class="cls-12" x1="740.5" y1="375.8" x2="740.5" y2="394.92"/></g></g><g id="组_56" data-name="组 56"><path id="路径_97" data-name="路径 97" class="cls-4" d="M1176.24,265.62a13.08,13.08,0,1,0,13.09,13.08A13.27,13.27,0,0,0,1176.24,265.62Zm0,4a9.06,9.06,0,1,1-9,9.05A9.17,9.17,0,0,1,1176.24,269.65Zm0,24.14a22.18,22.18,0,0,0-22.13,22.14V328a2,2,0,0,0,2,2h40.25a2,2,0,0,0,2-2V315.93A22.19,22.19,0,0,0,1176.24,293.79Zm0,4a18.08,18.08,0,0,1,18.12,18V326h-36.23V315.93a18.07,18.07,0,0,1,18-18.11Zm1,9.06c-.87,0-1.8.15-2,1l-2,10.06c-.38,1.05,0,2.65,1,3s2.65,0,3-1c0-.11,0-.9,0-1l2-10.06c.3-1.07,0-1.71-1-2a4.86,4.86,0,0,0-1,0Zm-7,0c-.53,0-1.64-.37-2,0l-5,5a2.21,2.21,0,0,0,0,3h0l5,5a2.23,2.23,0,0,0,3,0c.83-.75.75-1.19,0-2-.06-.06.08-.93,0-1l-4-3,4-4c.82-.75.76-1.19,0-2-.38-.42-.43-1-1-1Zm12.07,0a2,2,0,0,0-2,2c0,.54.6.64,1,1l4,4-4,3a2.14,2.14,0,0,0,3,3h0c.08-.07-.06.07,0,0l5-5c.8-.76.75-1.21,0-2v-1l-5-5c-.38-.37-1.47,0-2,0Z"/></g><rect id="矩形_42" data-name="矩形 42" class="cls-1" x="1047.45" y="74.13" width="61.3" height="24.87" rx="7"/><g id="Canister" class="cls-3"><g class="cls-3"><path class="cls-4" d="M1136.75,88.45a6.16,6.16,0,0,1-2,4.26,6.92,6.92,0,0,1-4.68,1.52,6.69,6.69,0,0,1-3.59-1,6.46,6.46,0,0,1-2.4-2.75,9.93,9.93,0,0,1-.87-4.14V84.79a10,10,0,0,1,.85-4.25,6.4,6.4,0,0,1,2.46-2.84,6.84,6.84,0,0,1,3.69-1,6.59,6.59,0,0,1,4.55,1.53,6.36,6.36,0,0,1,2,4.33h-3a4.23,4.23,0,0,0-1.07-2.65,3.58,3.58,0,0,0-2.53-.82,3.44,3.44,0,0,0-3,1.42,7.08,7.08,0,0,0-1.06,4.14v1.52a7.5,7.5,0,0,0,1,4.22,3.28,3.28,0,0,0,2.9,1.45,3.86,3.86,0,0,0,2.63-.78,4.15,4.15,0,0,0,1.11-2.61Z"/><path class="cls-4" d="M1146.7,94a4.52,4.52,0,0,1-.32-1.18,4.81,4.81,0,0,1-6.45.32,3.49,3.49,0,0,1-1.21-2.69,3.59,3.59,0,0,1,1.51-3.11,7.31,7.31,0,0,1,4.31-1.09h1.74v-.83a2,2,0,0,0-2.23-2.17,2.55,2.55,0,0,0-1.59.49,1.52,1.52,0,0,0-.62,1.24H1139a3.14,3.14,0,0,1,.69-2,4.64,4.64,0,0,1,1.88-1.43,6.71,6.71,0,0,1,2.66-.51,5.3,5.3,0,0,1,3.55,1.12,4,4,0,0,1,1.36,3.14v5.72a6.49,6.49,0,0,0,.48,2.73V94Zm-3.13-2a3.25,3.25,0,0,0,1.59-.41,2.7,2.7,0,0,0,1.12-1.1V88.05h-1.53a4.16,4.16,0,0,0-2.38.55,1.77,1.77,0,0,0-.8,1.56,1.64,1.64,0,0,0,.55,1.3A2.05,2.05,0,0,0,1143.57,92Z"/><path class="cls-4" d="M1154.75,81.32l.09,1.47a4.52,4.52,0,0,1,3.69-1.7q4,0,4,4.53V94h-2.85V85.79a2.59,2.59,0,0,0-.52-1.79,2.2,2.2,0,0,0-1.71-.58,2.74,2.74,0,0,0-2.56,1.56v9h-2.85V81.32Z"/><path class="cls-4" d="M1165.46,78a1.5,1.5,0,0,1,.42-1.09,1.57,1.57,0,0,1,1.19-.44,1.61,1.61,0,0,1,1.2.44,1.5,1.5,0,0,1,.42,1.09,1.47,1.47,0,0,1-.42,1.07,1.64,1.64,0,0,1-1.2.43,1.6,1.6,0,0,1-1.19-.43A1.47,1.47,0,0,1,1165.46,78Zm3,16h-2.85V81.32h2.85Z"/><path class="cls-4" d="M1178.7,90.55a1.3,1.3,0,0,0-.63-1.16,6.75,6.75,0,0,0-2.08-.7,10.72,10.72,0,0,1-2.43-.77,3.25,3.25,0,0,1-2.13-3,3.37,3.37,0,0,1,1.38-2.74,5.45,5.45,0,0,1,3.52-1.1,5.68,5.68,0,0,1,3.67,1.12,3.55,3.55,0,0,1,1.4,2.92h-2.85a1.78,1.78,0,0,0-.6-1.37,2.37,2.37,0,0,0-1.62-.54,2.5,2.5,0,0,0-1.53.43,1.36,1.36,0,0,0-.59,1.16,1.14,1.14,0,0,0,.55,1,7.52,7.52,0,0,0,2.22.73,10.79,10.79,0,0,1,2.64.88,3.74,3.74,0,0,1,1.41,1.23,3.08,3.08,0,0,1,.47,1.73,3.31,3.31,0,0,1-1.42,2.77,6.05,6.05,0,0,1-3.72,1.06,6.44,6.44,0,0,1-2.77-.56,4.51,4.51,0,0,1-1.9-1.54A3.64,3.64,0,0,1,1171,90h2.76a2,2,0,0,0,.77,1.56,3,3,0,0,0,1.86.54,2.84,2.84,0,0,0,1.71-.43A1.31,1.31,0,0,0,1178.7,90.55Z"/><path class="cls-4" d="M1187.54,78.24v3.08h2.24v2.11h-2.24v7.08a1.59,1.59,0,0,0,.29,1,1.35,1.35,0,0,0,1,.32,4.25,4.25,0,0,0,1-.12V94a7,7,0,0,1-1.87.27c-2.19,0-3.28-1.2-3.28-3.62V83.43h-2.09V81.32h2.09V78.24Z"/><path class="cls-4" d="M1197.54,94.23a5.87,5.87,0,0,1-4.39-1.7,6.19,6.19,0,0,1-1.68-4.54v-.35a7.62,7.62,0,0,1,.73-3.4,5.6,5.6,0,0,1,2.06-2.32,5.39,5.39,0,0,1,3-.83,5,5,0,0,1,4,1.65,7,7,0,0,1,1.42,4.67v1.15h-8.29a3.86,3.86,0,0,0,1.05,2.49,3.13,3.13,0,0,0,2.31.91,3.86,3.86,0,0,0,3.19-1.58l1.54,1.46a5.16,5.16,0,0,1-2,1.77A6.34,6.34,0,0,1,1197.54,94.23Zm-.34-10.86a2.38,2.38,0,0,0-1.89.82,4.25,4.25,0,0,0-.92,2.29h5.42v-.21a3.43,3.43,0,0,0-.76-2.17A2.39,2.39,0,0,0,1197.2,83.37Z"/><path class="cls-4" d="M1211.47,83.92a7.27,7.27,0,0,0-1.16-.09,2.6,2.6,0,0,0-2.63,1.5V94h-2.85V81.32h2.72l.07,1.42a3.2,3.2,0,0,1,2.86-1.65,2.62,2.62,0,0,1,1,.16Z"/></g></g><g id="DSwap" class="cls-3"><g class="cls-3"><path class="cls-4" d="M632.91,535V514.38h6.34a9.6,9.6,0,0,1,4.87,1.23,8.46,8.46,0,0,1,3.35,3.48,10.79,10.79,0,0,1,1.2,5.13v.95a10.8,10.8,0,0,1-1.18,5.12,8.44,8.44,0,0,1-3.34,3.46A9.59,9.59,0,0,1,639.3,535Zm4.25-17.18v13.77h2.05A4.64,4.64,0,0,0,643,530a7.37,7.37,0,0,0,1.35-4.66v-1.09a7.44,7.44,0,0,0-1.31-4.76,4.56,4.56,0,0,0-3.81-1.63Z"/><path class="cls-4" d="M662.45,529.59a2.18,2.18,0,0,0-.85-1.85,11.33,11.33,0,0,0-3.06-1.36A20.6,20.6,0,0,1,655,525q-3.51-1.89-3.51-5.11a5,5,0,0,1,.94-3,6.15,6.15,0,0,1,2.71-2,10,10,0,0,1,4-.74,9.29,9.29,0,0,1,3.93.8,6.22,6.22,0,0,1,2.68,2.26,5.89,5.89,0,0,1,1,3.31h-4.25a2.76,2.76,0,0,0-.89-2.2,3.68,3.68,0,0,0-2.51-.79,3.93,3.93,0,0,0-2.42.66,2.1,2.1,0,0,0-.86,1.74,2,2,0,0,0,1,1.68,11.41,11.41,0,0,0,3,1.28,12.69,12.69,0,0,1,5.28,2.7,5.38,5.38,0,0,1,1.66,4,5,5,0,0,1-2,4.2,8.85,8.85,0,0,1-5.46,1.52,10.53,10.53,0,0,1-4.33-.87,6.89,6.89,0,0,1-3-2.38,6.15,6.15,0,0,1-1-3.52h4.27q0,3.42,4.07,3.42a4,4,0,0,0,2.37-.62A2,2,0,0,0,662.45,529.59Z"/><path class="cls-4" d="M682.64,529.44l2-9.76h4L684.69,535h-3.42l-2.9-9.64L675.46,535h-3.41l-3.91-15.32h4l2,9.74,2.8-9.74h3Z"/><path class="cls-4" d="M699.51,535a4.43,4.43,0,0,1-.41-1.37,5,5,0,0,1-3.87,1.65,5.44,5.44,0,0,1-3.73-1.3A4.17,4.17,0,0,1,690,530.7a4.33,4.33,0,0,1,1.8-3.74,8.93,8.93,0,0,1,5.22-1.32h1.89v-.88a2.55,2.55,0,0,0-.55-1.7,2.16,2.16,0,0,0-1.72-.63,2.43,2.43,0,0,0-1.62.49,1.7,1.7,0,0,0-.59,1.36h-4.09a4.07,4.07,0,0,1,.82-2.46A5.41,5.41,0,0,1,693.5,520a8.47,8.47,0,0,1,3.37-.64,6.69,6.69,0,0,1,4.5,1.42,5,5,0,0,1,1.66,4v6.64a7.31,7.31,0,0,0,.61,3.3V535Zm-3.39-2.85a3.49,3.49,0,0,0,1.67-.4,2.71,2.71,0,0,0,1.14-1.08V528H697.4q-3.07,0-3.27,2.13l0,.24a1.63,1.63,0,0,0,.54,1.26A2.09,2.09,0,0,0,696.12,532.15Z"/><path class="cls-4" d="M720,527.48a9.19,9.19,0,0,1-1.61,5.67,5.15,5.15,0,0,1-4.34,2.13,4.75,4.75,0,0,1-3.75-1.61v7.22h-4.09V519.68H710l.14,1.5A4.81,4.81,0,0,1,714,519.4a5.19,5.19,0,0,1,4.41,2.09,9.49,9.49,0,0,1,1.57,5.78Zm-4.09-.3a6.1,6.1,0,0,0-.76-3.3,2.48,2.48,0,0,0-2.2-1.16,2.67,2.67,0,0,0-2.65,1.48v6.27a2.72,2.72,0,0,0,2.67,1.51Q715.88,532,715.88,527.18Z"/></g></g></g></g></g></svg>