<svg xmlns="http://www.w3.org/2000/svg" width="367.784" height="141.289" viewBox="0 0 367.784 141.289">
  <g id="组_57" data-name="组 57" transform="translate(-1180.552 -1620.537)">
    <g id="组_47" data-name="组 47" transform="translate(1180.552 1620.537)">
      <g id="组_30" data-name="组 30" transform="translate(0 17.52)" opacity="0.4">
        <path id="路径_35" data-name="路径 35" d="M1241.583,1757.809a61.409,61.409,0,0,1-6.419-.338,60.944,60.944,0,1,1,6.419.338Zm-.09-120.819a59.9,59.9,0,1,0,6.3.331A59.918,59.918,0,0,0,1241.493,1636.989Z" transform="translate(-1180.552 -1635.845)" fill="#40769b"/>
      </g>
      <g id="组_31" data-name="组 31" transform="translate(5.853 16.428)" opacity="0.438">
        <path id="路径_36" data-name="路径 36" d="M1242.963,1758.054a57.636,57.636,0,0,1-6.043-.311c-32.567-3.422-54.126-41.3-50.942-71.6,3.424-32.567,41.3-54.132,71.6-50.943,32.568,3.423,54.128,41.3,50.944,71.6h0C1305.318,1737.233,1272.034,1758.054,1242.963,1758.054Zm8.578-121.945a72.309,72.309,0,0,0-39.591,12.514c-14.238,9.665-23.263,23.388-24.763,37.651-3.124,29.739,17.974,66.91,49.861,70.261,29.726,3.138,66.907-17.973,70.26-49.861,3.125-29.738-17.974-66.909-49.861-70.26A56.561,56.561,0,0,0,1251.54,1636.109Z" transform="translate(-1185.666 -1634.891)" fill="#4c7a92"/>
      </g>
      <g id="组_32" data-name="组 32" transform="translate(11.695 15.331)" opacity="0.475">
        <path id="路径_37" data-name="路径 37" d="M1244.48,1758.307a55.932,55.932,0,0,1-5.8-.292c-13.4-1.41-26.541-11.729-36.044-28.312-8.653-15.1-13.087-33.44-11.572-47.862,1.41-13.4,11.728-26.54,28.312-36.044,15.1-8.653,33.437-13.088,47.863-11.572,30.366,3.193,50.535,48.378,47.613,76.175-1.409,13.4-11.727,26.54-28.311,36.043C1273.4,1753.973,1257.809,1758.307,1244.48,1758.307Zm16.636-123.1c-29.42,0-66.051,20.889-68.771,46.773-1.488,14.166,2.883,32.21,11.408,47.089,9.294,16.219,22.073,26.3,35.061,27.669,14.16,1.495,32.209-2.881,47.088-11.407,16.219-9.293,26.306-22.072,27.67-35.06l.641.066-.641-.066c3.173-30.177-18.792-71.851-46.467-74.759A57.154,57.154,0,0,0,1261.116,1635.2Z" transform="translate(-1190.771 -1633.932)" fill="#577f89"/>
      </g>
      <g id="组_33" data-name="组 33" transform="translate(17.535 14.234)" opacity="0.512">
        <path id="路径_38" data-name="路径 38" d="M1246.24,1758.576a55.581,55.581,0,0,1-5.8-.288c-12.279-1.291-24.509-12.713-33.552-31.336-7.954-16.379-12.168-35.776-10.734-49.417,1.291-12.278,12.713-24.508,31.334-33.551,16.38-7.954,35.769-12.163,49.418-10.734,26.913,2.829,47.261,52.44,44.285,80.751C1318.545,1739.157,1275.031,1758.576,1246.24,1758.576Zm25.052-124.246c-12.831,0-29.137,4.039-43.213,10.875-18.191,8.835-29.335,20.671-30.576,32.473-1.41,13.405,2.752,32.513,10.6,48.68,8.834,18.193,20.67,29.336,32.473,30.577,13.4,1.413,32.516-2.754,48.68-10.6,18.191-8.833,29.336-20.669,30.576-32.472l.676.072-.676-.072c1.41-13.405-2.753-32.514-10.6-48.681-8.834-18.19-20.67-29.335-32.472-30.576A52.538,52.538,0,0,0,1271.292,1634.33Z" transform="translate(-1195.874 -1632.974)" fill="#63837f"/>
      </g>
      <g id="组_34" data-name="组 34" transform="translate(23.382 13.139)" opacity="0.55">
        <path id="路径_39" data-name="路径 39" d="M1247.453,1758.814a50.576,50.576,0,0,1-5.259-.255c-25.506-2.68-43.589-60.3-40.957-85.329,2.68-25.506,60.3-43.592,85.329-40.957,25.506,2.68,43.589,60.3,40.957,85.329C1325.017,1741.453,1274.472,1758.814,1247.453,1758.814Zm33.9-125.363c-12.522,0-30.206,3.857-45.21,10.042-20.155,8.31-32.359,19.2-33.483,29.887-1.306,12.437,2.723,33.112,9.8,50.275,8.31,20.155,19.2,32.359,29.887,33.483,12.433,1.3,33.112-2.723,50.275-9.8,20.155-8.309,32.359-19.2,33.483-29.887,1.306-12.437-2.723-33.112-9.8-50.275-8.31-20.155-19.2-32.359-29.887-33.483A48.988,48.988,0,0,0,1281.351,1633.451Z" transform="translate(-1200.983 -1632.017)" fill="#6e8776"/>
      </g>
      <g id="组_35" data-name="组 35" transform="translate(29.236 12.056)" opacity="0.587">
        <path id="路径_40" data-name="路径 40" d="M1248.934,1759.064a47.866,47.866,0,0,1-4.983-.236c-23.407-2.46-39.995-67.4-37.629-89.905,2.459-23.408,67.406-39.988,89.906-37.629,13.988,1.47,23.9,24.052,28.564,37.384,6.5,18.577,10.312,40.665,9.064,52.521-1.469,13.989-24.052,23.9-37.384,28.564C1280.255,1755.437,1261.36,1759.064,1248.934,1759.064Zm42.266-126.506c-12.24,0-30.925,3.6-47,9.22-22.115,7.735-35.377,17.687-36.387,27.3-1.226,11.663,2.555,33.477,8.99,51.87,7.736,22.114,17.687,35.375,27.3,36.386,11.668,1.225,33.476-2.553,51.868-8.989,22.113-7.737,35.376-17.688,36.387-27.3h0c1.226-11.662-2.556-33.476-8.99-51.87-7.735-22.113-17.688-35.375-27.3-36.387A47.434,47.434,0,0,0,1291.2,1632.558Z" transform="translate(-1206.098 -1631.071)" fill="#7a8b6d"/>
      </g>
      <g id="组_36" data-name="组 36" transform="translate(35.064 10.967)" opacity="0.625">
        <path id="路径_41" data-name="路径 41" d="M1250.5,1759.32a46.247,46.247,0,0,1-4.792-.221c-12.666-1.331-21.769-25.889-26.067-40.409-5.855-19.78-9.4-43.027-8.235-54.074,2.316-22.037,74.935-36.354,94.484-34.3,22.037,2.316,36.355,74.936,34.3,94.485-1.331,12.665-25.889,21.767-40.409,26.065C1282.529,1755.974,1262.635,1759.32,1250.5,1759.32Zm50.409-127.661c-25.476,0-86,14.655-87.939,33.122-1.142,10.869,2.374,33.852,8.18,53.463,7.124,24.067,16.136,38.388,24.723,39.291,21.487,2.271,90.677-13.135,92.754-32.9,2.26-21.5-13.137-90.675-32.9-92.755A46.576,46.576,0,0,0,1300.913,1631.659Z" transform="translate(-1211.19 -1630.119)" fill="#859064"/>
      </g>
      <g id="组_37" data-name="组 37" transform="translate(40.912 9.849)" opacity="0.663">
        <path id="路径_42" data-name="路径 42" d="M1251.9,1759.57a43.542,43.542,0,0,1-4.436-.194c-11.386-1.2-19.653-27.727-23.567-43.436-5.14-20.625-8.462-45.58-7.406-55.626,1.2-11.386,27.726-19.653,43.435-23.567,20.625-5.141,45.584-8.467,55.626-7.407,11.387,1.2,19.653,27.727,23.567,43.436,5.14,20.625,8.463,45.579,7.407,55.626-1.2,11.386-27.727,19.653-43.435,23.567C1285.052,1756.465,1263.695,1759.57,1251.9,1759.57Zm59.34-128.772c-10.657,0-31,2.583-50.915,7.546-26.02,6.483-41.4,14.553-42.2,22.142-.906,8.623,1.653,32.126,7.367,55.057,6.483,26.018,14.554,41.4,22.143,42.2,8.622.906,32.126-1.654,55.056-7.367,26.018-6.483,41.4-14.553,42.2-22.142.906-8.625-1.651-32.128-7.366-55.058-6.483-26.017-14.554-41.4-22.143-42.2A40.712,40.712,0,0,0,1311.244,1630.8Z" transform="translate(-1216.3 -1629.143)" fill="#91945b"/>
      </g>
      <g id="组_38" data-name="组 38" transform="translate(46.762 8.762)" opacity="0.7">
        <path id="路径_43" data-name="路径 43" d="M1253.327,1759.816a40.955,40.955,0,0,1-4.1-.17c-9.633-1.014-16.772-25.825-21.066-46.461-5-24.046-7.44-48.98-6.578-57.179,1.012-9.633,25.823-16.772,46.459-21.066,24.046-5,48.988-7.436,57.179-6.578,9.634,1.013,16.773,25.823,21.066,46.46,5,24.045,7.441,48.979,6.58,57.178-1.012,9.633-25.824,16.774-46.459,21.067C1285.546,1757.407,1264.02,1759.816,1253.327,1759.816ZM1321.04,1629.9c-10.541,0-31.9,2.4-52.65,6.718-27.969,5.818-44.406,12.948-45.1,19.563-.848,8.072,1.582,32.76,6.551,56.65,5.818,27.969,12.951,44.408,19.565,45.1,16.6,1.742,100.136-10.738,101.753-26.118.849-8.071-1.582-32.76-6.551-56.65-5.819-27.967-12.951-44.406-19.566-45.1A39.446,39.446,0,0,0,1321.04,1629.9Z" transform="translate(-1221.411 -1628.193)" fill="#9d9852"/>
      </g>
      <g id="组_39" data-name="组 39" transform="translate(52.605 7.667)" opacity="0.738">
        <path id="路径_44" data-name="路径 44" d="M1254.77,1760.066c-1.554,0-2.833-.049-3.787-.149-8.478-.891-14.775-27.4-18.563-49.483-4.234-24.667-6.529-51.352-5.755-58.734.893-8.477,27.4-14.774,49.485-18.562,24.667-4.234,51.342-6.525,58.733-5.754,8.477.893,14.774,27.4,18.563,49.485,4.234,24.667,6.529,51.354,5.753,58.733-.892,8.477-27.4,14.774-49.484,18.563C1288.24,1757.85,1265.235,1760.066,1254.77,1760.066Zm76.237-131.049c-10.315,0-33.166,2.212-54.554,5.883-29.474,5.057-47.421,11.407-48.007,16.987-.763,7.264,1.528,33.716,5.737,58.243,5.057,29.475,11.408,47.422,16.989,48.007,7.264.771,33.715-1.528,58.242-5.736,29.475-5.057,47.422-11.408,48.007-16.989.763-7.264-1.527-33.715-5.736-58.243-5.057-29.475-11.408-47.421-16.989-48.007A36.865,36.865,0,0,0,1331.007,1629.018Z" transform="translate(-1226.517 -1627.236)" fill="#a89c48"/>
      </g>
      <g id="组_40" data-name="组 40" transform="translate(58.445 6.566)" opacity="0.775">
        <path id="路径_45" data-name="路径 45" d="M1256.369,1760.324c-1.542,0-2.767-.045-3.628-.135-5.9-.619-11.3-18.284-16.059-52.507-3.614-25.975-5.616-53.736-4.928-60.287.619-5.9,18.285-11.3,52.507-16.059,25.976-3.614,53.74-5.617,60.287-4.927,5.9.619,11.3,18.284,16.059,52.507,3.614,25.974,5.616,53.735,4.928,60.285-.619,5.9-18.285,11.3-52.507,16.06C1290.467,1758.4,1266.556,1760.324,1256.369,1760.324Zm84.611-132.192c-9.975,0-34.239,1.954-56.463,5.046-46.517,6.471-50.73,12.667-50.914,14.411-.664,6.314,1.384,34.413,4.92,59.837,6.472,46.516,12.668,50.73,14.412,50.914,6.308.659,34.412-1.384,59.836-4.921,46.517-6.471,50.73-12.668,50.915-14.413.663-6.313-1.384-34.411-4.921-59.835-6.471-46.516-12.668-50.73-14.412-50.914C1343.559,1628.175,1342.417,1628.132,1340.98,1628.132Z" transform="translate(-1231.62 -1626.274)" fill="#b4a13f"/>
      </g>
      <g id="组_41" data-name="组 41" transform="translate(64.298 5.479)" opacity="0.813">
        <path id="路径_46" data-name="路径 46" d="M1257.687,1760.567c-1.437,0-2.516-.035-3.187-.106-1.864-.2-7.536-.791-13.556-55.53-3.145-28.6-4.635-56.791-4.1-61.84.2-1.864.792-7.536,55.531-13.557,28.6-3.145,56.793-4.633,61.84-4.1,1.864.2,7.536.792,13.556,55.532,3.145,28.6,4.634,56.791,4.1,61.84-.2,1.864-.792,7.536-55.531,13.555C1291.545,1759.084,1267.053,1760.567,1257.687,1760.567Zm93.383-133.313c-9.146,0-34.027,1.51-58.489,4.2-50.627,5.568-53.716,10.838-53.821,11.837-.509,4.853,1.022,33.416,4.1,61.428,5.568,50.628,10.839,53.717,11.838,53.822,4.855.506,33.416-1.022,61.427-4.1,50.628-5.569,53.717-10.839,53.822-11.838.509-4.851-1.023-33.415-4.1-61.428-5.568-50.628-10.839-53.717-11.838-53.822C1353.393,1627.284,1352.4,1627.253,1351.07,1627.253Z" transform="translate(-1236.734 -1625.324)" fill="#bfa536"/>
      </g>
      <g id="组_42" data-name="组 42" transform="translate(70.14 4.383)" opacity="0.85">
        <path id="路径_47" data-name="路径 47" d="M1259.191,1760.82c-1.383,0-2.379-.03-2.934-.087-1.7-.18-6.205-.652-11.052-58.553-2.433-29.076-3.725-59.161-3.28-63.4.178-1.7.651-6.205,58.553-11.051,29.076-2.432,59.161-3.722,63.4-3.281,1.7.18,6.205.652,11.05,58.554,2.433,29.075,3.725,59.161,3.28,63.4h0c-.178,1.7-.651,6.205-58.552,11.05C1294.387,1759.566,1268.358,1760.82,1259.191,1760.82Zm101.663-134.46c-8.944,0-34.719,1.245-59.823,3.336-54.505,4.541-57.01,8.827-57.116,9.3-.433,4.115.851,33.813,3.252,62.629,4.542,54.505,8.827,57.01,9.3,57.115,4.114.433,33.812-.851,62.628-3.251,54.458-4.537,57-8.82,57.116-9.3.433-4.128-.853-33.819-3.252-62.629-4.54-54.506-8.826-57.012-9.3-57.117C1363.131,1626.388,1362.177,1626.36,1360.855,1626.36Z" transform="translate(-1241.838 -1624.366)" fill="#cba92d"/>
      </g>
      <g id="组_43" data-name="组 43" transform="translate(75.984 3.288)" opacity="0.887">
        <path id="路径_48" data-name="路径 48" d="M1260.679,1761.07c-1.329,0-2.239-.021-2.664-.065-1.589-.167-4.891-.514-8.545-61.576-1.795-29.982-2.8-61.689-2.458-64.951.166-1.589.514-4.891,61.576-8.545,29.984-1.794,61.689-2.8,64.951-2.458,1.587.166,4.891.514,8.543,61.576,1.8,29.982,2.8,61.689,2.46,64.95-.167,1.589-.514,4.893-61.576,8.545C1296.9,1760.106,1269.525,1761.07,1260.679,1761.07Zm-2.312-2.116c8.69.747,119.049-3.971,124.123-9.3.734-8.691-3.971-119.05-9.3-124.123-8.7-.738-119.049,3.971-124.123,9.3C1248.327,1643.521,1253.034,1753.88,1258.367,1758.954Z" transform="translate(-1246.945 -1623.41)" fill="#d6ad24"/>
      </g>
      <g id="组_44" data-name="组 44" transform="translate(81.828 2.191)" opacity="0.925">
        <path id="路径_49" data-name="路径 49" d="M1262.213,1761.324c-1.3,0-2.139-.016-2.44-.047-1.515-.16-3.591-.378-6.039-64.6-1.161-30.469-1.877-64.2-1.635-66.507.159-1.515.378-3.591,64.6-6.039,30.468-1.161,64.209-1.872,66.507-1.637,1.515.16,3.591.378,6.039,64.6,1.162,30.468,1.877,64.2,1.637,66.506-.16,1.515-.379,3.593-64.6,6.039C1299.8,1760.65,1270.849,1761.324,1262.213,1761.324Zm-1.84-2.161c4.049.12,33.687-.468,63.734-1.587,53.623-2,63.056-3.888,64.657-4.576.129-4.049-.467-33.687-1.589-63.733-2-53.623-3.887-63.057-4.574-64.657-4.039-.127-33.684.467-63.733,1.589-53.623,2-63.056,3.887-64.657,4.574-.129,4.049.468,33.686,1.589,63.733C1257.8,1748.131,1259.687,1757.563,1260.372,1759.163Z" transform="translate(-1252.051 -1622.452)" fill="#e2b21a"/>
      </g>
      <g id="组_45" data-name="组 45" transform="translate(87.673 1.097)" opacity="0.962">
        <path id="路径_50" data-name="路径 50" d="M1263.751,1761.573c-1.29,0-2.059-.008-2.22-.025-1.253-.132-1.674-.176-2.424-21.874-.387-11.242-.76-26.634-1.108-45.744-.573-31.394-.943-66.852-.816-68.064.132-1.252.176-1.673,21.875-2.422,11.242-.388,26.632-.761,45.743-1.109,31.4-.572,66.849-.941,68.063-.815,1.253.132,1.674.176,2.424,21.875.386,11.242.76,26.632,1.108,45.743.573,31.394.943,66.853.816,68.063-.132,1.252-.176,1.675-21.875,2.423-11.242.387-26.633.761-45.743,1.109C1302.387,1761.23,1272.129,1761.573,1263.751,1761.573Zm-4.366-134.81c.025,9.735,1.2,122.6,3.041,132.582,9.737-.024,122.6-1.2,132.582-3.039-.024-9.838-1.2-122.607-3.039-132.584C1382.232,1623.747,1269.368,1624.923,1259.385,1626.763Z" transform="translate(-1257.158 -1621.495)" fill="#edb611"/>
      </g>
      <g id="组_46" data-name="组 46" transform="translate(93.517)">
        <path id="路径_51" data-name="路径 51" d="M1403.553,1761.826H1262.264V1620.537h141.289Zm-139-2.289h136.711V1622.826H1264.553Z" transform="translate(-1262.264 -1620.537)" fill="#f9ba08"/>
      </g>
    </g>
    <g id="组_55" data-name="组 55" transform="translate(1420.057 1651.512)">
      <g id="组_48" data-name="组 48" transform="translate(0 28.926)" opacity="0.4">
        <path id="路径_52" data-name="路径 52" d="M1409.583,1753.693h-19.759v-80.816h19.759Zm-18.615-1.145h17.47v-78.527h-17.47Z" transform="translate(-1389.824 -1672.877)" fill="#7c44a0"/>
      </g>
      <g id="组_49" data-name="组 49" transform="translate(2.552 24.105)" opacity="0.5">
        <path id="路径_53" data-name="路径 53" d="M1416.457,1746.1h-24.4v-77.438h24.4Zm-23.069-1.334h21.735V1670h-21.735Z" transform="translate(-1392.054 -1668.664)" fill="#8d4c8b"/>
      </g>
      <g id="组_50" data-name="组 50" transform="translate(5.103 19.283)" opacity="0.6">
        <path id="路径_54" data-name="路径 54" d="M1423.332,1738.513h-29.049v-74.062h29.049Zm-27.522-1.527h26v-71.009h-26Z" transform="translate(-1394.283 -1664.451)" fill="#9e5477"/>
      </g>
      <g id="组_51" data-name="组 51" transform="translate(7.657 14.463)" opacity="0.7">
        <path id="路径_55" data-name="路径 55" d="M1430.206,1730.922h-33.692v-70.683h33.692Zm-31.975-1.717h30.259v-67.25h-30.259Z" transform="translate(-1396.514 -1660.239)" fill="#af5d62"/>
      </g>
      <g id="组_52" data-name="组 52" transform="translate(10.209 9.641)" opacity="0.8">
        <path id="路径_56" data-name="路径 56" d="M1437.08,1723.332h-38.336v-67.306h38.336Zm-36.429-1.907h34.523v-63.493h-34.523Z" transform="translate(-1398.744 -1656.026)" fill="#c0654d"/>
      </g>
      <g id="组_53" data-name="组 53" transform="translate(12.76 4.819)" opacity="0.9">
        <path id="路径_57" data-name="路径 57" d="M1443.956,1715.743h-42.983v-63.93h42.983Zm-40.884-2.1h38.785v-59.732h-38.785Z" transform="translate(-1400.973 -1651.813)" fill="#d16d39"/>
      </g>
      <g id="组_54" data-name="组 54" transform="translate(15.312)">
        <path id="路径_58" data-name="路径 58" d="M1450.829,1708.154H1403.2V1647.6h47.626Zm-45.337-2.289h43.048v-55.974h-43.048Z" transform="translate(-1403.203 -1647.602)" fill="#e27524"/>
      </g>
    </g>
    <g id="组_56" data-name="组 56" transform="translate(1207.99 1678.032)">
      <path id="路径_59" data-name="路径 59" d="M1204.526,1712.02V1671.37h11.022q21.44,0,21.441,19.814,0,9.5-5.774,15.168t-16.087,5.669Zm4.461-36.557v32.463h6.194q8.108,0,12.622-4.357t4.514-12.255q0-15.851-16.874-15.851Z" transform="translate(-1204.526 -1670.688)" fill="#efefef"/>
      <path id="路径_60" data-name="路径 60" d="M1269.81,1675.464h-15.981v14.329h14.8v4.094h-14.8v18.134h-4.461V1671.37h20.442Z" transform="translate(-1198.048 -1670.688)" fill="#efefef"/>
      <path id="路径_61" data-name="路径 61" d="M1287.871,1712.02h-4.461V1671.37h4.461Z" transform="translate(-1193.13 -1670.688)" fill="#efefef"/>
      <path id="路径_62" data-name="路径 62" d="M1338.662,1712.02h-5.616l-21.2-32.83a18.823,18.823,0,0,1-1.26-2.44h-.158a42.728,42.728,0,0,1,.211,5.458v29.812h-4.489V1671.37h5.932l20.627,32.489q1.574,2.518,1.654,2.781h.1a47.227,47.227,0,0,1-.288-6.115V1671.37h4.487Z" transform="translate(-1189.845 -1670.688)" fill="#efefef"/>
      <path id="路径_63" data-name="路径 63" d="M1385.124,1712.02h-4.96l-4.409-11.548H1358.33l-4.12,11.548h-4.987l15.64-40.651h4.54Zm-10.891-15.64-6.507-17.557a18.952,18.952,0,0,1-.6-2.677h-.132a12.844,12.844,0,0,1-.656,2.677l-6.43,17.557Z" transform="translate(-1183.621 -1670.688)" fill="#efefef"/>
      <path id="路径_64" data-name="路径 64" d="M1427.8,1712.02h-5.616l-21.2-32.83a18.807,18.807,0,0,1-1.26-2.44h-.157a43.048,43.048,0,0,1,.209,5.458v29.812h-4.487V1671.37h5.931l20.627,32.489q1.574,2.518,1.654,2.781h.105a47.033,47.033,0,0,1-.289-6.115V1671.37h4.489Z" transform="translate(-1176.968 -1670.688)" fill="#efefef"/>
      <path id="路径_65" data-name="路径 65" d="M1470.377,1710.374a23.443,23.443,0,0,1-11.206,2.415q-8.554,0-13.79-5.642t-5.236-14.591q0-9.4,5.747-15.589t14.932-6.193a23.624,23.624,0,0,1,9.552,1.679v4.83a19.667,19.667,0,0,0-9.657-2.415,14.663,14.663,0,0,0-11.559,4.881q-4.317,4.88-4.317,12.545,0,7.269,4.041,11.861a13.715,13.715,0,0,0,10.838,4.593,20.19,20.19,0,0,0,10.654-2.729Z" transform="translate(-1170.486 -1670.774)" fill="#efefef"/>
      <path id="路径_66" data-name="路径 66" d="M1504.606,1712.02h-21.362V1671.37h20.444v4.094h-15.983v13.83h14.775v4.094h-14.775v14.539h16.9Z" transform="translate(-1164.26 -1670.688)" fill="#efefef"/>
    </g>
  </g>
</svg>
