<svg xmlns="http://www.w3.org/2000/svg" width="232.825" height="89.443" viewBox="0 0 232.825 89.443">
  <g id="组_59" data-name="组 59" transform="translate(-1180.552 -1620.537)">
    <g id="组_47" data-name="组 47" transform="translate(1180.552 1620.537)">
      <g id="组_30" data-name="组 30" transform="translate(0 11.091)" opacity="0.4">
        <path id="路径_35" data-name="路径 35" d="M1219.188,1713.054a38.841,38.841,0,0,1-4.064-.214,38.578,38.578,0,1,1,4.064.214Zm-.057-76.484a37.92,37.92,0,1,0,3.988.209A37.931,37.931,0,0,0,1219.13,1636.57Z" transform="translate(-1180.552 -1635.845)" fill="#40769b"/>
      </g>
      <g id="组_31" data-name="组 31" transform="translate(3.705 10.4)" opacity="0.438">
        <path id="路径_36" data-name="路径 36" d="M1221.938,1712.859a36.5,36.5,0,0,1-3.826-.2c-20.616-2.166-34.265-26.144-32.249-45.324,2.168-20.617,26.145-34.268,45.324-32.249,20.617,2.167,34.265,26.145,32.25,45.325h0C1261.411,1699.678,1240.341,1712.859,1221.938,1712.859Zm5.43-77.2a45.775,45.775,0,0,0-25.063,7.922c-9.014,6.118-14.727,14.806-15.676,23.835-1.978,18.826,11.378,42.357,31.565,44.479,18.818,1.987,42.355-11.378,44.478-31.564,1.979-18.825-11.378-42.357-31.564-44.478A35.8,35.8,0,0,0,1227.368,1635.662Z" transform="translate(-1185.666 -1634.891)" fill="#4c7a92"/>
      </g>
      <g id="组_32" data-name="组 32" transform="translate(7.403 9.705)" opacity="0.475">
        <path id="路径_37" data-name="路径 37" d="M1224.771,1712.667a35.411,35.411,0,0,1-3.672-.185c-8.485-.893-16.8-7.425-22.818-17.923-5.478-9.559-8.285-21.169-7.325-30.3.893-8.485,7.424-16.8,17.923-22.818,9.56-5.478,21.167-8.286,30.3-7.326,19.223,2.021,31.991,30.625,30.141,48.222-.892,8.485-7.424,16.8-17.922,22.817C1243.08,1709.924,1233.209,1712.667,1224.771,1712.667Zm10.531-77.931c-18.624,0-41.813,13.224-43.535,29.61-.942,8.968,1.825,20.391,7.222,29.81,5.884,10.268,13.974,16.652,22.2,17.516,8.964.946,20.39-1.824,29.809-7.221,10.268-5.883,16.653-13.973,17.516-22.194l.406.042-.406-.042c2.008-19.1-11.9-45.485-29.416-47.326A36.179,36.179,0,0,0,1235.3,1634.736Z" transform="translate(-1190.771 -1633.932)" fill="#577f89"/>
      </g>
      <g id="组_33" data-name="组 33" transform="translate(11.101 9.011)" opacity="0.512">
        <path id="路径_38" data-name="路径 38" d="M1227.758,1712.486a35.19,35.19,0,0,1-3.673-.182c-7.773-.817-15.515-8.048-21.24-19.837-5.035-10.368-7.7-22.648-6.8-31.283.817-7.772,8.048-15.515,19.836-21.24,10.369-5.035,22.644-7.7,31.284-6.8,17.037,1.791,29.918,33.2,28.035,51.12C1273.531,1700.193,1245.984,1712.486,1227.758,1712.486Zm15.859-78.653c-8.122,0-18.445,2.557-27.356,6.884-11.516,5.593-18.57,13.086-19.356,20.557-.892,8.486,1.742,20.582,6.713,30.817,5.592,11.517,13.085,18.571,20.557,19.356,8.483.895,20.584-1.743,30.817-6.713,11.516-5.592,18.571-13.084,19.356-20.556l.428.046-.428-.046c.893-8.486-1.743-20.583-6.713-30.817-5.592-11.515-13.085-18.571-20.556-19.356A33.267,33.267,0,0,0,1243.617,1633.833Z" transform="translate(-1195.874 -1632.974)" fill="#63837f"/>
      </g>
      <g id="组_34" data-name="组 34" transform="translate(14.802 8.318)" opacity="0.55">
        <path id="路径_39" data-name="路径 39" d="M1230.4,1712.285a32.018,32.018,0,0,1-3.329-.161c-16.146-1.7-27.594-38.17-25.928-54.017,1.7-16.146,38.171-27.6,54.017-25.928,16.146,1.7,27.594,38.17,25.928,54.018C1279.5,1701.3,1247.5,1712.285,1230.4,1712.285Zm21.459-79.361c-7.927,0-19.122,2.442-28.62,6.357-12.759,5.261-20.485,12.156-21.2,18.92-.827,7.873,1.724,20.961,6.2,31.827,5.26,12.759,12.156,20.485,18.92,21.2,7.871.823,20.961-1.724,31.827-6.2,12.759-5.26,20.485-12.156,21.2-18.92.827-7.873-1.724-20.961-6.2-31.827-5.261-12.759-12.156-20.485-18.92-21.2A31.008,31.008,0,0,0,1251.86,1632.925Z" transform="translate(-1200.983 -1632.017)" fill="#6e8776"/>
      </g>
      <g id="组_35" data-name="组 35" transform="translate(18.508 7.632)" opacity="0.587">
        <path id="路径_40" data-name="路径 40" d="M1233.215,1712.1a30.311,30.311,0,0,1-3.155-.149c-14.818-1.557-25.318-42.666-23.821-56.914,1.557-14.818,42.671-25.314,56.915-23.821,8.855.93,15.13,15.226,18.082,23.666,4.115,11.76,6.528,25.743,5.738,33.248-.93,8.856-15.226,15.131-23.666,18.082C1253.043,1709.8,1241.081,1712.1,1233.215,1712.1Zm26.757-80.084c-7.749,0-19.577,2.276-29.752,5.837-14,4.9-22.4,11.2-23.035,17.283-.776,7.384,1.617,21.192,5.691,32.836,4.9,14,11.2,22.394,17.284,23.034,7.386.775,21.192-1.616,32.835-5.69,14-4.9,22.394-11.2,23.035-17.284h0c.776-7.383-1.618-21.192-5.691-32.836-4.9-14-11.2-22.394-17.284-23.035A30.045,30.045,0,0,0,1259.972,1632.012Z" transform="translate(-1206.098 -1631.071)" fill="#7a8b6d"/>
      </g>
      <g id="组_36" data-name="组 36" transform="translate(22.197 6.943)" opacity="0.625">
        <path id="路径_41" data-name="路径 41" d="M1236.077,1711.91a29.265,29.265,0,0,1-3.034-.14c-8.018-.843-13.781-16.389-16.5-25.581-3.707-12.521-5.948-27.238-5.213-34.231,1.466-13.95,47.438-23.014,59.813-21.715,13.95,1.466,23.015,47.438,21.714,59.813-.843,8.017-16.389,13.779-25.581,16.5C1256.351,1709.791,1243.757,1711.91,1236.077,1711.91Zm31.911-80.815c-16.127,0-54.44,9.277-55.669,20.968-.723,6.881,1.5,21.43,5.178,33.844,4.51,15.236,10.215,24.3,15.651,24.873,13.6,1.438,57.4-8.315,58.717-20.828,1.431-13.612-8.317-57.4-20.828-58.718A29.474,29.474,0,0,0,1267.989,1631.094Z" transform="translate(-1211.19 -1630.119)" fill="#859064"/>
      </g>
      <g id="组_37" data-name="组 37" transform="translate(25.899 6.235)" opacity="0.663">
        <path id="路径_42" data-name="路径 42" d="M1238.839,1711.709a27.582,27.582,0,0,1-2.808-.123c-7.208-.758-12.441-17.553-14.919-27.5-3.254-13.056-5.357-28.854-4.688-35.214.758-7.208,17.552-12.441,27.5-14.919,13.056-3.254,28.857-5.36,35.214-4.689,7.209.758,12.441,17.552,14.919,27.5,3.254,13.056,5.358,28.853,4.689,35.214-.758,7.208-17.552,12.441-27.5,14.919C1259.823,1709.744,1246.3,1711.709,1238.839,1711.709Zm37.565-81.519c-6.747,0-19.625,1.635-32.232,4.777-16.472,4.1-26.207,9.213-26.713,14.017-.574,5.459,1.046,20.337,4.664,34.854,4.1,16.471,9.213,26.208,14.018,26.712,5.458.574,20.338-1.047,34.853-4.664,16.471-4.1,26.207-9.213,26.712-14.017.574-5.46-1.045-20.338-4.663-34.854-4.1-16.47-9.213-26.207-14.018-26.712A25.767,25.767,0,0,0,1276.4,1630.191Z" transform="translate(-1216.3 -1629.143)" fill="#91945b"/>
      </g>
      <g id="组_38" data-name="组 38" transform="translate(29.602 5.547)" opacity="0.7">
        <path id="路径_43" data-name="路径 43" d="M1241.615,1711.517a25.945,25.945,0,0,1-2.6-.107c-6.1-.642-10.618-16.348-13.336-29.412-3.167-15.222-4.71-31.006-4.164-36.2.64-6.1,16.347-10.618,29.411-13.336,15.223-3.166,31.012-4.707,36.2-4.164,6.1.641,10.618,16.347,13.336,29.411,3.168,15.222,4.711,31.006,4.165,36.2-.641,6.1-16.348,10.619-29.411,13.337C1262.011,1709.991,1248.384,1711.517,1241.615,1711.517Zm42.866-82.241c-6.673,0-20.192,1.519-33.33,4.253-17.705,3.683-28.111,8.2-28.551,12.385-.537,5.11,1,20.739,4.147,35.862,3.683,17.705,8.2,28.112,12.385,28.553,10.511,1.1,63.391-6.8,64.414-16.534.537-5.109-1-20.739-4.147-35.862-3.683-17.7-8.2-28.111-12.386-28.551A25,25,0,0,0,1284.481,1629.276Z" transform="translate(-1221.411 -1628.193)" fill="#9d9852"/>
      </g>
      <g id="组_39" data-name="组 39" transform="translate(33.301 4.853)" opacity="0.738">
        <path id="路径_44" data-name="路径 44" d="M1244.4,1711.324c-.984,0-1.793-.031-2.4-.094-5.367-.564-9.354-17.346-11.751-31.325-2.68-15.615-4.133-32.508-3.643-37.181.565-5.366,17.347-9.353,31.326-11.751,15.615-2.681,32.5-4.13,37.181-3.643,5.366.565,9.353,17.347,11.751,31.326,2.68,15.615,4.133,32.509,3.642,37.181-.564,5.366-17.346,9.353-31.325,11.751C1265.591,1709.921,1251.028,1711.324,1244.4,1711.324Zm48.261-82.96c-6.53,0-21,1.4-34.536,3.724-18.658,3.2-30.02,7.221-30.391,10.754-.483,4.6.967,21.344,3.632,36.871,3.2,18.659,7.222,30.021,10.755,30.391,4.6.489,21.343-.967,36.87-3.631,18.659-3.2,30.021-7.222,30.391-10.754.483-4.6-.967-21.343-3.631-36.871-3.2-18.659-7.222-30.02-10.755-30.391A23.3,23.3,0,0,0,1292.664,1628.364Z" transform="translate(-1226.517 -1627.236)" fill="#a89c48"/>
      </g>
      <g id="组_40" data-name="组 40" transform="translate(36.998 4.157)" opacity="0.775">
        <path id="路径_45" data-name="路径 45" d="M1247.287,1711.134c-.976,0-1.752-.028-2.3-.085-3.732-.392-7.153-11.575-10.166-33.24-2.288-16.443-3.555-34.017-3.12-38.165.392-3.732,11.575-7.153,33.24-10.166,16.444-2.288,34.02-3.556,38.165-3.119,3.732.392,7.153,11.575,10.166,33.24,2.288,16.443,3.555,34.017,3.12,38.163-.392,3.733-11.575,7.153-33.24,10.167C1268.873,1709.917,1253.736,1711.134,1247.287,1711.134Zm53.563-83.684c-6.315,0-21.675,1.237-35.743,3.194-29.448,4.1-32.114,8.019-32.231,9.123-.42,4,.876,21.785,3.115,37.88,4.1,29.447,8.02,32.114,9.124,32.231,3.994.417,21.784-.876,37.879-3.115,29.447-4.1,32.114-8.02,32.232-9.124.419-4-.876-21.784-3.115-37.878-4.1-29.447-8.02-32.114-9.124-32.231C1302.483,1627.477,1301.76,1627.45,1300.85,1627.45Z" transform="translate(-1231.62 -1626.274)" fill="#b4a13f"/>
      </g>
      <g id="组_41" data-name="组 41" transform="translate(40.704 3.469)" opacity="0.813">
        <path id="路径_46" data-name="路径 46" d="M1250,1710.939c-.91,0-1.593-.022-2.018-.067-1.18-.124-4.771-.5-8.582-35.153-1.991-18.1-2.934-35.951-2.6-39.148.124-1.18.5-4.771,35.154-8.583,18.1-1.991,35.953-2.933,39.148-2.6,1.18.124,4.771.5,8.582,35.154,1.991,18.1,2.934,35.951,2.6,39.148-.124,1.18-.5,4.771-35.154,8.581C1271.432,1710,1255.927,1710.939,1250,1710.939Zm59.116-84.394c-5.79,0-21.541.956-37.026,2.659-32.049,3.525-34,6.861-34.071,7.493-.323,3.072.647,21.154,2.6,38.887,3.525,32.05,6.862,34.005,7.494,34.072,3.073.32,21.154-.647,38.886-2.6,32.05-3.525,34.005-6.862,34.072-7.494.322-3.071-.648-21.153-2.6-38.887-3.525-32.05-6.862-34.005-7.494-34.072C1310.585,1626.565,1309.954,1626.546,1309.114,1626.546Z" transform="translate(-1236.734 -1625.324)" fill="#bfa536"/>
      </g>
      <g id="组_42" data-name="组 42" transform="translate(44.402 2.774)" opacity="0.85">
        <path id="路径_47" data-name="路径 47" d="M1252.823,1710.748c-.875,0-1.506-.019-1.858-.055-1.074-.114-3.928-.413-7-37.067-1.54-18.407-2.358-37.452-2.077-40.132.113-1.074.412-3.928,37.067-7,18.407-1.54,37.452-2.356,40.133-2.077,1.074.114,3.928.413,7,37.068,1.54,18.406,2.358,37.452,2.076,40.133h0c-.113,1.074-.412,3.928-37.066,7C1275.1,1709.954,1258.626,1710.748,1252.823,1710.748Zm64.358-85.12c-5.662,0-21.979.788-37.87,2.112-34.5,2.875-36.09,5.588-36.157,5.888-.274,2.605.539,21.405,2.059,39.647,2.875,34.5,5.588,36.09,5.888,36.156,2.6.274,21.4-.539,39.646-2.058,34.475-2.872,36.087-5.584,36.157-5.886.274-2.613-.54-21.409-2.059-39.647-2.874-34.505-5.587-36.091-5.887-36.158C1318.622,1625.646,1318.018,1625.628,1317.181,1625.628Z" transform="translate(-1241.838 -1624.366)" fill="#cba92d"/>
      </g>
      <g id="组_43" data-name="组 43" transform="translate(48.102 2.081)" opacity="0.887">
        <path id="路径_48" data-name="路径 48" d="M1255.639,1710.555c-.841,0-1.417-.013-1.687-.041-1.006-.106-3.1-.325-5.409-38.98-1.136-18.98-1.774-39.052-1.556-41.117.1-1.006.325-3.1,38.98-5.409,18.981-1.136,39.052-1.771,41.117-1.556,1,.1,3.1.325,5.408,38.98,1.137,18.98,1.774,39.052,1.557,41.116-.106,1.006-.325,3.1-38.98,5.409C1278.567,1709.945,1261.239,1710.555,1255.639,1710.555Zm-1.463-1.34c5.5.473,75.364-2.514,78.576-5.89.464-5.5-2.514-75.364-5.89-78.576-5.505-.467-75.364,2.514-78.576,5.89C1247.82,1636.141,1250.8,1706,1254.176,1709.216Z" transform="translate(-1246.945 -1623.41)" fill="#d6ad24"/>
      </g>
      <g id="组_44" data-name="组 44" transform="translate(51.801 1.387)" opacity="0.925">
        <path id="路径_49" data-name="路径 49" d="M1258.484,1710.365c-.823,0-1.354-.01-1.545-.03-.959-.1-2.274-.239-3.823-40.893-.735-19.288-1.188-40.644-1.035-42.1.1-.959.239-2.273,40.893-3.823,19.288-.735,40.647-1.185,42.1-1.036.959.1,2.274.239,3.823,40.894.736,19.288,1.188,40.643,1.036,42.1-.1.959-.24,2.274-40.894,3.823C1282.277,1709.938,1263.951,1710.365,1258.484,1710.365Zm-1.165-1.368c2.563.076,21.326-.3,40.347-1,33.946-1.267,39.917-2.461,40.931-2.9.082-2.563-.3-21.326-1.006-40.346-1.267-33.946-2.46-39.918-2.9-40.931-2.557-.081-21.324.3-40.346,1.005-33.946,1.267-39.917,2.46-40.931,2.9-.082,2.563.3,21.325,1.006,40.346C1255.691,1702.012,1256.885,1707.984,1257.319,1709Z" transform="translate(-1252.051 -1622.452)" fill="#e2b21a"/>
      </g>
      <g id="组_45" data-name="组 45" transform="translate(55.501 0.694)" opacity="0.962">
        <path id="路径_50" data-name="路径 50" d="M1261.332,1710.171c-.817,0-1.3-.005-1.406-.016-.793-.083-1.06-.112-1.535-13.848-.245-7.117-.481-16.861-.7-28.958-.363-19.874-.6-42.32-.516-43.088.083-.793.111-1.059,13.848-1.533,7.117-.246,16.859-.482,28.958-.7,19.875-.362,42.318-.6,43.087-.516.793.083,1.06.112,1.535,13.848.244,7.117.481,16.859.7,28.958.363,19.874.6,42.321.517,43.087-.083.793-.111,1.06-13.848,1.534-7.117.245-16.86.482-28.958.7C1285.79,1709.954,1266.635,1710.171,1261.332,1710.171Zm-2.764-85.341c.016,6.163.76,77.612,1.925,83.931,6.164-.015,77.612-.759,83.931-1.924-.015-6.228-.759-77.616-1.924-83.932C1336.336,1622.921,1264.888,1623.665,1258.568,1624.83Z" transform="translate(-1257.158 -1621.495)" fill="#edb611"/>
      </g>
      <g id="组_46" data-name="组 46" transform="translate(59.2)">
        <path id="路径_51" data-name="路径 51" d="M1351.707,1709.98h-89.443v-89.443h89.443Zm-87.994-1.449h86.545v-86.545h-86.545Z" transform="translate(-1262.264 -1620.537)" fill="#f9ba08"/>
      </g>
    </g>
    <g id="组_55" data-name="组 55" transform="translate(1332.17 1640.146)">
      <g id="组_48" data-name="组 48" transform="translate(0 18.312)" opacity="0.4">
        <path id="路径_52" data-name="路径 52" d="M1402.332,1724.037h-12.509v-51.16h12.509Zm-11.784-.724h11.06V1673.6h-11.06Z" transform="translate(-1389.824 -1672.877)" fill="#7c44a0"/>
      </g>
      <g id="组_49" data-name="组 49" transform="translate(1.616 15.259)" opacity="0.5">
        <path id="路径_53" data-name="路径 53" d="M1407.5,1717.686h-15.449v-49.022H1407.5Zm-14.6-.845h13.759v-47.333H1392.9Z" transform="translate(-1392.054 -1668.664)" fill="#8d4c8b"/>
      </g>
      <g id="组_50" data-name="组 50" transform="translate(3.231 12.207)" opacity="0.6">
        <path id="路径_54" data-name="路径 54" d="M1412.672,1711.336h-18.389v-46.885h18.389Zm-17.423-.967h16.457v-44.952h-16.457Z" transform="translate(-1394.283 -1664.451)" fill="#9e5477"/>
      </g>
      <g id="组_51" data-name="组 51" transform="translate(4.847 9.156)" opacity="0.7">
        <path id="路径_55" data-name="路径 55" d="M1417.843,1704.985h-21.329v-44.746h21.329ZM1397.6,1703.9h19.155v-42.573H1397.6Z" transform="translate(-1396.514 -1660.239)" fill="#af5d62"/>
      </g>
      <g id="组_52" data-name="组 52" transform="translate(6.463 6.103)" opacity="0.8">
        <path id="路径_56" data-name="路径 56" d="M1423.012,1698.634h-24.269v-42.608h24.269Zm-23.062-1.207h21.855v-40.194h-21.855Z" transform="translate(-1398.744 -1656.026)" fill="#c0654d"/>
      </g>
      <g id="组_53" data-name="组 53" transform="translate(8.078 3.051)" opacity="0.9">
        <path id="路径_57" data-name="路径 57" d="M1428.183,1692.284h-27.21v-40.471h27.21Zm-25.881-1.329h24.553v-37.813H1402.3Z" transform="translate(-1400.973 -1651.813)" fill="#d16d39"/>
      </g>
      <g id="组_54" data-name="组 54" transform="translate(9.693)">
        <path id="路径_58" data-name="路径 58" d="M1433.352,1685.934H1403.2V1647.6h30.149Zm-28.7-1.449H1431.9v-35.434h-27.251Z" transform="translate(-1403.203 -1647.602)" fill="#e27524"/>
      </g>
    </g>
    <g id="组_56" data-name="组 56" transform="translate(1197.921 1656.934)">
      <path id="路径_59" data-name="路径 59" d="M1204.526,1697.1V1671.37h6.978q13.573,0,13.573,12.543a12.845,12.845,0,0,1-3.655,9.6q-3.655,3.589-10.184,3.589Zm2.824-23.142v20.551h3.921q5.133,0,7.99-2.758t2.857-7.758q0-10.034-10.682-10.034Z" transform="translate(-1204.526 -1670.938)" fill="#121212"/>
      <path id="路径_60" data-name="路径 60" d="M1262.309,1673.961h-10.117v9.071h9.37v2.592h-9.37v11.48h-2.824V1671.37h12.941Z" transform="translate(-1216.88 -1670.938)" fill="#121212"/>
      <path id="路径_61" data-name="路径 61" d="M1286.234,1697.1h-2.824V1671.37h2.824Z" transform="translate(-1226.258 -1670.938)" fill="#121212"/>
      <path id="路径_62" data-name="路径 62" d="M1326.731,1697.1h-3.555l-13.423-20.783a11.938,11.938,0,0,1-.8-1.545h-.1a27.062,27.062,0,0,1,.133,3.455V1697.1h-2.842V1671.37h3.755l13.058,20.567q1,1.594,1.047,1.76h.066a29.912,29.912,0,0,1-.183-3.871V1671.37h2.841Z" transform="translate(-1232.522 -1670.938)" fill="#121212"/>
      <path id="路径_63" data-name="路径 63" d="M1371.95,1697.1h-3.14l-2.791-7.31h-11.031l-2.608,7.31h-3.157l9.9-25.734H1362Zm-6.894-9.9-4.12-11.115a12,12,0,0,1-.383-1.695h-.083a8.131,8.131,0,0,1-.415,1.695l-4.07,11.115Z" transform="translate(-1244.39 -1670.938)" fill="#121212"/>
      <path id="路径_64" data-name="路径 64" d="M1415.865,1697.1h-3.555l-13.424-20.783a11.907,11.907,0,0,1-.8-1.545h-.1a27.259,27.259,0,0,1,.133,3.455V1697.1h-2.841V1671.37h3.754l13.058,20.567q1,1.594,1.047,1.76h.067a29.781,29.781,0,0,1-.183-3.871V1671.37h2.841Z" transform="translate(-1257.078 -1670.938)" fill="#121212"/>
      <path id="路径_65" data-name="路径 65" d="M1459.284,1695.843a14.841,14.841,0,0,1-7.094,1.529,11.346,11.346,0,0,1-8.729-3.572,13.038,13.038,0,0,1-3.315-9.237,13.944,13.944,0,0,1,3.638-9.868,12.3,12.3,0,0,1,9.453-3.92,14.953,14.953,0,0,1,6.047,1.063v3.057a12.452,12.452,0,0,0-6.113-1.529,9.282,9.282,0,0,0-7.318,3.09,11.541,11.541,0,0,0-2.733,7.941,10.944,10.944,0,0,0,2.558,7.509,8.682,8.682,0,0,0,6.861,2.907,12.781,12.781,0,0,0,6.745-1.728Z" transform="translate(-1269.438 -1670.774)" fill="#121212"/>
      <path id="路径_66" data-name="路径 66" d="M1496.768,1697.1h-13.523V1671.37h12.942v2.592h-10.118v8.755h9.353v2.591h-9.353v9.2h10.7Z" transform="translate(-1281.312 -1670.938)" fill="#121212"/>
    </g>
  </g>
</svg>
