<svg xmlns="http://www.w3.org/2000/svg" xmlns:xlink="http://www.w3.org/1999/xlink" viewBox="0 0 290.18 163.29"><defs><style>.cls-1{fill:url(#linear-gradient);}.cls-2{fill:url(#linear-gradient-2);}.cls-3{fill:url(#linear-gradient-3);}.cls-4,.cls-5{isolation:isolate;}.cls-5{font-size:56.87px;fill:#242424;font-family:SegoeUI-BoldItalic, Segoe UI;font-weight:700;font-style:italic;}</style><linearGradient id="linear-gradient" x1="73.93" y1="81.65" x2="216.11" y2="81.65" gradientUnits="userSpaceOnUse"><stop offset="0" stop-color="#3dc4ed"/><stop offset="1" stop-color="#2976ba"/></linearGradient><linearGradient id="linear-gradient-2" x1="120.62" y1="81.65" x2="216.11" y2="81.65" gradientUnits="userSpaceOnUse"><stop offset="0" stop-color="#5a68d2"/><stop offset="0.23" stop-color="#5e67d2"/><stop offset="0.44" stop-color="#6862d3"/><stop offset="0.64" stop-color="#7a5bd4"/><stop offset="0.83" stop-color="#9451d5"/><stop offset="1" stop-color="#b146d7"/></linearGradient><linearGradient id="linear-gradient-3" x1="73.93" y1="81.65" x2="101.59" y2="81.65" gradientUnits="userSpaceOnUse"><stop offset="0" stop-color="#618fe0"/><stop offset="1" stop-color="#6962d6"/></linearGradient></defs><title>Big logo black text</title><g id="Layer_2" data-name="Layer 2"><g id="Layer_1-2" data-name="Layer 1"><g id="组_66" data-name="组 66"><path class="cls-1" d="M127.42,45.16a36.49,36.49,0,0,1,26.06,62A37,37,0,0,1,127,118.13H112.7a8,8,0,0,1-8-8v-57a8,8,0,0,1,8-8h14.72m7-45.16H82.31a8.38,8.38,0,0,0-8.38,8.38V154.92a8.38,8.38,0,0,0,8.38,8.37h52.15a81.65,81.65,0,0,0,81.65-81.64h0A81.65,81.65,0,0,0,134.46,0Z"/><path class="cls-2" d="M134.46,0H120.62a82.69,82.69,0,0,1,69.66,80.22c0,.48,0,1,0,1.42h0c0,.47,0,.95,0,1.42a82.67,82.67,0,0,1-69.66,80.22h13.84a81.65,81.65,0,0,0,81.65-81.64h0A81.65,81.65,0,0,0,134.46,0Z"/><path class="cls-3" d="M73.93,11.31c0,38.35,27.66,59.09,27.66,85.61S73.93,138.1,73.93,152Z"/><g id="DFINANCE-2" class="cls-4"><text class="cls-5" transform="translate(0 130.8)">DFINANCE</text></g></g></g></g></svg>