<svg xmlns="http://www.w3.org/2000/svg" viewBox="0 0 1309.5 308.47"><defs><style>.cls-1{isolation:isolate;}.cls-2{fill:#fff;}.cls-3,.cls-4,.cls-5{fill:none;}.cls-3,.cls-5{stroke:#fff;stroke-width:5px;}.cls-3{stroke-miterlimit:10;}</style></defs><title>up</title><g id="Layer_2" data-name="Layer 2"><g id="Layer_1-2" data-name="Layer 1"><g id="组_51" data-name="组 51"><g id="组_49" data-name="组 49"><g id="User" class="cls-1"><g class="cls-1"><path class="cls-2" d="M78.76,142.7V160a8.87,8.87,0,0,1-2.7,6.83,10.43,10.43,0,0,1-7.38,2.51,10.53,10.53,0,0,1-7.32-2.44,8.67,8.67,0,0,1-2.76-6.7V142.7H64v17.36a5,5,0,0,0,1.23,3.76A4.77,4.77,0,0,0,68.68,165q4.56,0,4.64-4.81V142.7Z"/><path class="cls-2" d="M93.45,163.6a1.69,1.69,0,0,0-1-1.51,10.42,10.42,0,0,0-3-1q-7-1.47-7-5.93a5.4,5.4,0,0,1,2.16-4.35,8.71,8.71,0,0,1,5.64-1.74,9.37,9.37,0,0,1,6,1.75,5.55,5.55,0,0,1,2.23,4.56H93.25a2.52,2.52,0,0,0-.73-1.86,3.07,3.07,0,0,0-2.25-.73,3.15,3.15,0,0,0-2,.6,1.88,1.88,0,0,0-.72,1.52,1.64,1.64,0,0,0,.82,1.4,8.69,8.69,0,0,0,2.78.92,24,24,0,0,1,3.29.87q4.13,1.53,4.13,5.26a5.1,5.1,0,0,1-2.29,4.33,9.93,9.93,0,0,1-5.93,1.65,10.38,10.38,0,0,1-4.36-.87,7.35,7.35,0,0,1-3-2.41,5.58,5.58,0,0,1-1.08-3.29h4.95a2.71,2.71,0,0,0,1,2.13,4.08,4.08,0,0,0,2.56.74,3.78,3.78,0,0,0,2.27-.57A1.78,1.78,0,0,0,93.45,163.6Z"/><path class="cls-2" d="M110.88,169.36a9.58,9.58,0,0,1-7-2.64,9.37,9.37,0,0,1-2.7-7v-.51a11.83,11.83,0,0,1,1.14-5.27,8.34,8.34,0,0,1,3.22-3.57,9,9,0,0,1,4.76-1.26,8.11,8.11,0,0,1,6.32,2.53q2.3,2.53,2.3,7.17v2.13H106.47A4.89,4.89,0,0,0,108,164a4.61,4.61,0,0,0,3.22,1.15,5.66,5.66,0,0,0,4.72-2.18l2.56,2.87a7.78,7.78,0,0,1-3.18,2.59A10.38,10.38,0,0,1,110.88,169.36Zm-.6-16.06a3.28,3.28,0,0,0-2.52,1,5.48,5.48,0,0,0-1.23,3h7.26V157a4,4,0,0,0-.94-2.7A3.39,3.39,0,0,0,110.28,153.3Z"/><path class="cls-2" d="M132.87,154.35a13.71,13.71,0,0,0-1.88-.15c-2,0-3.27.67-3.89,2V169h-5.22V149.45h4.93l.15,2.33a4.85,4.85,0,0,1,4.35-2.69,5.4,5.4,0,0,1,1.63.24Z"/></g></g><g id="组_26" data-name="组 26"><ellipse id="椭圆_10" data-name="椭圆 10" class="cls-3" cx="19" cy="140" rx="8.5" ry="9"/><path id="路径_42" data-name="路径 42" class="cls-3" d="M19.5,160c-9.46,0-17,8.54-17,18a1,1,0,0,0,1,1h31a1,1,0,0,0,1-1h0C35.49,168.54,29,160,19.5,160Z"/></g></g><path id="路径_88" data-name="路径 88" class="cls-3" d="M183.5,162h71l-10-14"/><path id="路径_93" data-name="路径 93" class="cls-3" d="M553.5,162h71l-10-14"/><path id="路径_95" data-name="路径 95" class="cls-3" d="M864.5,162h93"/><g id="组_50" data-name="组 50"><path id="路径_89" data-name="路径 89" class="cls-2" d="M333.81,153.72l0-.16a11.67,11.67,0,0,0-4.22-6A9.16,9.16,0,0,0,324,145.5a2.36,2.36,0,0,0-.31,4.7,4.65,4.65,0,0,1,2.78.93l0,0a7.39,7.39,0,0,1,2.67,3.47,43.16,43.16,0,0,1,0,17.39l0,.29c0,.13,0,.26-.05.38h0q-1.19,7.77-11.68,6.2a9.25,9.25,0,0,1-6.38-3.61l-.13-.18,0,0h0c-.64-1-1-4.57-1.09-10.68v0c-.18-6.08.2-10.21,1.13-12.42.79-1.31,2.81-2.32,6.1-3l.08,0h-.08a2.35,2.35,0,0,0-1-4.6l-.07,0q-7,1.51-9.22,5.36l-.1.2q-1.87,4.26-1.56,14.58.14,10.47,1.83,13.12a2.61,2.61,0,0,0,.19.27,13.71,13.71,0,0,0,9.46,5.58l.06,0q15.19,2.28,17.07-10.15h0c0-.13,0-.26.05-.39A48.14,48.14,0,0,0,333.81,153.72Z"/><path id="路径_90" data-name="路径 90" class="cls-2" d="M321.86,159.65v-.1c0-.38,0-.7,0-1h0c0-1.86,0-3-.08-3.53a2.35,2.35,0,1,0-4.66.62h0s0-.06,0-.09h0c0,.31.05,1.3.05,3,0,.2,0,.44,0,.73-.1,1-.15,1.73-.16,2h0a2.75,2.75,0,0,0,.2,1.1,2.35,2.35,0,0,0,4.31-1.88h0a2,2,0,0,1,.19.86Q321.73,161.09,321.86,159.65Z"/><path id="路径_91" data-name="路径 91" class="cls-2" d="M329.09,140.92a2.34,2.34,0,0,0-.14-3.32q-2.34-2.15-8.25-2.63h-.17a22.13,22.13,0,0,0-8.5,1.71,2.35,2.35,0,0,0,1.74,4.37h0a17.69,17.69,0,0,1,6.65-1.37,10.15,10.15,0,0,1,5.35,1.4A2.35,2.35,0,0,0,329.09,140.92Z"/><path id="路径_92" data-name="路径 92" class="cls-2" d="M309.18,133.51l-.15.16a13.88,13.88,0,0,1,5.36-2.06l.08,0a28,28,0,0,1,6.64-.75q7.22.63,10,3.48a2.35,2.35,0,0,0,3.38-3.26h0q-4-4.16-13.09-4.92l-.26,0a32.75,32.75,0,0,0-7.95,1,16.82,16.82,0,0,0-7.51,3.32h0a2.35,2.35,0,0,0,0,3.33h0a2.39,2.39,0,0,0,3.38-.1h0Z"/></g><g id="Frontend" class="cls-1"><g class="cls-1"><path class="cls-2" d="M373.67,158.25h-10.4V169h-5.42V142.7H375v4.39H363.27v6.79h10.4Z"/><path class="cls-2" d="M388.29,154.35a13.71,13.71,0,0,0-1.88-.15c-2,0-3.27.67-3.88,2V169h-5.22V149.45h4.93l.14,2.33a4.85,4.85,0,0,1,4.36-2.69,5.29,5.29,0,0,1,1.62.24Z"/><path class="cls-2" d="M389.34,159a11.56,11.56,0,0,1,1.12-5.18,8.2,8.2,0,0,1,3.22-3.52,9.46,9.46,0,0,1,4.89-1.25,8.92,8.92,0,0,1,6.46,2.42,9.72,9.72,0,0,1,2.79,6.58l0,1.33a10.24,10.24,0,0,1-2.51,7.22,9.74,9.74,0,0,1-13.49,0,10.4,10.4,0,0,1-2.52-7.37Zm5.22.38a7.32,7.32,0,0,0,1.05,4.26,3.77,3.77,0,0,0,6,0,8,8,0,0,0,1.07-4.66,7.24,7.24,0,0,0-1.07-4.24,3.47,3.47,0,0,0-3-1.5,3.41,3.41,0,0,0-3,1.49A8.15,8.15,0,0,0,394.56,159.42Z"/><path class="cls-2" d="M415.88,149.45l.16,2.26a6.82,6.82,0,0,1,5.62-2.62,5.65,5.65,0,0,1,4.62,1.83,8.47,8.47,0,0,1,1.56,5.45V169h-5.22V156.5a3.34,3.34,0,0,0-.73-2.41,3.22,3.22,0,0,0-2.4-.75,3.57,3.57,0,0,0-3.3,1.87V169H411V149.45Z"/><path class="cls-2" d="M438.05,144.65v4.8h3.34v3.83h-3.34V163a2.3,2.3,0,0,0,.41,1.55,2.07,2.07,0,0,0,1.59.47,8.84,8.84,0,0,0,1.54-.12v3.95a10.58,10.58,0,0,1-3.17.47c-3.66,0-5.52-1.85-5.6-5.55V153.28H430v-3.83h2.85v-4.8Z"/><path class="cls-2" d="M453.29,169.36a9.6,9.6,0,0,1-7-2.64,9.37,9.37,0,0,1-2.7-7v-.51a11.83,11.83,0,0,1,1.14-5.27,8.3,8.3,0,0,1,3.23-3.57,9,9,0,0,1,4.76-1.26,8.1,8.1,0,0,1,6.31,2.53c1.54,1.69,2.3,4.08,2.3,7.17v2.13H448.89a4.83,4.83,0,0,0,1.52,3.08,4.63,4.63,0,0,0,3.23,1.15,5.64,5.64,0,0,0,4.71-2.18l2.57,2.87a7.91,7.91,0,0,1-3.18,2.59A10.46,10.46,0,0,1,453.29,169.36Zm-.59-16.06a3.25,3.25,0,0,0-2.52,1,5.42,5.42,0,0,0-1.24,3h7.26V157a3.9,3.9,0,0,0-.94-2.7A3.36,3.36,0,0,0,452.7,153.3Z"/><path class="cls-2" d="M469.1,149.45l.16,2.26a6.82,6.82,0,0,1,5.62-2.62,5.67,5.67,0,0,1,4.63,1.83,8.47,8.47,0,0,1,1.55,5.45V169h-5.22V156.5a3.39,3.39,0,0,0-.72-2.41,3.24,3.24,0,0,0-2.41-.75,3.58,3.58,0,0,0-3.3,1.87V169h-5.22V149.45Z"/><path class="cls-2" d="M484.21,159.08a11.76,11.76,0,0,1,2.05-7.28,6.63,6.63,0,0,1,5.61-2.71,6,6,0,0,1,4.71,2.13v-10h5.24V169H497.1l-.25-2.08a6.13,6.13,0,0,1-5,2.44,6.62,6.62,0,0,1-5.54-2.72Q484.2,163.93,484.21,159.08Zm5.22.39a7.83,7.83,0,0,0,.95,4.22,3.14,3.14,0,0,0,2.79,1.46,3.49,3.49,0,0,0,3.41-2v-7.73a3.45,3.45,0,0,0-3.38-2C490.68,153.34,489.43,155.38,489.43,159.47Z"/></g></g><g id="Canister" class="cls-1"><g class="cls-1"><path class="cls-2" d="M697.5,160.24a9.29,9.29,0,0,1-3.14,6.68,11,11,0,0,1-7.45,2.44,9.91,9.91,0,0,1-8-3.4q-2.9-3.41-2.9-9.35V155a15.82,15.82,0,0,1,1.34-6.69,10.07,10.07,0,0,1,3.82-4.43,11.93,11.93,0,0,1,13.11.89,10,10,0,0,1,3.22,6.85h-5.42a5.52,5.52,0,0,0-1.42-3.69,5.25,5.25,0,0,0-3.72-1.15,4.61,4.61,0,0,0-4.05,1.94c-.9,1.3-1.36,3.3-1.38,6v2c0,2.85.43,4.92,1.29,6.24a4.52,4.52,0,0,0,4.07,2,5.36,5.36,0,0,0,3.75-1.15,5.17,5.17,0,0,0,1.42-3.55Z"/><path class="cls-2" d="M712,169a5.85,5.85,0,0,1-.52-1.75,6.32,6.32,0,0,1-4.93,2.11,6.9,6.9,0,0,1-4.76-1.66,5.35,5.35,0,0,1-1.89-4.19,5.54,5.54,0,0,1,2.3-4.77q2.31-1.67,6.66-1.68h2.4v-1.12a3.25,3.25,0,0,0-.69-2.17,2.76,2.76,0,0,0-2.2-.81,3.12,3.12,0,0,0-2.07.63,2.14,2.14,0,0,0-.75,1.73h-5.22a5.22,5.22,0,0,1,1-3.14,7,7,0,0,1,3-2.27,11,11,0,0,1,4.3-.82,8.55,8.55,0,0,1,5.74,1.82,6.36,6.36,0,0,1,2.12,5.1v8.47a9.24,9.24,0,0,0,.78,4.21V169Zm-4.32-3.63a4.46,4.46,0,0,0,2.14-.52,3.32,3.32,0,0,0,1.44-1.38v-3.36h-1.95q-3.92,0-4.17,2.71l0,.31a2.1,2.1,0,0,0,.69,1.61A2.65,2.65,0,0,0,707.72,165.37Z"/><path class="cls-2" d="M725.36,149.45l.16,2.26a6.82,6.82,0,0,1,5.62-2.62,5.65,5.65,0,0,1,4.62,1.83,8.47,8.47,0,0,1,1.56,5.45V169H732.1V156.5a3.39,3.39,0,0,0-.73-2.41,3.22,3.22,0,0,0-2.4-.75,3.6,3.6,0,0,0-3.31,1.87V169h-5.22V149.45Z"/><path class="cls-2" d="M741.24,144.39a2.58,2.58,0,0,1,.78-1.93,3.39,3.39,0,0,1,4.28,0,2.76,2.76,0,0,1,0,3.88,3.35,3.35,0,0,1-4.25,0A2.56,2.56,0,0,1,741.24,144.39ZM746.78,169h-5.23V149.45h5.23Z"/><path class="cls-2" d="M761.67,163.6a1.69,1.69,0,0,0-.95-1.51,10.44,10.44,0,0,0-3-1q-7-1.47-7-5.93a5.4,5.4,0,0,1,2.16-4.35,8.72,8.72,0,0,1,5.65-1.74,9.36,9.36,0,0,1,6,1.75,5.53,5.53,0,0,1,2.23,4.56h-5.22a2.55,2.55,0,0,0-.72-1.86,3.82,3.82,0,0,0-4.3-.13,1.88,1.88,0,0,0-.72,1.52,1.62,1.62,0,0,0,.82,1.4,8.62,8.62,0,0,0,2.77.92,23.57,23.57,0,0,1,3.29.87q4.14,1.53,4.14,5.26a5.11,5.11,0,0,1-2.3,4.33,9.9,9.9,0,0,1-5.92,1.65,10.43,10.43,0,0,1-4.37-.87,7.42,7.42,0,0,1-3-2.41,5.58,5.58,0,0,1-1.08-3.29H755a2.74,2.74,0,0,0,1,2.13,4.1,4.1,0,0,0,2.56.74,3.78,3.78,0,0,0,2.27-.57A1.78,1.78,0,0,0,761.67,163.6Z"/><path class="cls-2" d="M776.36,144.65v4.8h3.34v3.83h-3.34V163a2.36,2.36,0,0,0,.41,1.55,2.07,2.07,0,0,0,1.59.47,8.84,8.84,0,0,0,1.54-.12v3.95a10.52,10.52,0,0,1-3.16.47q-5.49,0-5.6-5.55V153.28h-2.86v-3.83h2.86v-4.8Z"/><path class="cls-2" d="M791.61,169.36a9.58,9.58,0,0,1-7-2.64,9.34,9.34,0,0,1-2.71-7v-.51a11.83,11.83,0,0,1,1.14-5.27,8.36,8.36,0,0,1,3.23-3.57,9,9,0,0,1,4.76-1.26,8.09,8.09,0,0,1,6.31,2.53q2.31,2.53,2.31,7.17v2.13H787.2a4.93,4.93,0,0,0,1.52,3.08,4.63,4.63,0,0,0,3.23,1.15,5.67,5.67,0,0,0,4.72-2.18l2.56,2.87a7.78,7.78,0,0,1-3.18,2.59A10.45,10.45,0,0,1,791.61,169.36ZM791,153.3a3.25,3.25,0,0,0-2.52,1,5.49,5.49,0,0,0-1.24,3h7.27V157a4,4,0,0,0-.94-2.7A3.4,3.4,0,0,0,791,153.3Z"/><path class="cls-2" d="M813.59,154.35a13.59,13.59,0,0,0-1.88-.15c-2,0-3.27.67-3.88,2V169h-5.22V149.45h4.93l.15,2.33a4.82,4.82,0,0,1,4.35-2.69,5.4,5.4,0,0,1,1.63.24Z"/></g></g><path id="路径_94" data-name="路径 94" class="cls-3" d="M1033.24,16l16,19.32H967.5c-5.52,0-10,5.42-10,12.1V280.93c0,6.68,4.48,12.1,10,12.1h81.7l-16.49-19.57"/><g id="矩形_33" data-name="矩形 33"><rect class="cls-4" x="1099.5" y="88" width="210" height="57" rx="10"/><rect class="cls-5" x="1102" y="90.5" width="205" height="52" rx="7.5"/></g><g id="矩形_34" data-name="矩形 34"><rect class="cls-4" x="1099.5" width="210" height="57" rx="10"/><rect class="cls-5" x="1102" y="2.5" width="205" height="52" rx="7.5"/></g><g id="矩形_35" data-name="矩形 35"><rect class="cls-4" x="1099.5" y="175" width="210" height="57" rx="10"/><rect class="cls-5" x="1102" y="177.5" width="205" height="52" rx="7.5"/></g><g id="Token_2" data-name="Token 2" class="cls-1"><g class="cls-1"><path class="cls-2" d="M1164,108.46h-7.19V128H1152V108.46h-7.09v-3.92H1164Z"/><path class="cls-2" d="M1162.38,119.12a10.26,10.26,0,0,1,1-4.62,7.22,7.22,0,0,1,2.87-3.14,8.32,8.32,0,0,1,4.36-1.12,7.94,7.94,0,0,1,5.76,2.16,8.66,8.66,0,0,1,2.49,5.87l0,1.19a9.1,9.1,0,0,1-2.24,6.44,8.69,8.69,0,0,1-12,0,9.3,9.3,0,0,1-2.25-6.58Zm4.65.33a6.51,6.51,0,0,0,.94,3.8,3.07,3.07,0,0,0,2.67,1.32,3.12,3.12,0,0,0,2.65-1.3,7.17,7.17,0,0,0,1-4.16,6.46,6.46,0,0,0-1-3.77,3.09,3.09,0,0,0-2.68-1.34,3,3,0,0,0-2.64,1.33A7.27,7.27,0,0,0,1167,119.45Z"/><path class="cls-2" d="M1188.09,121l-1.67,1.67V128h-4.66V103.25h4.66V117l.9-1.16,4.46-5.23h5.6l-6.3,7.26,6.84,10.17h-5.35Z"/><path class="cls-2" d="M1207.09,128.32a8.54,8.54,0,0,1-6.24-2.35,8.36,8.36,0,0,1-2.41-6.27v-.45a10.64,10.64,0,0,1,1-4.7,7.5,7.5,0,0,1,2.88-3.19,8.15,8.15,0,0,1,4.25-1.12,7.26,7.26,0,0,1,5.63,2.26,9.17,9.17,0,0,1,2,6.4v1.9h-11.1a4.31,4.31,0,0,0,1.36,2.74,4.16,4.16,0,0,0,2.88,1,5,5,0,0,0,4.2-1.95l2.29,2.56a7,7,0,0,1-2.83,2.31A9.26,9.26,0,0,1,1207.09,128.32Zm-.53-14.32a2.91,2.91,0,0,0-2.25.94,4.86,4.86,0,0,0-1.1,2.68h6.48v-.37a3.51,3.51,0,0,0-.84-2.4A3,3,0,0,0,1206.56,114Z"/><path class="cls-2" d="M1221.19,110.57l.15,2a6.07,6.07,0,0,1,5-2.34,5.06,5.06,0,0,1,4.12,1.63,7.56,7.56,0,0,1,1.39,4.87V128h-4.66V116.85a3,3,0,0,0-.64-2.15,2.88,2.88,0,0,0-2.15-.67,3.21,3.21,0,0,0-3,1.68V128h-4.65V110.57Z"/><path class="cls-2" d="M1259.49,128h-16.08v-3.19l7.59-8.09a18.83,18.83,0,0,0,2.31-3,4.78,4.78,0,0,0,.75-2.42,3.54,3.54,0,0,0-.79-2.45,2.83,2.83,0,0,0-2.25-.9,3,3,0,0,0-2.49,1.09,4.29,4.29,0,0,0-.91,2.86h-4.68a7.75,7.75,0,0,1,1-3.92,7.24,7.24,0,0,1,2.89-2.78,8.82,8.82,0,0,1,4.24-1,8.34,8.34,0,0,1,5.63,1.74,6.14,6.14,0,0,1,2,4.91,8,8,0,0,1-.9,3.55,19.69,19.69,0,0,1-3.09,4.2l-5.33,5.63h10.08Z"/></g></g><g id="Token_1" data-name="Token 1" class="cls-1"><g class="cls-1"><path class="cls-2" d="M1164,20.46h-7.19V40H1152V20.46h-7.09V16.54H1164Z"/><path class="cls-2" d="M1162.38,31.12a10.26,10.26,0,0,1,1-4.62,7.22,7.22,0,0,1,2.87-3.14,8.32,8.32,0,0,1,4.36-1.12,7.94,7.94,0,0,1,5.76,2.16,8.66,8.66,0,0,1,2.49,5.87l0,1.19a9.1,9.1,0,0,1-2.24,6.44,8.69,8.69,0,0,1-12,0,9.3,9.3,0,0,1-2.25-6.58Zm4.65.33a6.51,6.51,0,0,0,.94,3.8,3.07,3.07,0,0,0,2.67,1.32,3.12,3.12,0,0,0,2.65-1.3,7.17,7.17,0,0,0,1-4.16,6.46,6.46,0,0,0-1-3.77,3.09,3.09,0,0,0-2.68-1.34,3,3,0,0,0-2.64,1.33A7.27,7.27,0,0,0,1167,31.45Z"/><path class="cls-2" d="M1188.09,33l-1.67,1.67V40h-4.66V15.25h4.66V29l.9-1.16,4.46-5.23h5.6l-6.3,7.26L1197.92,40h-5.35Z"/><path class="cls-2" d="M1207.09,40.32a8.54,8.54,0,0,1-6.24-2.35,8.36,8.36,0,0,1-2.41-6.27v-.45a10.64,10.64,0,0,1,1-4.7,7.5,7.5,0,0,1,2.88-3.19,8.15,8.15,0,0,1,4.25-1.12,7.26,7.26,0,0,1,5.63,2.26,9.17,9.17,0,0,1,2,6.4v1.9h-11.1a4.31,4.31,0,0,0,1.36,2.74,4.16,4.16,0,0,0,2.88,1,5,5,0,0,0,4.2-2l2.29,2.56a7,7,0,0,1-2.83,2.31A9.26,9.26,0,0,1,1207.09,40.32ZM1206.56,26a2.91,2.91,0,0,0-2.25.94,4.86,4.86,0,0,0-1.1,2.68h6.48v-.37a3.51,3.51,0,0,0-.84-2.4A3,3,0,0,0,1206.56,26Z"/><path class="cls-2" d="M1221.19,22.57l.15,2a6.07,6.07,0,0,1,5-2.34,5.06,5.06,0,0,1,4.12,1.63,7.56,7.56,0,0,1,1.39,4.87V40h-4.66V28.85a3,3,0,0,0-.64-2.15,2.88,2.88,0,0,0-2.15-.67,3.21,3.21,0,0,0-3,1.68V40h-4.65V22.57Z"/><path class="cls-2" d="M1254.72,40h-4.65V22.05l-5.56,1.72V20l9.71-3.48h.5Z"/></g></g><g id="Token_3" data-name="Token 3" class="cls-1"><g class="cls-1"><path class="cls-2" d="M1164,195.46h-7.19V215H1152V195.46h-7.09v-3.92H1164Z"/><path class="cls-2" d="M1162.38,206.12a10.26,10.26,0,0,1,1-4.62,7.22,7.22,0,0,1,2.87-3.14,8.32,8.32,0,0,1,4.36-1.12,7.94,7.94,0,0,1,5.76,2.16,8.66,8.66,0,0,1,2.49,5.87l0,1.19a9.1,9.1,0,0,1-2.24,6.44,8.69,8.69,0,0,1-12,0,9.3,9.3,0,0,1-2.25-6.58Zm4.65.33a6.51,6.51,0,0,0,.94,3.8,3.07,3.07,0,0,0,2.67,1.32,3.12,3.12,0,0,0,2.65-1.3,7.17,7.17,0,0,0,1-4.16,6.46,6.46,0,0,0-1-3.77,3.09,3.09,0,0,0-2.68-1.34,3,3,0,0,0-2.64,1.33A7.27,7.27,0,0,0,1167,206.45Z"/><path class="cls-2" d="M1188.09,208l-1.67,1.67V215h-4.66V190.25h4.66V204l.9-1.16,4.46-5.23h5.6l-6.3,7.26,6.84,10.17h-5.35Z"/><path class="cls-2" d="M1207.09,215.32a8.54,8.54,0,0,1-6.24-2.35,8.36,8.36,0,0,1-2.41-6.27v-.45a10.64,10.64,0,0,1,1-4.7,7.5,7.5,0,0,1,2.88-3.19,8.15,8.15,0,0,1,4.25-1.12,7.26,7.26,0,0,1,5.63,2.26,9.17,9.17,0,0,1,2,6.4v1.9h-11.1a4.31,4.31,0,0,0,1.36,2.74,4.16,4.16,0,0,0,2.88,1,5,5,0,0,0,4.2-1.95l2.29,2.56a7,7,0,0,1-2.83,2.31A9.26,9.26,0,0,1,1207.09,215.32Zm-.53-14.32a2.91,2.91,0,0,0-2.25.94,4.86,4.86,0,0,0-1.1,2.68h6.48v-.37a3.51,3.51,0,0,0-.84-2.4A3,3,0,0,0,1206.56,201Z"/><path class="cls-2" d="M1221.19,197.57l.15,2a6.07,6.07,0,0,1,5-2.34,5.06,5.06,0,0,1,4.12,1.63,7.56,7.56,0,0,1,1.39,4.87V215h-4.66V203.85a3,3,0,0,0-.64-2.15,2.88,2.88,0,0,0-2.15-.67,3.21,3.21,0,0,0-3,1.68V215h-4.65V197.57Z"/><path class="cls-2" d="M1248.15,201.21h2.48a3.51,3.51,0,0,0,2.63-.89,3.23,3.23,0,0,0,.85-2.35,2.86,2.86,0,0,0-.85-2.21,3.25,3.25,0,0,0-2.32-.79,3.48,3.48,0,0,0-2.24.73,2.34,2.34,0,0,0-.91,1.91h-4.65a5.72,5.72,0,0,1,1-3.29,6.61,6.61,0,0,1,2.77-2.28,9.21,9.21,0,0,1,3.92-.82,8.78,8.78,0,0,1,5.84,1.78,6.08,6.08,0,0,1,2.11,4.9,4.91,4.91,0,0,1-1,3,6.43,6.43,0,0,1-2.57,2.08,5.47,5.47,0,0,1,3.93,5.48,6.18,6.18,0,0,1-2.28,5,9.21,9.21,0,0,1-6,1.88,8.66,8.66,0,0,1-5.74-1.85,6.05,6.05,0,0,1-2.23-4.9h4.65a2.7,2.7,0,0,0,1,2.16,4.14,4.14,0,0,0,5,0,3,3,0,0,0,.94-2.33q0-3.51-3.87-3.51h-2.46Z"/></g></g><g id="_......" data-name=" ......" class="cls-1"><g class="cls-1"><path class="cls-2" d="M1193.79,255.27a2.33,2.33,0,0,1,1.8.75,2.66,2.66,0,0,1,.7,1.87,2.7,2.7,0,0,1-.7,1.9,2.52,2.52,0,0,1-3.58,0,2.7,2.7,0,0,1-.69-1.91A2.64,2.64,0,0,1,1192,256,2.32,2.32,0,0,1,1193.79,255.27Z"/><path class="cls-2" d="M1193.79,264.86a2.36,2.36,0,0,1,1.8.74,2.9,2.9,0,0,1,0,3.78,2.33,2.33,0,0,1-1.8.75,2.29,2.29,0,0,1-1.78-.75,2.93,2.93,0,0,1,0-3.78A2.28,2.28,0,0,1,1193.79,264.86Z"/><path class="cls-2" d="M1193.79,274.44a2.33,2.33,0,0,1,1.8.75,2.89,2.89,0,0,1,0,3.77,2.52,2.52,0,0,1-3.58,0,2.95,2.95,0,0,1,0-3.79A2.32,2.32,0,0,1,1193.79,274.44Z"/><path class="cls-2" d="M1193.79,284a2.33,2.33,0,0,1,1.8.75,2.89,2.89,0,0,1,0,3.77,2.52,2.52,0,0,1-3.58,0,2.95,2.95,0,0,1,0-3.79A2.32,2.32,0,0,1,1193.79,284Z"/><path class="cls-2" d="M1193.79,293.62a2.33,2.33,0,0,1,1.8.75,2.66,2.66,0,0,1,.7,1.87,2.7,2.7,0,0,1-.7,1.9,2.52,2.52,0,0,1-3.58,0,2.7,2.7,0,0,1-.69-1.91,2.64,2.64,0,0,1,.69-1.88A2.32,2.32,0,0,1,1193.79,293.62Z"/><path class="cls-2" d="M1193.79,303.21a2.36,2.36,0,0,1,1.8.74,2.89,2.89,0,0,1,0,3.77,2.33,2.33,0,0,1-1.8.75,2.28,2.28,0,0,1-1.78-.74,2.93,2.93,0,0,1,0-3.78A2.28,2.28,0,0,1,1193.79,303.21Z"/></g></g><path id="路径_96" data-name="路径 96" class="cls-3" d="M1032.72,100l15.71,18.8H967.5c-5.52,0-10,5.06-10,11.39v68.24c0,6.33,4.48,11.47,10,11.47h80.93l-15.71-18.23"/></g></g></g></svg>