<svg xmlns="http://www.w3.org/2000/svg" viewBox="0 0 1560 418"><defs><style>.cls-1{isolation:isolate;}.cls-2{fill:#fff;}.cls-3,.cls-4,.cls-5,.cls-6,.cls-7{fill:none;}.cls-3,.cls-5,.cls-6,.cls-7{stroke:#fff;}.cls-3{stroke-miterlimit:10;}.cls-3,.cls-5{stroke-width:5px;}.cls-6{stroke-width:3px;stroke-dasharray:10;}.cls-7{stroke-width:4px;}</style></defs><title>Token</title><g id="Layer_2" data-name="Layer 2"><g id="Layer_1-2" data-name="Layer 1"><g id="组_57" data-name="组 57"><g id="组_51" data-name="组 51"><g id="组_49" data-name="组 49"><g id="User" class="cls-1"><g class="cls-1"><path class="cls-2" d="M198.26,197.7V215a8.87,8.87,0,0,1-2.7,6.83,12.15,12.15,0,0,1-14.7.07,8.67,8.67,0,0,1-2.76-6.7V197.7h5.42v17.36a5,5,0,0,0,1.23,3.76,4.77,4.77,0,0,0,3.43,1.19q4.56,0,4.64-4.81V197.7Z"/><path class="cls-2" d="M213,218.6a1.69,1.69,0,0,0-.95-1.51,10.42,10.42,0,0,0-3.05-1q-7-1.47-7-5.93a5.4,5.4,0,0,1,2.16-4.35,8.71,8.71,0,0,1,5.64-1.74,9.37,9.37,0,0,1,6,1.75A5.55,5.55,0,0,1,218,210.4h-5.22a2.52,2.52,0,0,0-.73-1.86,3.07,3.07,0,0,0-2.25-.73,3.15,3.15,0,0,0-2.05.6,1.88,1.88,0,0,0-.72,1.52,1.64,1.64,0,0,0,.82,1.4,8.69,8.69,0,0,0,2.78.92,24,24,0,0,1,3.29.87q4.13,1.53,4.13,5.26a5.1,5.1,0,0,1-2.29,4.33,9.93,9.93,0,0,1-5.93,1.65,10.38,10.38,0,0,1-4.36-.87,7.35,7.35,0,0,1-3-2.41,5.58,5.58,0,0,1-1.08-3.29h4.95a2.71,2.71,0,0,0,1,2.13,4.08,4.08,0,0,0,2.56.74,3.78,3.78,0,0,0,2.27-.57A1.78,1.78,0,0,0,213,218.6Z"/><path class="cls-2" d="M230.38,224.36a9.58,9.58,0,0,1-7-2.64,9.37,9.37,0,0,1-2.7-7v-.51a11.83,11.83,0,0,1,1.14-5.27,8.34,8.34,0,0,1,3.22-3.57,9,9,0,0,1,4.76-1.26,8.11,8.11,0,0,1,6.32,2.53q2.3,2.53,2.3,7.17v2.13H226A4.89,4.89,0,0,0,227.5,219a4.61,4.61,0,0,0,3.22,1.15,5.66,5.66,0,0,0,4.72-2.18l2.56,2.87a7.78,7.78,0,0,1-3.18,2.59A10.38,10.38,0,0,1,230.38,224.36Zm-.6-16.06a3.28,3.28,0,0,0-2.52,1,5.48,5.48,0,0,0-1.23,3h7.26V212a4,4,0,0,0-.94-2.7A3.39,3.39,0,0,0,229.78,208.3Z"/><path class="cls-2" d="M252.37,209.35a13.71,13.71,0,0,0-1.88-.15c-2,0-3.27.67-3.89,2V224h-5.22V204.45h4.93l.15,2.33a4.85,4.85,0,0,1,4.35-2.69,5.4,5.4,0,0,1,1.63.24Z"/></g></g><g id="组_26" data-name="组 26"><ellipse id="椭圆_10" data-name="椭圆 10" class="cls-3" cx="138.5" cy="195" rx="8.5" ry="9"/><path id="路径_42" data-name="路径 42" class="cls-3" d="M139,215c-9.46,0-17,8.54-17,18a1,1,0,0,0,1,1h31a1,1,0,0,0,1-1h0C155,223.54,148.46,215,139,215Z"/></g></g><path id="路径_88" data-name="路径 88" class="cls-3" d="M278,217h71l-10-14"/><path id="路径_93" data-name="路径 93" class="cls-3" d="M598,217h71l-10-14"/><path id="路径_95" data-name="路径 95" class="cls-3" d="M1003,217h74"/><g id="组_50" data-name="组 50"><path id="路径_89" data-name="路径 89" class="cls-2" d="M403.31,208.72l0-.16a11.67,11.67,0,0,0-4.22-6,9.16,9.16,0,0,0-5.53-2.07,2.36,2.36,0,0,0-.31,4.7,4.65,4.65,0,0,1,2.78.93l0,0a7.39,7.39,0,0,1,2.67,3.47,43.16,43.16,0,0,1,0,17.39l0,.29c0,.13,0,.26-.05.38h0q-1.19,7.77-11.68,6.2a9.25,9.25,0,0,1-6.38-3.61l-.13-.18,0,0h0c-.64-1-1-4.57-1.09-10.68v0c-.18-6.08.2-10.21,1.13-12.42.79-1.31,2.81-2.32,6.1-3l.08,0h-.08a2.35,2.35,0,0,0-1-4.6l-.07,0q-7,1.51-9.22,5.36l-.1.2q-1.87,4.26-1.56,14.58.14,10.47,1.83,13.12a2.61,2.61,0,0,0,.19.27,13.71,13.71,0,0,0,9.46,5.58l.06,0q15.19,2.28,17.07-10.15h0c0-.13,0-.26.05-.39A48.14,48.14,0,0,0,403.31,208.72Z"/><path id="路径_90" data-name="路径 90" class="cls-2" d="M391.36,214.65v-.1c0-.38,0-.7,0-1h0c0-1.86,0-3-.08-3.53a2.35,2.35,0,1,0-4.66.62h0s0-.06,0-.09h0c0,.31.05,1.3.05,3,0,.2,0,.44,0,.73-.1,1-.15,1.73-.16,2h0a2.75,2.75,0,0,0,.2,1.1,2.35,2.35,0,0,0,4.31-1.88h0a2,2,0,0,1,.19.86Q391.23,216.09,391.36,214.65Z"/><path id="路径_91" data-name="路径 91" class="cls-2" d="M398.59,195.92a2.34,2.34,0,0,0-.14-3.32q-2.34-2.15-8.25-2.63H390a22.13,22.13,0,0,0-8.5,1.71,2.35,2.35,0,0,0,1.74,4.37h0a17.69,17.69,0,0,1,6.65-1.37,10.15,10.15,0,0,1,5.35,1.4A2.35,2.35,0,0,0,398.59,195.92Z"/><path id="路径_92" data-name="路径 92" class="cls-2" d="M378.68,188.51l-.15.16a13.88,13.88,0,0,1,5.36-2.06l.08,0a28,28,0,0,1,6.64-.75q7.22.63,10,3.48a2.35,2.35,0,0,0,3.38-3.26h0q-4-4.16-13.09-4.92l-.26,0a32.75,32.75,0,0,0-7.95.95,16.82,16.82,0,0,0-7.51,3.32h0a2.35,2.35,0,0,0,0,3.33h0a2.39,2.39,0,0,0,3.38-.1h0Z"/></g><g id="Frontend" class="cls-1"><g class="cls-1"><path class="cls-2" d="M443.17,213.25h-10.4V224h-5.42V197.7h17.13v4.39H432.77v6.79h10.4Z"/><path class="cls-2" d="M457.79,209.35a13.71,13.71,0,0,0-1.88-.15c-2,0-3.27.67-3.88,2V224h-5.22V204.45h4.93l.14,2.33a4.85,4.85,0,0,1,4.36-2.69,5.33,5.33,0,0,1,1.62.24Z"/><path class="cls-2" d="M458.84,214a11.56,11.56,0,0,1,1.12-5.18,8.2,8.2,0,0,1,3.22-3.52,9.46,9.46,0,0,1,4.89-1.25,8.92,8.92,0,0,1,6.46,2.42,9.72,9.72,0,0,1,2.79,6.58l0,1.33a10.24,10.24,0,0,1-2.51,7.22,9.74,9.74,0,0,1-13.49,0,10.4,10.4,0,0,1-2.52-7.37Zm5.22.38a7.32,7.32,0,0,0,1.05,4.26,3.77,3.77,0,0,0,6,0,8,8,0,0,0,1.07-4.66,7.24,7.24,0,0,0-1.07-4.24,3.47,3.47,0,0,0-3-1.5,3.41,3.41,0,0,0-3,1.49A8.15,8.15,0,0,0,464.06,214.42Z"/><path class="cls-2" d="M485.38,204.45l.16,2.26a6.82,6.82,0,0,1,5.62-2.62,5.65,5.65,0,0,1,4.62,1.83,8.47,8.47,0,0,1,1.56,5.45V224h-5.22V211.5a3.34,3.34,0,0,0-.73-2.41,3.22,3.22,0,0,0-2.4-.75,3.57,3.57,0,0,0-3.3,1.87V224h-5.23V204.45Z"/><path class="cls-2" d="M507.55,199.65v4.8h3.34v3.83h-3.34V218a2.3,2.3,0,0,0,.41,1.55,2.07,2.07,0,0,0,1.59.47,8.84,8.84,0,0,0,1.54-.12v3.95a10.58,10.58,0,0,1-3.17.47c-3.66,0-5.52-1.85-5.6-5.55V208.28h-2.85v-3.83h2.85v-4.8Z"/><path class="cls-2" d="M522.79,224.36a9.6,9.6,0,0,1-7-2.64,9.37,9.37,0,0,1-2.7-7v-.51a11.83,11.83,0,0,1,1.14-5.27,8.3,8.3,0,0,1,3.23-3.57,9,9,0,0,1,4.76-1.26,8.1,8.1,0,0,1,6.31,2.53c1.54,1.69,2.3,4.08,2.3,7.17v2.13H518.39a4.83,4.83,0,0,0,1.52,3.08,4.63,4.63,0,0,0,3.23,1.15,5.64,5.64,0,0,0,4.71-2.18l2.57,2.87a7.91,7.91,0,0,1-3.18,2.59A10.46,10.46,0,0,1,522.79,224.36Zm-.59-16.06a3.25,3.25,0,0,0-2.52,1,5.42,5.42,0,0,0-1.24,3h7.26V212a3.9,3.9,0,0,0-.94-2.7A3.36,3.36,0,0,0,522.2,208.3Z"/><path class="cls-2" d="M538.6,204.45l.16,2.26a6.82,6.82,0,0,1,5.62-2.62,5.67,5.67,0,0,1,4.63,1.83,8.47,8.47,0,0,1,1.55,5.45V224h-5.22V211.5a3.39,3.39,0,0,0-.72-2.41,3.25,3.25,0,0,0-2.41-.75,3.58,3.58,0,0,0-3.3,1.87V224h-5.22V204.45Z"/><path class="cls-2" d="M553.71,214.08a11.76,11.76,0,0,1,2-7.28,6.63,6.63,0,0,1,5.61-2.71,6,6,0,0,1,4.71,2.13v-10h5.24V224H566.6l-.25-2.08a6.13,6.13,0,0,1-5,2.44,6.62,6.62,0,0,1-5.54-2.72Q553.7,218.93,553.71,214.08Zm5.22.39a7.83,7.83,0,0,0,1,4.22,3.14,3.14,0,0,0,2.79,1.46,3.49,3.49,0,0,0,3.41-2v-7.73a3.45,3.45,0,0,0-3.38-2C560.18,208.34,558.93,210.38,558.93,214.47Z"/></g></g><g id="Token_registry" data-name="Token registry" class="cls-1"><g class="cls-1"><path class="cls-2" d="M740.15,200.09h-8.06V222h-5.42V200.09h-7.95V195.7h21.43Z"/><path class="cls-2" d="M738.32,212a11.7,11.7,0,0,1,1.12-5.18,8.22,8.22,0,0,1,3.23-3.52,9.41,9.41,0,0,1,4.89-1.25,8.94,8.94,0,0,1,6.46,2.42,9.81,9.81,0,0,1,2.79,6.58l0,1.33a10.19,10.19,0,0,1-2.51,7.22,9.72,9.72,0,0,1-13.48,0,10.36,10.36,0,0,1-2.53-7.37Zm5.23.38a7.4,7.4,0,0,0,1,4.26,3.78,3.78,0,0,0,6,0,8,8,0,0,0,1.06-4.66,7.24,7.24,0,0,0-1.06-4.24,3.48,3.48,0,0,0-3-1.5,3.43,3.43,0,0,0-3,1.49A8.24,8.24,0,0,0,743.55,212.42Z"/><path class="cls-2" d="M767.16,214.16,765.28,216v6h-5.22V194.25h5.22v15.38l1-1.31,5-5.87h6.26l-7.06,8.15,7.68,11.4h-6Z"/><path class="cls-2" d="M788.46,222.36a9.58,9.58,0,0,1-7-2.64,9.37,9.37,0,0,1-2.7-7v-.51a11.83,11.83,0,0,1,1.14-5.27,8.28,8.28,0,0,1,3.22-3.57,9,9,0,0,1,4.76-1.26,8.12,8.12,0,0,1,6.32,2.53q2.29,2.53,2.3,7.17v2.13H784.05a4.89,4.89,0,0,0,1.53,3.08,4.61,4.61,0,0,0,3.22,1.15,5.67,5.67,0,0,0,4.72-2.18l2.56,2.87a7.78,7.78,0,0,1-3.18,2.59A10.41,10.41,0,0,1,788.46,222.36Zm-.6-16.06a3.28,3.28,0,0,0-2.52,1,5.48,5.48,0,0,0-1.23,3h7.26V210a4,4,0,0,0-.94-2.7A3.39,3.39,0,0,0,787.86,206.3Z"/><path class="cls-2" d="M804.27,202.45l.16,2.26a6.82,6.82,0,0,1,5.62-2.62,5.65,5.65,0,0,1,4.62,1.83,8.47,8.47,0,0,1,1.56,5.45V222H811V209.5a3.39,3.39,0,0,0-.73-2.41,3.22,3.22,0,0,0-2.4-.75,3.6,3.6,0,0,0-3.31,1.87V222h-5.22V202.45Z"/><path class="cls-2" d="M840.38,207.35a13.71,13.71,0,0,0-1.88-.15c-2,0-3.27.67-3.88,2V222H829.4V202.45h4.93l.14,2.33a4.85,4.85,0,0,1,4.36-2.69,5.29,5.29,0,0,1,1.62.24Z"/><path class="cls-2" d="M851.55,222.36a9.58,9.58,0,0,1-7-2.64,9.37,9.37,0,0,1-2.7-7v-.51a11.82,11.82,0,0,1,1.13-5.27,8.36,8.36,0,0,1,3.23-3.57,9,9,0,0,1,4.76-1.26,8.09,8.09,0,0,1,6.31,2.53q2.31,2.53,2.31,7.17v2.13H847.14a4.89,4.89,0,0,0,1.53,3.08,4.59,4.59,0,0,0,3.22,1.15,5.67,5.67,0,0,0,4.72-2.18l2.56,2.87a7.78,7.78,0,0,1-3.18,2.59A10.45,10.45,0,0,1,851.55,222.36ZM851,206.3a3.25,3.25,0,0,0-2.52,1,5.49,5.49,0,0,0-1.24,3h7.27V210a4,4,0,0,0-.94-2.7A3.4,3.4,0,0,0,851,206.3Z"/><path class="cls-2" d="M861.79,212.08a11.42,11.42,0,0,1,2.14-7.24,6.94,6.94,0,0,1,5.77-2.75,6.11,6.11,0,0,1,5,2.2l.21-1.84h4.74v18.9a8.31,8.31,0,0,1-1.17,4.46,7.4,7.4,0,0,1-3.28,2.89,11.42,11.42,0,0,1-5,1,10.76,10.76,0,0,1-4.19-.86,7.46,7.46,0,0,1-3.09-2.21l2.31-3.18a6.15,6.15,0,0,0,4.74,2.18,4.48,4.48,0,0,0,3.23-1.11,4.17,4.17,0,0,0,1.16-3.15v-1.05a6.05,6.05,0,0,1-4.75,2,6.93,6.93,0,0,1-5.7-2.75,11.48,11.48,0,0,1-2.18-7.31Zm5.22.39a7.15,7.15,0,0,0,1.07,4.17,3.37,3.37,0,0,0,2.92,1.51,3.64,3.64,0,0,0,3.42-1.79v-8.23a3.61,3.61,0,0,0-3.38-1.79,3.39,3.39,0,0,0-2.95,1.54A8,8,0,0,0,867,212.47Z"/><path class="cls-2" d="M883.63,197.39a2.56,2.56,0,0,1,.79-1.93,3.38,3.38,0,0,1,4.27,0,2.56,2.56,0,0,1,.8,1.93,2.54,2.54,0,0,1-.81,2,3.34,3.34,0,0,1-4.24,0A2.54,2.54,0,0,1,883.63,197.39ZM889.18,222h-5.24V202.45h5.24Z"/><path class="cls-2" d="M904.07,216.6a1.69,1.69,0,0,0-1-1.51,10.42,10.42,0,0,0-3-1q-7-1.47-7-5.93a5.4,5.4,0,0,1,2.16-4.35,8.71,8.71,0,0,1,5.64-1.74,9.39,9.39,0,0,1,6,1.75,5.55,5.55,0,0,1,2.23,4.56h-5.22a2.52,2.52,0,0,0-.73-1.86,3.07,3.07,0,0,0-2.25-.73,3.15,3.15,0,0,0-2,.6,1.88,1.88,0,0,0-.72,1.52,1.64,1.64,0,0,0,.82,1.4,8.69,8.69,0,0,0,2.78.92,24,24,0,0,1,3.29.87q4.13,1.53,4.13,5.26a5.1,5.1,0,0,1-2.29,4.33,9.93,9.93,0,0,1-5.93,1.65,10.38,10.38,0,0,1-4.36-.87,7.35,7.35,0,0,1-3-2.41,5.58,5.58,0,0,1-1.08-3.29h5a2.74,2.74,0,0,0,1,2.13,4.13,4.13,0,0,0,2.57.74,3.78,3.78,0,0,0,2.27-.57A1.78,1.78,0,0,0,904.07,216.6Z"/><path class="cls-2" d="M918.75,197.65v4.8h3.35v3.83h-3.35V216a2.3,2.3,0,0,0,.42,1.55,2.07,2.07,0,0,0,1.59.47,8.64,8.64,0,0,0,1.53-.12v3.95a10.47,10.47,0,0,1-3.16.47c-3.66,0-5.52-1.85-5.6-5.55V206.28h-2.85v-3.83h2.85v-4.8Z"/><path class="cls-2" d="M936,207.35a13.71,13.71,0,0,0-1.88-.15c-2,0-3.27.67-3.88,2V222H925V202.45h4.94l.14,2.33a4.85,4.85,0,0,1,4.36-2.69,5.33,5.33,0,0,1,1.62.24Z"/><path class="cls-2" d="M946.13,214.61l3.61-12.16h5.6L947.48,225l-.43,1a6,6,0,0,1-5.79,3.83,8.18,8.18,0,0,1-2.31-.34v-4h.8a4.32,4.32,0,0,0,2.21-.45,3,3,0,0,0,1.15-1.5l.61-1.61-6.84-19.6h5.61Z"/></g></g><path id="路径_94" data-name="路径 94" class="cls-3" d="M1152.74,63l16,20.44H1087c-5.52,0-10,5.73-10,12.8v247c0,7.07,4.48,12.8,10,12.8h81.7l-16.49-20.7"/><g id="矩形_33" data-name="矩形 33"><rect class="cls-4" x="1219" y="149" width="210" height="57" rx="10"/><rect class="cls-5" x="1221.5" y="151.5" width="205" height="52" rx="7.5"/></g><g id="矩形_34" data-name="矩形 34"><rect class="cls-4" x="1219" y="54" width="210" height="57" rx="10"/><rect class="cls-5" x="1221.5" y="56.5" width="205" height="52" rx="7.5"/></g><g id="矩形_35" data-name="矩形 35"><rect class="cls-4" x="1219" y="244" width="210" height="57" rx="10"/><rect class="cls-5" x="1221.5" y="246.5" width="205" height="52" rx="7.5"/></g><g id="Token_2" data-name="Token 2" class="cls-1"><g class="cls-1"><path class="cls-2" d="M1283.5,169.46h-7.18V189h-4.84V169.46h-7.09v-3.92h19.11Z"/><path class="cls-2" d="M1281.88,180.12a10.26,10.26,0,0,1,1-4.62,7.22,7.22,0,0,1,2.87-3.14,8.32,8.32,0,0,1,4.36-1.12,7.94,7.94,0,0,1,5.76,2.16,8.66,8.66,0,0,1,2.49,5.87l0,1.19a9.1,9.1,0,0,1-2.24,6.44,8.69,8.69,0,0,1-12,0,9.3,9.3,0,0,1-2.25-6.58Zm4.65.33a6.51,6.51,0,0,0,.94,3.8,3.07,3.07,0,0,0,2.67,1.32,3.12,3.12,0,0,0,2.65-1.3,7.17,7.17,0,0,0,1-4.16,6.46,6.46,0,0,0-1-3.77,3.09,3.09,0,0,0-2.68-1.34,3,3,0,0,0-2.64,1.33A7.27,7.27,0,0,0,1286.53,180.45Z"/><path class="cls-2" d="M1307.59,182l-1.67,1.67V189h-4.66V164.25h4.66V178l.9-1.16,4.46-5.23h5.6l-6.3,7.26,6.84,10.17h-5.35Z"/><path class="cls-2" d="M1326.59,189.32a8.54,8.54,0,0,1-6.24-2.35,8.36,8.36,0,0,1-2.41-6.27v-.45a10.64,10.64,0,0,1,1-4.7,7.5,7.5,0,0,1,2.88-3.19,8.15,8.15,0,0,1,4.25-1.12,7.26,7.26,0,0,1,5.63,2.26,9.17,9.17,0,0,1,2,6.4v1.9h-11.1a4.31,4.31,0,0,0,1.36,2.74,4.16,4.16,0,0,0,2.88,1,5,5,0,0,0,4.2-1.95l2.29,2.56a7,7,0,0,1-2.83,2.31A9.26,9.26,0,0,1,1326.59,189.32Zm-.53-14.32a2.91,2.91,0,0,0-2.25.94,4.86,4.86,0,0,0-1.1,2.68h6.48v-.37a3.51,3.51,0,0,0-.84-2.4A3,3,0,0,0,1326.06,175Z"/><path class="cls-2" d="M1340.69,171.57l.15,2a6.07,6.07,0,0,1,5-2.34,5.06,5.06,0,0,1,4.12,1.63,7.56,7.56,0,0,1,1.39,4.87V189h-4.66V177.85a3,3,0,0,0-.64-2.15,2.88,2.88,0,0,0-2.15-.67,3.21,3.21,0,0,0-3,1.68V189h-4.65V171.57Z"/><path class="cls-2" d="M1379,189h-16.08v-3.19l7.59-8.09a18.83,18.83,0,0,0,2.31-3,4.78,4.78,0,0,0,.75-2.42,3.54,3.54,0,0,0-.79-2.45,2.83,2.83,0,0,0-2.25-.9,3,3,0,0,0-2.49,1.09,4.29,4.29,0,0,0-.91,2.86h-4.68a7.75,7.75,0,0,1,1-3.92,7.24,7.24,0,0,1,2.89-2.78,8.82,8.82,0,0,1,4.24-1,8.34,8.34,0,0,1,5.63,1.74,6.14,6.14,0,0,1,2,4.91,8,8,0,0,1-.9,3.55,19.69,19.69,0,0,1-3.09,4.2l-5.33,5.63H1379Z"/></g></g><g id="Token_1" data-name="Token 1" class="cls-1"><g class="cls-1"><path class="cls-2" d="M1283.5,74.46h-7.18V94h-4.84V74.46h-7.09V70.54h19.11Z"/><path class="cls-2" d="M1281.88,85.12a10.26,10.26,0,0,1,1-4.62,7.22,7.22,0,0,1,2.87-3.14,8.32,8.32,0,0,1,4.36-1.12,7.94,7.94,0,0,1,5.76,2.16,8.66,8.66,0,0,1,2.49,5.87l0,1.19a9.1,9.1,0,0,1-2.24,6.44,8.69,8.69,0,0,1-12,0,9.3,9.3,0,0,1-2.25-6.58Zm4.65.33a6.51,6.51,0,0,0,.94,3.8,3.07,3.07,0,0,0,2.67,1.32,3.12,3.12,0,0,0,2.65-1.3,7.17,7.17,0,0,0,1-4.16,6.46,6.46,0,0,0-1-3.77,3.09,3.09,0,0,0-2.68-1.34,3,3,0,0,0-2.64,1.33A7.27,7.27,0,0,0,1286.53,85.45Z"/><path class="cls-2" d="M1307.59,87l-1.67,1.67V94h-4.66V69.25h4.66V83l.9-1.16,4.46-5.23h5.6l-6.3,7.26L1317.42,94h-5.35Z"/><path class="cls-2" d="M1326.59,94.32a8.54,8.54,0,0,1-6.24-2.35,8.36,8.36,0,0,1-2.41-6.27v-.45a10.64,10.64,0,0,1,1-4.7,7.5,7.5,0,0,1,2.88-3.19,8.15,8.15,0,0,1,4.25-1.12,7.26,7.26,0,0,1,5.63,2.26,9.17,9.17,0,0,1,2,6.4v1.9h-11.1a4.31,4.31,0,0,0,1.36,2.74,4.16,4.16,0,0,0,2.88,1,5,5,0,0,0,4.2-1.95l2.29,2.56a7,7,0,0,1-2.83,2.31A9.26,9.26,0,0,1,1326.59,94.32ZM1326.06,80a2.91,2.91,0,0,0-2.25.94,4.86,4.86,0,0,0-1.1,2.68h6.48v-.37a3.51,3.51,0,0,0-.84-2.4A3,3,0,0,0,1326.06,80Z"/><path class="cls-2" d="M1340.69,76.57l.15,2a6.07,6.07,0,0,1,5-2.34,5.06,5.06,0,0,1,4.12,1.63,7.56,7.56,0,0,1,1.39,4.87V94h-4.66V82.85a3,3,0,0,0-.64-2.15,2.88,2.88,0,0,0-2.15-.67,3.21,3.21,0,0,0-3,1.68V94h-4.65V76.57Z"/><path class="cls-2" d="M1374.22,94h-4.65v-18L1364,77.77V74l9.71-3.48h.5Z"/></g></g><g id="Token_3" data-name="Token 3" class="cls-1"><g class="cls-1"><path class="cls-2" d="M1283.5,264.46h-7.18V284h-4.84V264.46h-7.09v-3.92h19.11Z"/><path class="cls-2" d="M1281.88,275.12a10.26,10.26,0,0,1,1-4.62,7.22,7.22,0,0,1,2.87-3.14,8.32,8.32,0,0,1,4.36-1.12,7.94,7.94,0,0,1,5.76,2.16,8.66,8.66,0,0,1,2.49,5.87l0,1.19a9.1,9.1,0,0,1-2.24,6.44,8.69,8.69,0,0,1-12,0,9.3,9.3,0,0,1-2.25-6.58Zm4.65.33a6.51,6.51,0,0,0,.94,3.8,3.07,3.07,0,0,0,2.67,1.32,3.12,3.12,0,0,0,2.65-1.3,7.17,7.17,0,0,0,1-4.16,6.46,6.46,0,0,0-1-3.77,3.09,3.09,0,0,0-2.68-1.34,3,3,0,0,0-2.64,1.33A7.27,7.27,0,0,0,1286.53,275.45Z"/><path class="cls-2" d="M1307.59,277l-1.67,1.67V284h-4.66V259.25h4.66V273l.9-1.16,4.46-5.23h5.6l-6.3,7.26,6.84,10.17h-5.35Z"/><path class="cls-2" d="M1326.59,284.32a8.54,8.54,0,0,1-6.24-2.35,8.36,8.36,0,0,1-2.41-6.27v-.45a10.64,10.64,0,0,1,1-4.7,7.5,7.5,0,0,1,2.88-3.19,8.15,8.15,0,0,1,4.25-1.12,7.26,7.26,0,0,1,5.63,2.26,9.17,9.17,0,0,1,2,6.4v1.9h-11.1a4.31,4.31,0,0,0,1.36,2.74,4.16,4.16,0,0,0,2.88,1,5,5,0,0,0,4.2-1.95l2.29,2.56a7,7,0,0,1-2.83,2.31A9.26,9.26,0,0,1,1326.59,284.32Zm-.53-14.32a2.91,2.91,0,0,0-2.25.94,4.86,4.86,0,0,0-1.1,2.68h6.48v-.37a3.51,3.51,0,0,0-.84-2.4A3,3,0,0,0,1326.06,270Z"/><path class="cls-2" d="M1340.69,266.57l.15,2a6.07,6.07,0,0,1,5-2.34,5.06,5.06,0,0,1,4.12,1.63,7.56,7.56,0,0,1,1.39,4.87V284h-4.66V272.85a3,3,0,0,0-.64-2.15,2.88,2.88,0,0,0-2.15-.67,3.21,3.21,0,0,0-3,1.68V284h-4.65V266.57Z"/><path class="cls-2" d="M1367.65,270.21h2.48a3.51,3.51,0,0,0,2.63-.89,3.23,3.23,0,0,0,.85-2.35,2.86,2.86,0,0,0-.85-2.21,3.25,3.25,0,0,0-2.32-.79,3.47,3.47,0,0,0-2.24.73,2.34,2.34,0,0,0-.91,1.91h-4.65a5.72,5.72,0,0,1,1-3.29,6.61,6.61,0,0,1,2.77-2.28,9.21,9.21,0,0,1,3.92-.82,8.78,8.78,0,0,1,5.84,1.78,6.08,6.08,0,0,1,2.11,4.9,4.91,4.91,0,0,1-1,3,6.43,6.43,0,0,1-2.57,2.08,5.47,5.47,0,0,1,3.93,5.48,6.18,6.18,0,0,1-2.28,5,9.21,9.21,0,0,1-6,1.88,8.66,8.66,0,0,1-5.74-1.85,6.05,6.05,0,0,1-2.23-4.9H1367a2.7,2.7,0,0,0,1,2.16,4.14,4.14,0,0,0,5,0,3,3,0,0,0,.94-2.33q0-3.51-3.87-3.51h-2.46Z"/></g></g><g id="_......" data-name=" ......" class="cls-1"><g class="cls-1"><path class="cls-2" d="M1313.29,319.27a2.33,2.33,0,0,1,1.8.75,2.66,2.66,0,0,1,.7,1.87,2.7,2.7,0,0,1-.7,1.9,2.52,2.52,0,0,1-3.58,0,2.7,2.7,0,0,1-.69-1.91,2.64,2.64,0,0,1,.69-1.88A2.32,2.32,0,0,1,1313.29,319.27Z"/><path class="cls-2" d="M1313.29,328.86a2.36,2.36,0,0,1,1.8.74,2.9,2.9,0,0,1,0,3.78,2.33,2.33,0,0,1-1.8.75,2.29,2.29,0,0,1-1.78-.75,2.93,2.93,0,0,1,0-3.78A2.28,2.28,0,0,1,1313.29,328.86Z"/><path class="cls-2" d="M1313.29,338.44a2.33,2.33,0,0,1,1.8.75,2.89,2.89,0,0,1,0,3.77,2.52,2.52,0,0,1-3.58,0,2.95,2.95,0,0,1,0-3.79A2.32,2.32,0,0,1,1313.29,338.44Z"/><path class="cls-2" d="M1313.29,348a2.33,2.33,0,0,1,1.8.75,2.89,2.89,0,0,1,0,3.77,2.52,2.52,0,0,1-3.58,0,2.95,2.95,0,0,1,0-3.79A2.32,2.32,0,0,1,1313.29,348Z"/><path class="cls-2" d="M1313.29,357.62a2.33,2.33,0,0,1,1.8.75,2.66,2.66,0,0,1,.7,1.87,2.7,2.7,0,0,1-.7,1.9,2.52,2.52,0,0,1-3.58,0,2.7,2.7,0,0,1-.69-1.91,2.64,2.64,0,0,1,.69-1.88A2.32,2.32,0,0,1,1313.29,357.62Z"/><path class="cls-2" d="M1313.29,367.21a2.36,2.36,0,0,1,1.8.74,2.89,2.89,0,0,1,0,3.77,2.33,2.33,0,0,1-1.8.75,2.28,2.28,0,0,1-1.78-.74,2.93,2.93,0,0,1,0-3.78A2.28,2.28,0,0,1,1313.29,367.21Z"/></g></g><path id="路径_96" data-name="路径 96" class="cls-3" d="M1152.22,149l15.71,20.86H1087c-5.52,0-10,5.62-10,12.65v75.73c0,7,4.48,12.73,10,12.73h80.93l-15.71-20.22"/><g id="矩形_43" data-name="矩形 43"><rect class="cls-4" x="694" y="176" width="284" height="67" rx="10"/><rect class="cls-6" x="695.5" y="177.5" width="281" height="64" rx="8.5"/></g><g id="矩形_44" data-name="矩形 44"><rect class="cls-4" x="1209" y="139" width="230" height="77" rx="10"/><rect class="cls-6" x="1210.5" y="140.5" width="227" height="74" rx="8.5"/></g><g id="矩形_45" data-name="矩形 45"><rect class="cls-4" x="1209" y="44" width="230" height="77" rx="10"/><rect class="cls-6" x="1210.5" y="45.5" width="227" height="74" rx="8.5"/></g><g id="矩形_46" data-name="矩形 46"><rect class="cls-4" x="1209" y="234" width="230" height="77" rx="10"/><rect class="cls-6" x="1210.5" y="235.5" width="227" height="74" rx="8.5"/></g><path id="路径_98" data-name="路径 98" class="cls-6" d="M129,314.13h47.3a7,7,0,0,1,7,7h0V332a7,7,0,0,1-7,7H129a7,7,0,0,1-7-7V321.13A7,7,0,0,1,129,314.13Z"/><g id="_Canister" data-name=" Canister" class="cls-1"><g class="cls-1"><path class="cls-2" d="M208.35,324.86h-10.1v-2.37h10.1Zm0,5h-10.1v-2.36h10.1Z"/><path class="cls-2" d="M230.71,328.45a6.16,6.16,0,0,1-2,4.26,7,7,0,0,1-4.68,1.52,6.67,6.67,0,0,1-3.59-1,6.33,6.33,0,0,1-2.4-2.75,10.09,10.09,0,0,1-.88-4.14v-1.59a10,10,0,0,1,.86-4.25,6.44,6.44,0,0,1,2.45-2.84,6.9,6.9,0,0,1,3.7-1,6.61,6.61,0,0,1,4.55,1.53,6.41,6.41,0,0,1,2,4.33h-3a4.23,4.23,0,0,0-1.07-2.65,3.58,3.58,0,0,0-2.53-.82,3.44,3.44,0,0,0-3,1.42,7,7,0,0,0-1.06,4.14v1.52a7.5,7.5,0,0,0,1,4.22,3.28,3.28,0,0,0,2.9,1.45,3.83,3.83,0,0,0,2.62-.78,4.1,4.1,0,0,0,1.12-2.61Z"/><path class="cls-2" d="M240.66,334a4.87,4.87,0,0,1-.33-1.18,4.79,4.79,0,0,1-6.44.32,3.45,3.45,0,0,1-1.21-2.69,3.59,3.59,0,0,1,1.51-3.11,7.3,7.3,0,0,1,4.3-1.09h1.75v-.83a2.24,2.24,0,0,0-.55-1.57,2.18,2.18,0,0,0-1.68-.6,2.51,2.51,0,0,0-1.59.49,1.49,1.49,0,0,0-.62,1.24H233a3.14,3.14,0,0,1,.69-2,4.64,4.64,0,0,1,1.88-1.43,6.68,6.68,0,0,1,2.66-.51,5.32,5.32,0,0,1,3.55,1.12,4,4,0,0,1,1.36,3.14v5.72a6.49,6.49,0,0,0,.48,2.73v.2ZM237.53,332a3.3,3.3,0,0,0,1.59-.41,2.7,2.7,0,0,0,1.12-1.1v-2.39H238.7a4.21,4.21,0,0,0-2.38.55,1.77,1.77,0,0,0-.79,1.56,1.66,1.66,0,0,0,.54,1.3A2.1,2.1,0,0,0,237.53,332Z"/><path class="cls-2" d="M248.71,321.32l.08,1.47a4.54,4.54,0,0,1,3.69-1.7c2.65,0,4,1.51,4,4.53V334h-2.85v-8.21a2.64,2.64,0,0,0-.52-1.79,2.2,2.2,0,0,0-1.71-.58,2.73,2.73,0,0,0-2.56,1.56v9H246V321.32Z"/><path class="cls-2" d="M259.42,318a1.5,1.5,0,0,1,.42-1.09,1.83,1.83,0,0,1,2.38,0,1.5,1.5,0,0,1,.42,1.09,1.47,1.47,0,0,1-.42,1.07,1.86,1.86,0,0,1-2.38,0A1.47,1.47,0,0,1,259.42,318Zm3,16H259.6V321.32h2.85Z"/><path class="cls-2" d="M272.65,330.55a1.32,1.32,0,0,0-.62-1.16,6.85,6.85,0,0,0-2.08-.7,10.72,10.72,0,0,1-2.43-.77,3.25,3.25,0,0,1-2.13-3,3.37,3.37,0,0,1,1.38-2.74,5.43,5.43,0,0,1,3.52-1.1,5.68,5.68,0,0,1,3.67,1.12,3.58,3.58,0,0,1,1.4,2.92h-2.85a1.76,1.76,0,0,0-.61-1.37,2.32,2.32,0,0,0-1.61-.54,2.5,2.5,0,0,0-1.53.43,1.37,1.37,0,0,0-.6,1.16,1.16,1.16,0,0,0,.55,1,7.51,7.51,0,0,0,2.23.73,10.54,10.54,0,0,1,2.63.88,3.7,3.7,0,0,1,1.42,1.23,3.08,3.08,0,0,1,.46,1.73,3.3,3.3,0,0,1-1.41,2.77,6.05,6.05,0,0,1-3.72,1.06,6.51,6.51,0,0,1-2.78-.56,4.63,4.63,0,0,1-1.9-1.54A3.72,3.72,0,0,1,265,330h2.77a2,2,0,0,0,.76,1.56,3,3,0,0,0,1.87.54,2.84,2.84,0,0,0,1.71-.43A1.3,1.3,0,0,0,272.65,330.55Z"/><path class="cls-2" d="M281.5,318.24v3.08h2.24v2.11H281.5v7.08a1.59,1.59,0,0,0,.29,1.05,1.34,1.34,0,0,0,1,.32,4.34,4.34,0,0,0,1-.12V334a7,7,0,0,1-1.88.27c-2.18,0-3.28-1.2-3.28-3.62v-7.18h-2.08v-2.11h2.08v-3.08Z"/><path class="cls-2" d="M291.5,334.23a5.87,5.87,0,0,1-4.39-1.7,6.19,6.19,0,0,1-1.68-4.54v-.35a7.62,7.62,0,0,1,.73-3.4,5.58,5.58,0,0,1,2-2.32,5.42,5.42,0,0,1,3-.83,5,5,0,0,1,4,1.65,7,7,0,0,1,1.41,4.67v1.15H288.3a3.76,3.76,0,0,0,1.05,2.49,3.13,3.13,0,0,0,2.31.91,3.88,3.88,0,0,0,3.19-1.58l1.53,1.46a5.06,5.06,0,0,1-2,1.77A6.34,6.34,0,0,1,291.5,334.23Zm-.34-10.86a2.4,2.4,0,0,0-1.9.82,4.33,4.33,0,0,0-.92,2.29h5.43v-.21a3.49,3.49,0,0,0-.76-2.17A2.41,2.41,0,0,0,291.16,323.37Z"/><path class="cls-2" d="M305.43,323.92a7.36,7.36,0,0,0-1.16-.09,2.62,2.62,0,0,0-2.64,1.5V334h-2.84V321.32h2.71l.07,1.42a3.21,3.21,0,0,1,2.86-1.65,2.64,2.64,0,0,1,1,.16Z"/></g></g></g><g id="矩形_36" data-name="矩形 36"><rect class="cls-4" width="1560" height="418" rx="20"/><rect class="cls-7" x="2" y="2" width="1556" height="414" rx="18"/></g></g></g></g></svg>