<svg xmlns="http://www.w3.org/2000/svg" width="127" height="127" viewBox="0 0 127 127">
  <g id="组_15" data-name="组 15" transform="translate(3376.349 3945.977)">
    <g id="组_14" data-name="组 14" transform="translate(-3372.849 -3942.477)">
      <path id="路径_19" data-name="路径 19" d="M-3372.849-3905.848v-34.3h35.066" transform="translate(3372.849 3940.53)" fill="none" stroke="#fff" stroke-linecap="round" stroke-linejoin="round" stroke-width="7"/>
      <path id="路径_20" data-name="路径 20" d="M-2821.7-3424.063v34.3h-35.065" transform="translate(2941.701 3509.381)" fill="none" stroke="#fff" stroke-linecap="round" stroke-linejoin="round" stroke-width="7"/>
      <path id="路径_21" data-name="路径 21" d="M-3336.221-3391.328h-34.3v-35.066" transform="translate(3370.903 3511.328)" fill="none" stroke="#fff" stroke-linecap="round" stroke-linejoin="round" stroke-width="7"/>
      <path id="路径_22" data-name="路径 22" d="M-2854.436-3942.476h34.3v35.065" transform="translate(2939.754 3942.476)" fill="none" stroke="#fff" stroke-linecap="round" stroke-linejoin="round" stroke-width="7"/>
    </g>
    <line id="直线_1" data-name="直线 1" y2="76.95" transform="translate(-3330.872 -3919.556)" fill="none" stroke="#fff" stroke-linecap="round" stroke-linejoin="round" stroke-width="7"/>
    <line id="直线_2" data-name="直线 2" x2="19.13" transform="translate(-3350.002 -3906.279)" fill="none" stroke="#fff" stroke-linecap="round" stroke-linejoin="round" stroke-width="7"/>
    <line id="直线_3" data-name="直线 3" y1="2" x2="9" transform="translate(-3340.35 -3894.977)" fill="none" stroke="#fff" stroke-linecap="round" stroke-linejoin="round" stroke-width="7"/>
    <line id="直线_4" data-name="直线 4" x2="19.13" transform="translate(-3350.002 -3881.081)" fill="none" stroke="#fff" stroke-linecap="round" stroke-linejoin="round" stroke-width="7"/>
    <line id="直线_5" data-name="直线 5" x2="9.565" transform="translate(-3340.437 -3868.482)" fill="none" stroke="#fff" stroke-linecap="round" stroke-linejoin="round" stroke-width="7"/>
    <line id="直线_6" data-name="直线 6" x2="19.13" transform="translate(-3350.002 -3855.883)" fill="none" stroke="#fff" stroke-linecap="round" stroke-linejoin="round" stroke-width="7"/>
    <path id="路径_23" data-name="路径 23" d="M-2989.327-3711.817a9.681,9.681,0,0,0-13.692,0l-32.572,32.572v13.691h13.692l32.572-32.573A9.682,9.682,0,0,0-2989.327-3711.817Z" transform="translate(-281.754 -190.33)" fill="none" stroke="#fff" stroke-linecap="round" stroke-linejoin="round" stroke-width="7"/>
    <line id="直线_7" data-name="直线 7" x2="13.691" y2="13.691" transform="translate(-3289.823 -3897.097)" fill="none" stroke="#fff" stroke-linecap="round" stroke-linejoin="round" stroke-width="7"/>
  </g>
</svg>
