<svg xmlns="http://www.w3.org/2000/svg" xmlns:xlink="http://www.w3.org/1999/xlink" viewBox="0 0 240.285 48.58">
  <defs>
    <linearGradient id="linear-gradient" y1="0.5" x2="1" y2="0.5" gradientUnits="objectBoundingBox">
      <stop offset="0" stop-color="#3dc4ed"/>
      <stop offset="1" stop-color="#2976ba"/>
    </linearGradient>
    <linearGradient id="linear-gradient-2" y1="0.5" x2="1" y2="0.5" gradientUnits="objectBoundingBox">
      <stop offset="0" stop-color="#5a68d2"/>
      <stop offset="0.234" stop-color="#5d66d2"/>
      <stop offset="0.443" stop-color="#6862d2"/>
      <stop offset="0.641" stop-color="#7a5bd3"/>
      <stop offset="0.831" stop-color="#9351d5"/>
      <stop offset="1" stop-color="#b146d7"/>
    </linearGradient>
    <linearGradient id="linear-gradient-3" y1="0.5" x2="1" y2="0.5" gradientUnits="objectBoundingBox">
      <stop offset="0" stop-color="#618fe0"/>
      <stop offset="1" stop-color="#6962d6"/>
    </linearGradient>
  </defs>
  <g id="组_65" data-name="组 65" transform="translate(-1364.275 -367.918)">
    <g id="组_2" data-name="组 2" transform="translate(1421.811 381.883)">
      <g id="DFINANCE-2" style="isolation: isolate">
        <g id="组_1" data-name="组 1" style="isolation: isolate">
          <path id="路径_1" data-name="路径 1" d="M1481.469,401.042a18.527,18.527,0,0,1-.4,3.874,15.378,15.378,0,0,1-1.222,3.558,13.281,13.281,0,0,1-2.064,3.057,12.41,12.41,0,0,1-2.943,2.39,14.93,14.93,0,0,1-3.857,1.563,19.06,19.06,0,0,1-4.8.562h-10.191l5.359-25.2h8.855a14.4,14.4,0,0,1,4.876.755,9.974,9.974,0,0,1,3.522,2.1,8.629,8.629,0,0,1,2.144,3.215A11.391,11.391,0,0,1,1481.469,401.042Zm-6.009.439a7.521,7.521,0,0,0-.4-2.521,4.733,4.733,0,0,0-1.212-1.889,5.438,5.438,0,0,0-2.064-1.186,9.428,9.428,0,0,0-2.952-.413h-2.758l-3.391,15.972h3.461a10.047,10.047,0,0,0,3.865-.711,8.221,8.221,0,0,0,2.935-2.021,8.965,8.965,0,0,0,1.863-3.145A12.188,12.188,0,0,0,1475.46,401.481Z" transform="translate(-1455.992 -390.429)" fill="#242424"/>
          <path id="路径_2" data-name="路径 2" d="M1518.139,395.543h-8.873l-1.3,6.079h8.17l-1.019,4.674h-8.153l-2.056,9.752h-5.728l5.359-25.2h14.583Z" transform="translate(-1472.087 -390.429)" fill="#242424"/>
          <path id="路径_3" data-name="路径 3" d="M1534.794,416.047h-5.728l5.324-25.2h5.727Z" transform="translate(-1483.225 -390.429)" fill="#242424"/>
          <path id="路径_4" data-name="路径 4" d="M1570.313,416.047h-5.183l-7.889-16.006q-.105-.211-.228-.492t-.246-.571q-.123-.29-.229-.554a3.929,3.929,0,0,1-.158-.474h-.105q-.088.65-.193,1.458a14.977,14.977,0,0,1-.3,1.6l-3.215,15.04h-5.324l5.324-25.2h5.622l7.555,15.41q.088.194.22.465t.263.562q.131.29.245.571a3.868,3.868,0,0,1,.167.492h.07c.012-.176.029-.372.053-.589s.053-.436.088-.659.073-.439.114-.651.079-.4.115-.561l3.2-15.041h5.359Z" transform="translate(-1489.999 -390.429)" fill="#242424"/>
          <path id="路径_5" data-name="路径 5" d="M1607.935,416.047l-.721-5.6h-9.03l-2.952,5.6h-6.395l14.53-25.2h6.764l3.6,25.2Zm-2.055-18.466c-.012-.188-.021-.4-.026-.624s-.006-.449,0-.659.014-.4.026-.571.023-.3.035-.378h-.105a3.426,3.426,0,0,1-.123.4c-.059.164-.125.343-.2.536s-.164.4-.264.606-.2.416-.307.615l-4.6,8.574h6.483Z" transform="translate(-1505.5 -390.429)" fill="#242424"/>
          <path id="路径_6" data-name="路径 6" d="M1656.467,416.047h-5.183l-7.889-16.006q-.106-.211-.229-.492t-.246-.571q-.123-.29-.228-.554a3.723,3.723,0,0,1-.158-.474h-.105q-.088.65-.193,1.458a14.679,14.679,0,0,1-.3,1.6l-3.215,15.04H1633.4l5.324-25.2h5.622l7.556,15.41q.088.194.22.465c.088.182.175.369.263.562s.169.384.245.571a3.793,3.793,0,0,1,.167.492h.07c.012-.176.03-.372.053-.589s.053-.436.088-.659.073-.439.114-.651.079-.4.114-.561l3.2-15.041h5.359Z" transform="translate(-1522.107 -390.429)" fill="#242424"/>
          <path id="路径_7" data-name="路径 7" d="M1702,396.7q-.528-.28-1.134-.563a10.415,10.415,0,0,0-1.327-.5,12.411,12.411,0,0,0-1.555-.361,10.994,10.994,0,0,0-1.818-.14,9.793,9.793,0,0,0-4.033.782,8.725,8.725,0,0,0-2.943,2.1,8.929,8.929,0,0,0-1.81,3.058,10.941,10.941,0,0,0-.614,3.672,7.827,7.827,0,0,0,.474,2.829,5.55,5.55,0,0,0,1.353,2.065,5.774,5.774,0,0,0,2.109,1.265,8.3,8.3,0,0,0,2.758.431,11.744,11.744,0,0,0,1.81-.132,12.615,12.615,0,0,0,1.6-.352,13.533,13.533,0,0,0,1.432-.5q.677-.281,1.292-.6l-1.194,5.359a13.976,13.976,0,0,1-2.873.836,19.689,19.689,0,0,1-3.54.289,13.431,13.431,0,0,1-4.726-.782,9.461,9.461,0,0,1-5.737-5.675,12.569,12.569,0,0,1-.764-4.489,17.742,17.742,0,0,1,.422-3.874,15.136,15.136,0,0,1,1.274-3.566,13.75,13.75,0,0,1,2.144-3.084,12.978,12.978,0,0,1,3.039-2.425,15.541,15.541,0,0,1,3.971-1.59,19.756,19.756,0,0,1,4.911-.571,17.839,17.839,0,0,1,1.969.105q.948.105,1.81.272t1.59.369q.729.2,1.292.4Z" transform="translate(-1539.757 -390.179)" fill="#242424"/>
          <path id="路径_8" data-name="路径 8" d="M1734.518,395.472h-8.8l-1.2,5.675h8.205l-1,4.639h-8.171l-1.23,5.657h9.4l-.984,4.6h-15.11l5.359-25.2H1735.5Z" transform="translate(-1552.753 -390.429)" fill="#242424"/>
        </g>
      </g>
    </g>
    <g id="组_4" data-name="组 4" transform="translate(1364.275 367.918)">
      <path id="路径_9" data-name="路径 9" d="M1380.188,381.354a10.854,10.854,0,0,1,7.754,18.449,11.018,11.018,0,0,1-7.88,3.259h-4.253a2.37,2.37,0,0,1-2.37-2.37V383.724a2.37,2.37,0,0,1,2.37-2.37h4.379m2.094-13.436h-15.514a2.492,2.492,0,0,0-2.492,2.492v43.6a2.492,2.492,0,0,0,2.492,2.492h15.514a24.29,24.29,0,0,0,24.29-24.29h0a24.289,24.289,0,0,0-24.29-24.29Z" transform="translate(-1364.275 -367.918)" fill="url(#linear-gradient)"/>
      <g id="组_3" data-name="组 3" transform="translate(13.888)">
        <path id="路径_10" data-name="路径 10" d="M1390.532,367.918h-4.118a24.6,24.6,0,0,1,20.725,23.867q0,.211.005.422h0q0,.213-.005.423a24.6,24.6,0,0,1-20.725,23.867h4.118a24.289,24.289,0,0,0,24.29-24.29h0A24.289,24.289,0,0,0,1390.532,367.918Z" transform="translate(-1386.414 -367.918)" fill="url(#linear-gradient-2)"/>
      </g>
      <path id="路径_11" data-name="路径 11" d="M1364.275,373.28c0,11.41,8.227,17.579,8.227,25.469s-8.227,12.252-8.227,16.383Z" transform="translate(-1364.275 -369.916)" fill="url(#linear-gradient-3)"/>
    </g>
  </g>
</svg>
