<svg xmlns="http://www.w3.org/2000/svg" width="127" height="115.651" viewBox="0 0 127 115.651">
  <g id="组_17" data-name="组 17" transform="translate(3375.184 2168.736)">
    <path id="路径_24" data-name="路径 24" d="M-3210.2-2041.676v18.1c0,11.3,19.118,20.466,42.7,20.466s42.7-9.163,42.7-20.466v-18.1" transform="translate(-134.735 -103.095)" fill="none" stroke="#fff" stroke-linecap="round" stroke-linejoin="round" stroke-width="7" fill-rule="evenodd"/>
    <line id="直线_8" data-name="直线 8" y2="17.868" transform="translate(-3272.78 -2129.954)" fill="none" stroke="#fff" stroke-linecap="round" stroke-linejoin="round" stroke-width="4"/>
    <line id="直线_9" data-name="直线 9" y2="17.868" transform="translate(-3279.749 -2127.371)" fill="none" stroke="#fff" stroke-linecap="round" stroke-linejoin="round" stroke-width="4"/>
    <path id="路径_25" data-name="路径 25" d="M-3294.385-1967.036c-7.759,5.131-20.366,8.469-34.6,8.469-23.583,0-42.7-9.163-42.7-20.466,0-8.6,11.067-15.96,26.747-18.99" transform="translate(0 -139.518)" fill="none" stroke="#fff" stroke-linecap="round" stroke-linejoin="round" stroke-width="7" fill-rule="evenodd"/>
    <path id="路径_26" data-name="路径 26" d="M-3371.684-1883.375v18.1c0,11.3,19.118,20.466,42.7,20.466s42.7-9.163,42.7-20.466v-7.231" transform="translate(0 -235.176)" fill="none" stroke="#fff" stroke-linecap="round" stroke-linejoin="round" stroke-width="7" fill-rule="evenodd"/>
    <line id="直线_10" data-name="直线 10" y2="17.868" transform="translate(-3355.73 -2102.598)" fill="none" stroke="#fff" stroke-linecap="round" stroke-linejoin="round" stroke-width="7"/>
    <line id="直线_11" data-name="直线 11" y2="17.868" transform="translate(-3299.526 -2103.734)" fill="none" stroke="#fff" stroke-linecap="round" stroke-linejoin="round" stroke-width="4"/>
    <line id="直线_12" data-name="直线 12" y2="17.868" transform="translate(-3306.496 -2101.151)" fill="none" stroke="#fff" stroke-linecap="round" stroke-linejoin="round" stroke-width="4"/>
    <line id="直线_13" data-name="直线 13" y2="17.868" transform="translate(-3314.203 -2099.344)" fill="none" stroke="#fff" stroke-linecap="round" stroke-linejoin="round" stroke-width="4"/>
    <path id="路径_27" data-name="路径 27" d="M-3028.622-1846.5c11.94,3.629,19.865,10.019,19.865,17.3,0,11.3-19.118,20.466-42.7,20.466-11.232,0-21.451-2.078-29.075-5.477" transform="translate(-242.927 -265.939)" fill="none" stroke="#fff" stroke-linecap="round" stroke-linejoin="round" stroke-width="7" fill-rule="evenodd"/>
    <path id="路径_28" data-name="路径 28" d="M-3162.8-1727.287v3.306c0,11.3,19.118,20.466,42.7,20.466s42.7-9.163,42.7-20.466v-18.1" transform="translate(-174.288 -353.07)" fill="none" stroke="#fff" stroke-linecap="round" stroke-linejoin="round" stroke-width="7" fill-rule="evenodd"/>
    <line id="直线_14" data-name="直线 14" y2="17.868" transform="translate(-3263.507 -2081.011)" fill="none" stroke="#fff" stroke-linecap="round" stroke-linejoin="round" stroke-width="7"/>
    <line id="直线_15" data-name="直线 15" y2="17.868" transform="translate(-3278.247 -2076.193)" fill="none" stroke="#fff" stroke-linecap="round" stroke-linejoin="round" stroke-width="4"/>
    <ellipse id="oval_2" data-name="oval 2" cx="42.701" cy="20.466" rx="42.701" ry="20.466" transform="translate(-3344.937 -2165.236)" fill="none" stroke="#fff" stroke-linecap="round" stroke-linejoin="round" stroke-width="7"/>
  </g>
</svg>
