<svg xmlns="http://www.w3.org/2000/svg" xmlns:xlink="http://www.w3.org/1999/xlink" width="142" height="142" viewBox="0 0 142 142">
  <defs>
    <linearGradient id="linear-gradient" x1="0.5" x2="0.5" y2="1" gradientUnits="objectBoundingBox">
      <stop offset="0" stop-color="#3dc4ed"/>
      <stop offset="1" stop-color="#2976ba"/>
    </linearGradient>
    <linearGradient id="linear-gradient-2" x1="0.5" x2="0.5" y2="1" gradientUnits="objectBoundingBox">
      <stop offset="0" stop-color="#5a68d2"/>
      <stop offset="1" stop-color="#b146d7"/>
    </linearGradient>
    <linearGradient id="linear-gradient-4" x1="0.5" x2="0.5" y2="1" gradientUnits="objectBoundingBox">
      <stop offset="0" stop-color="#e21f79"/>
      <stop offset="1" stop-color="#a019ba"/>
    </linearGradient>
  </defs>
  <g id="_1" data-name="1" transform="translate(-39 -29)">
    <g id="组_19" data-name="组 19" transform="translate(-346.974 -658.974)">
      <rect id="矩形_4" data-name="矩形 4" width="142" height="142" transform="translate(385.974 687.974)" fill="url(#linear-gradient)"/>
      <path id="路径_29" data-name="路径 29" d="M-2797.805-3898.463v-44.014h-41.026s5.673,53-39.707,71.886-61.215,28.577-61.215,28.577v41.484h100.922s-20.224-18.086,4.258-41.966S-2797.805-3869.048-2797.805-3898.463Z" transform="translate(3325.753 4630.477)" fill="url(#linear-gradient-2)"/>
      <path id="路径_30" data-name="路径 30" d="M-3289.165-3940.53h-83.684v41.026s15.288,25.864,56.663,14.668S-3289.165-3940.53-3289.165-3940.53Z" transform="translate(3758.849 4628.53)" fill="url(#linear-gradient-2)"/>
      <path id="路径_34" data-name="路径 34" d="M-2989.327-3711.817a9.681,9.681,0,0,0-13.692,0l-32.572,32.572v13.691h13.692l32.572-32.573A9.682,9.682,0,0,0-2989.327-3711.817Z" transform="translate(3488.069 4451.121)" fill="url(#linear-gradient-4)"/>
    </g>
    <g id="组_15" data-name="组 15" transform="translate(3422.85 3982.477)">
      <g id="组_14" data-name="组 14" transform="translate(-3372.849 -3942.477)">
        <path id="路径_19" data-name="路径 19" d="M-3372.849-3905.848v-34.3h35.066" transform="translate(3372.849 3940.53)" fill="none" stroke="##fff" stroke-linecap="round" stroke-linejoin="round" stroke-width="7"/>
        <path id="路径_20" data-name="路径 20" d="M-2821.7-3424.063v34.3h-35.065" transform="translate(2941.701 3509.381)" fill="none" stroke="##fff" stroke-linecap="round" stroke-linejoin="round" stroke-width="7"/>
        <path id="路径_21" data-name="路径 21" d="M-3336.221-3391.328h-34.3v-35.066" transform="translate(3370.903 3511.328)" fill="none" stroke="##fff" stroke-linecap="round" stroke-linejoin="round" stroke-width="7"/>
        <path id="路径_22" data-name="路径 22" d="M-2854.436-3942.476h34.3v35.065" transform="translate(2939.754 3942.476)" fill="none" stroke="##fff" stroke-linecap="round" stroke-linejoin="round" stroke-width="7"/>
      </g>
      <line id="直线_1" data-name="直线 1" y2="76.95" transform="translate(-3330.872 -3919.556)" fill="none" stroke="##fff" stroke-linecap="round" stroke-linejoin="round" stroke-width="7"/>
      <line id="直线_2" data-name="直线 2" x2="19.13" transform="translate(-3350.002 -3906.279)" fill="none" stroke="##fff" stroke-linecap="round" stroke-linejoin="round" stroke-width="7"/>
      <line id="直线_3" data-name="直线 3" x2="9.565" transform="translate(-3340.437 -3893.68)" fill="none" stroke="##fff" stroke-linecap="round" stroke-linejoin="round" stroke-width="7"/>
      <line id="直线_4" data-name="直线 4" x2="19.13" transform="translate(-3350.002 -3881.081)" fill="none" stroke="##fff" stroke-linecap="round" stroke-linejoin="round" stroke-width="7"/>
      <line id="直线_5" data-name="直线 5" x2="9.565" transform="translate(-3340.437 -3868.482)" fill="none" stroke="##fff" stroke-linecap="round" stroke-linejoin="round" stroke-width="7"/>
      <line id="直线_6" data-name="直线 6" x2="19.13" transform="translate(-3350.002 -3855.883)" fill="none" stroke="##fff" stroke-linecap="round" stroke-linejoin="round" stroke-width="7"/>
      <path id="路径_23" data-name="路径 23" d="M-2989.327-3711.817a9.681,9.681,0,0,0-13.692,0l-32.572,32.572v13.691h13.692l32.572-32.573A9.682,9.682,0,0,0-2989.327-3711.817Z" transform="translate(-281.754 -190.33)" fill="none" stroke="##fff" stroke-linecap="round" stroke-linejoin="round" stroke-width="7"/>
      <line id="直线_7" data-name="直线 7" x2="13.691" y2="13.691" transform="translate(-3289.823 -3897.097)" fill="none" stroke="##fff" stroke-linecap="round" stroke-linejoin="round" stroke-width="7"/>
    </g>
  </g>
</svg>
