<svg xmlns="http://www.w3.org/2000/svg" xmlns:xlink="http://www.w3.org/1999/xlink" width="142" height="142" viewBox="0 0 142 142">
  <defs>
    <linearGradient id="linear-gradient" x1="0.5" x2="0.5" y2="1" gradientUnits="objectBoundingBox">
      <stop offset="0" stop-color="#3dc4ed"/>
      <stop offset="1" stop-color="#2976ba"/>
    </linearGradient>
    <linearGradient id="linear-gradient-2" x1="0.5" x2="0.5" y2="1" gradientUnits="objectBoundingBox">
      <stop offset="0" stop-color="#5a68d2"/>
      <stop offset="1" stop-color="#b146d7"/>
    </linearGradient>
    <linearGradient id="linear-gradient-3" x1="0.048" y1="0.426" x2="0.96" y2="0.658" gradientUnits="objectBoundingBox">
      <stop offset="0" stop-color="#f89e36"/>
      <stop offset="1" stop-color="#ffab4a"/>
    </linearGradient>
    <linearGradient id="linear-gradient-4" x1="0.052" y1="0.317" x2="1" y2="0.609" gradientUnits="objectBoundingBox">
      <stop offset="0" stop-color="#e21f79"/>
      <stop offset="1" stop-color="#a019ba"/>
    </linearGradient>
    <linearGradient id="linear-gradient-6" x1="0.052" y1="0.317" x2="1" y2="0.609" xlink:href="#linear-gradient"/>
  </defs>
  <g id="_2" data-name="2" transform="translate(-34 -29)">
    <g id="组_20" data-name="组 20" transform="translate(-351.853 -658.853)">
      <rect id="矩形_4" data-name="矩形 4" width="142" height="142" transform="translate(385.853 687.853)" fill="url(#linear-gradient)"/>
      <path id="路径_29" data-name="路径 29" d="M-2798.051-3877.176v-65.3h-67.213s-4.314,24.842-28.14,35.45-46.35-7.135-46.35-7.135v113.387h58.177s32.359-8.116,56.8-31.954S-2798.051-3847.812-2798.051-3877.176Z" transform="translate(3325.755 4630.479)" fill="url(#linear-gradient-2)"/>
      <path id="路径_35" data-name="路径 35" d="M-3210.2-2041.676v18.052c0,11.276,19.071,20.416,42.6,20.416s42.6-9.14,42.6-20.416v-18.052" transform="translate(3641.716 2815.457)" fill-rule="evenodd" fill="url(#linear-gradient-3)"/>
      <ellipse id="oval_7" data-name="oval 7" cx="42.597" cy="20.416" rx="42.597" ry="20.416" transform="translate(431.514 753.365)" fill="url(#linear-gradient-4)"/>
      <path id="路径_36" data-name="路径 36" d="M-3210.2-2041.676v18.052c0,11.276,19.071,20.416,42.6,20.416s42.6-9.14,42.6-20.416v-18.052" transform="translate(3607.202 2790.706)" fill-rule="evenodd" fill="url(#linear-gradient-3)"/>
      <ellipse id="oval_8" data-name="oval 8" cx="42.597" cy="20.416" rx="42.597" ry="20.416" transform="translate(397 728.613)" fill="url(#linear-gradient-6)"/>
      <path id="路径_37" data-name="路径 37" d="M-3210.2-2041.676v18.052c0,11.276,19.071,20.416,42.6,20.416s42.6-9.14,42.6-20.416v-18.052" transform="translate(3633.883 2765.954)" fill-rule="evenodd" fill="url(#linear-gradient-3)"/>
      <ellipse id="oval_9" data-name="oval 9" cx="42.597" cy="20.416" rx="42.597" ry="20.416" transform="translate(423.681 703.862)" fill="url(#linear-gradient-6)"/>
    </g>
    <g id="组_17" data-name="组 17" transform="translate(3416.684 2211.236)">
      <path id="路径_24" data-name="路径 24" d="M-3210.2-2041.676v18.1c0,11.3,19.118,20.466,42.7,20.466s42.7-9.163,42.7-20.466v-18.1" transform="translate(-134.735 -103.095)" fill="none" stroke="#3f4043" stroke-linecap="round" stroke-linejoin="round" stroke-width="7" fill-rule="evenodd"/>
      <line id="直线_8" data-name="直线 8" y2="17.868" transform="translate(-3272.78 -2129.954)" fill="none" stroke="#3f4043" stroke-linecap="round" stroke-linejoin="round" stroke-width="4"/>
      <line id="直线_9" data-name="直线 9" y2="17.868" transform="translate(-3279.749 -2127.371)" fill="none" stroke="#3f4043" stroke-linecap="round" stroke-linejoin="round" stroke-width="4"/>
      <path id="路径_25" data-name="路径 25" d="M-3294.385-1967.036c-7.759,5.131-20.366,8.469-34.6,8.469-23.583,0-42.7-9.163-42.7-20.466,0-8.6,11.067-15.96,26.747-18.99" transform="translate(0 -139.518)" fill="none" stroke="#3f4043" stroke-linecap="round" stroke-linejoin="round" stroke-width="7" fill-rule="evenodd"/>
      <path id="路径_26" data-name="路径 26" d="M-3371.684-1883.375v18.1c0,11.3,19.118,20.466,42.7,20.466s42.7-9.163,42.7-20.466v-7.231" transform="translate(0 -235.176)" fill="none" stroke="#3f4043" stroke-linecap="round" stroke-linejoin="round" stroke-width="7" fill-rule="evenodd"/>
      <line id="直线_10" data-name="直线 10" y2="17.868" transform="translate(-3355.73 -2102.598)" fill="none" stroke="#3f4043" stroke-linecap="round" stroke-linejoin="round" stroke-width="7"/>
      <line id="直线_11" data-name="直线 11" y2="17.868" transform="translate(-3299.526 -2103.734)" fill="none" stroke="#3f4043" stroke-linecap="round" stroke-linejoin="round" stroke-width="4"/>
      <line id="直线_12" data-name="直线 12" y2="17.868" transform="translate(-3306.496 -2101.151)" fill="none" stroke="#3f4043" stroke-linecap="round" stroke-linejoin="round" stroke-width="4"/>
      <line id="直线_13" data-name="直线 13" y2="17.868" transform="translate(-3314.203 -2099.344)" fill="none" stroke="#3f4043" stroke-linecap="round" stroke-linejoin="round" stroke-width="4"/>
      <path id="路径_27" data-name="路径 27" d="M-3028.622-1846.5c11.94,3.629,19.865,10.019,19.865,17.3,0,11.3-19.118,20.466-42.7,20.466-11.232,0-21.451-2.078-29.075-5.477" transform="translate(-242.927 -265.939)" fill="none" stroke="#3f4043" stroke-linecap="round" stroke-linejoin="round" stroke-width="7" fill-rule="evenodd"/>
      <path id="路径_28" data-name="路径 28" d="M-3162.8-1727.287v3.306c0,11.3,19.118,20.466,42.7,20.466s42.7-9.163,42.7-20.466v-18.1" transform="translate(-174.288 -353.07)" fill="none" stroke="#3f4043" stroke-linecap="round" stroke-linejoin="round" stroke-width="7" fill-rule="evenodd"/>
      <line id="直线_14" data-name="直线 14" y2="17.868" transform="translate(-3263.507 -2081.011)" fill="none" stroke="#3f4043" stroke-linecap="round" stroke-linejoin="round" stroke-width="7"/>
      <line id="直线_15" data-name="直线 15" y2="17.868" transform="translate(-3278.247 -2076.193)" fill="none" stroke="#3f4043" stroke-linecap="round" stroke-linejoin="round" stroke-width="4"/>
      <ellipse id="oval_2" data-name="oval 2" cx="42.701" cy="20.466" rx="42.701" ry="20.466" transform="translate(-3344.937 -2165.236)" fill="none" stroke="#3f4043" stroke-linecap="round" stroke-linejoin="round" stroke-width="7"/>
    </g>
  </g>
</svg>
