<svg xmlns="http://www.w3.org/2000/svg" xmlns:xlink="http://www.w3.org/1999/xlink" width="383.032" height="77.44" viewBox="0 0 383.032 77.44">
  <defs>
    <linearGradient id="linear-gradient" y1="0.5" x2="1" y2="0.5" gradientUnits="objectBoundingBox">
      <stop offset="0" stop-color="#3dc4ed"/>
      <stop offset="1" stop-color="#2976ba"/>
    </linearGradient>
    <linearGradient id="linear-gradient-2" y1="0.5" x2="1" y2="0.5" gradientUnits="objectBoundingBox">
      <stop offset="0" stop-color="#5a68d2"/>
      <stop offset="0.234" stop-color="#5d66d2"/>
      <stop offset="0.443" stop-color="#6862d2"/>
      <stop offset="0.641" stop-color="#7a5bd3"/>
      <stop offset="0.831" stop-color="#9351d5"/>
      <stop offset="1" stop-color="#b146d7"/>
    </linearGradient>
    <linearGradient id="linear-gradient-3" y1="0.5" x2="1" y2="0.5" gradientUnits="objectBoundingBox">
      <stop offset="0" stop-color="#618fe0"/>
      <stop offset="1" stop-color="#6962d6"/>
    </linearGradient>
  </defs>
  <g id="组_65" data-name="组 65" transform="translate(-1364.275 -367.918)">
    <g id="组_43" data-name="组 43">
      <g id="DFINANCE-2" style="isolation: isolate">
        <g id="组_42" data-name="组 42" style="isolation: isolate">
          <path id="路径_74" data-name="路径 74" d="M1496.6,407.1a29.527,29.527,0,0,1-.643,6.176,24.515,24.515,0,0,1-1.948,5.672,21.166,21.166,0,0,1-3.291,4.873,19.776,19.776,0,0,1-4.691,3.81,23.8,23.8,0,0,1-6.148,2.492,30.38,30.38,0,0,1-7.646.9h-16.245l8.543-40.164h14.116a22.951,22.951,0,0,1,7.773,1.2,15.9,15.9,0,0,1,5.615,3.348,13.754,13.754,0,0,1,3.417,5.125A18.155,18.155,0,0,1,1496.6,407.1Zm-9.579.7a11.99,11.99,0,0,0-.63-4.019,7.544,7.544,0,0,0-1.932-3.011,8.668,8.668,0,0,0-3.291-1.89,15.027,15.027,0,0,0-4.706-.659h-4.4l-5.405,25.46h5.517a16.017,16.017,0,0,0,6.161-1.134,13.107,13.107,0,0,0,4.678-3.221,14.294,14.294,0,0,0,2.969-5.014A19.43,19.43,0,0,0,1487.025,407.8Z" fill="#efefef"/>
          <path id="路径_75" data-name="路径 75" d="M1529.4,398.33h-14.145l-2.072,9.69h13.024l-1.624,7.45h-13l-3.278,15.545h-9.131l8.543-40.164h23.247Z" fill="#efefef"/>
          <path id="路径_76" data-name="路径 76" d="M1538.2,431.015h-9.131l8.487-40.164h9.13Z" fill="#efefef"/>
          <path id="路径_77" data-name="路径 77" d="M1584.018,431.015h-8.262L1563.18,405.5q-.168-.336-.364-.785t-.392-.91q-.2-.462-.365-.883a6.289,6.289,0,0,1-.252-.755h-.168q-.14,1.037-.307,2.324a23.873,23.873,0,0,1-.477,2.549l-5.125,23.975h-8.487l8.487-40.164h8.962l12.044,24.564q.14.309.351.742t.42.9q.209.462.391.91a6.187,6.187,0,0,1,.267.785h.111c.019-.281.047-.593.085-.939s.084-.695.14-1.05.116-.7.181-1.037.126-.634.183-.895l5.1-23.976h8.542Z" fill="#efefef"/>
          <path id="路径_78" data-name="路径 78" d="M1619.281,431.015l-1.149-8.934h-14.395l-4.706,8.934h-10.194L1612,390.851h10.783l5.742,40.164Zm-3.276-29.436c-.02-.3-.034-.631-.042-.994s-.01-.715,0-1.051.022-.64.042-.91.037-.472.055-.6h-.168a5.49,5.49,0,0,1-.2.645c-.094.261-.2.546-.322.854s-.262.63-.42.966-.322.663-.49.98l-7.338,13.668h10.335Z" fill="#efefef"/>
          <path id="路径_79" data-name="路径 79" d="M1670.173,431.015h-8.263L1649.335,405.5q-.169-.336-.365-.785t-.392-.91q-.2-.462-.364-.883a5.94,5.94,0,0,1-.252-.755h-.168q-.141,1.037-.308,2.324a23.4,23.4,0,0,1-.477,2.549l-5.125,23.975H1633.4l8.487-40.164h8.962l12.044,24.564q.14.309.351.742c.14.29.279.588.42.9s.27.612.391.91a6.052,6.052,0,0,1,.267.785h.111c.019-.281.047-.593.085-.939s.084-.695.14-1.05.116-.7.182-1.037.126-.634.182-.895l5.1-23.976h8.542Z" fill="#efefef"/>
          <path id="路径_80" data-name="路径 80" d="M1714.622,400.57q-.841-.447-1.807-.9a16.6,16.6,0,0,0-2.115-.8,19.771,19.771,0,0,0-2.479-.575,17.522,17.522,0,0,0-2.9-.223,15.611,15.611,0,0,0-6.429,1.246,13.908,13.908,0,0,0-4.691,3.346,14.23,14.23,0,0,0-2.885,4.875,17.438,17.438,0,0,0-.979,5.853,12.476,12.476,0,0,0,.755,4.509,8.849,8.849,0,0,0,2.157,3.291,9.2,9.2,0,0,0,3.361,2.016,13.233,13.233,0,0,0,4.4.687,18.713,18.713,0,0,0,2.885-.21,20.115,20.115,0,0,0,2.549-.561,21.57,21.57,0,0,0,2.282-.8q1.078-.449,2.059-.953l-1.9,8.542a22.285,22.285,0,0,1-4.58,1.332,31.389,31.389,0,0,1-5.643.461,21.41,21.41,0,0,1-7.534-1.246,15.081,15.081,0,0,1-9.146-9.047,20.036,20.036,0,0,1-1.218-7.156,28.279,28.279,0,0,1,.672-6.176,24.13,24.13,0,0,1,2.031-5.685,21.919,21.919,0,0,1,3.417-4.916,20.689,20.689,0,0,1,4.845-3.865,24.775,24.775,0,0,1,6.33-2.535,31.5,31.5,0,0,1,7.828-.91,28.443,28.443,0,0,1,3.138.168q1.512.168,2.885.434t2.534.589q1.163.322,2.059.63Z" fill="#efefef"/>
          <path id="路径_81" data-name="路径 81" d="M1745.739,398.217h-14.032l-1.905,9.047h13.08l-1.6,7.395h-13.025l-1.96,9.018h14.985l-1.569,7.338H1715.63l8.543-40.164h23.134Z" fill="#efefef"/>
        </g>
      </g>
    </g>
    <g id="组_45" data-name="组 45">
      <path id="路径_82" data-name="路径 82" d="M1389.642,389.336A17.3,17.3,0,0,1,1402,418.745a17.564,17.564,0,0,1-12.561,5.2h-6.779a3.778,3.778,0,0,1-3.778-3.778V393.114a3.779,3.779,0,0,1,3.778-3.778h6.98m3.337-21.418h-24.731a3.973,3.973,0,0,0-3.973,3.973v69.494a3.973,3.973,0,0,0,3.973,3.973h24.731a38.719,38.719,0,0,0,38.72-38.72h0a38.719,38.719,0,0,0-38.72-38.72Z" fill="url(#linear-gradient)"/>
      <g id="组_44" data-name="组 44">
        <path id="路径_83" data-name="路径 83" d="M1392.979,367.918h-6.565a39.211,39.211,0,0,1,33.037,38.045q.008.336.008.673v0h0q0,.339-.008.675a39.211,39.211,0,0,1-33.037,38.045h6.565a38.719,38.719,0,0,0,38.72-38.72h0A38.719,38.719,0,0,0,1392.979,367.918Z" fill="url(#linear-gradient-2)"/>
      </g>
      <path id="路径_84" data-name="路径 84" d="M1364.275,373.28c0,18.188,13.114,28.022,13.114,40.6s-13.114,19.53-13.114,26.116Z" fill="url(#linear-gradient-3)"/>
    </g>
  </g>
</svg>
